<svg width="698" height="1001" viewBox="0 0 698 1001" fill="none" xmlns="http://www.w3.org/2000/svg">
<path fill-rule="evenodd" clip-rule="evenodd" d="M590 0C590 32.0325 572.091 58 550 58C572.091 58 590 83.9675 590 116C590 83.9675 607.909 58 630 58C607.909 58 590 32.0325 590 0Z" fill="#FFD028"/>
<path fill-rule="evenodd" clip-rule="evenodd" d="M651 148C651 180.033 633.091 206 611 206C633.091 206 651 231.967 651 264C651 231.967 668.909 206 691 206C668.909 206 651 180.033 651 148Z" fill="#54CD63"/>
<path d="M3.12598 695.304V679H59.0957H148.647H257.388H327.75H433.293H451.683H698.749V848.424V944.124V998L625.189 962.556L613.995 950.504H599.603L519.646 892.376L478.868 851.26L451.683 854.096L433.293 848.424L378.123 805.891H358.134L342.942 820.778L286.972 778.953L220.608 764.701L197.421 759.721L158.242 751.307H86.2809L3.12598 695.304Z" fill="#BE8973"/>
<path d="M59.0957 679H3.12598V695.304L86.2809 751.307H158.242L197.421 759.721M59.0957 679L55.0978 698.849L78.2853 712.318L101.473 732.876H124.66L197.421 759.721M59.0957 679H148.647M197.421 759.721L220.608 764.701M148.647 679L135.055 716.571L220.608 764.701M148.647 679H257.388M220.608 764.701L286.972 778.953L342.942 820.778L358.134 805.891H378.123L433.293 848.424L451.683 854.096L478.868 851.26L519.646 892.376L599.603 950.504H613.995L625.189 962.556L698.749 998V944.124M257.388 679L244.595 745.636H286.972M257.388 679H327.75M286.972 745.636L323.752 759.721L346.14 776.827L386.119 769.029M286.972 745.636L282.175 732.876L327.75 679M386.119 769.029L433.293 679M386.119 769.029L423.698 827.158L458.08 839.209L466.075 824.322H486.864M433.293 679H451.683M433.293 679H327.75M486.864 824.322L562.823 895.211L613.995 913.642L698.749 944.124M486.864 824.322L482.866 815.35M698.749 944.124V848.424M451.683 679H698.749V848.424M451.683 679L458.08 759.721L482.866 815.35M482.866 815.35L501.256 801.638L556.426 808.727L575.616 824.322L582.812 801.638L609.198 808.727L621.191 797.384L644.379 815.35L660.37 808.727L698.749 848.424" stroke="#02365E" stroke-width="5" stroke-linejoin="round"/>
<path d="M343.457 820.778L287.568 778.953L221.3 764.701L198.146 759.721L125.491 732.876H102.337L79.1832 712.318L56.0293 698.849L60.0213 679H149.443L135.87 716.571L221.3 764.701L287.568 778.953L343.457 820.778L358.627 805.891H378.587L433.677 848.424L452.04 854.096L479.186 851.26L519.905 892.376L599.746 950.504H614.118L625.295 962.556L698.749 998V944.124L614.118 913.642L563.019 895.211L487.171 824.322H466.412L458.428 839.209L424.096 827.158L386.571 769.029L346.65 776.827L324.295 759.721L287.568 745.636H245.252L258.027 679H328.287H433.677H452.04H698.749V848.424V944.124V998L625.295 962.556L614.118 950.504H599.746L519.905 892.376L479.186 851.26L452.04 854.096L433.677 848.424L378.587 805.891H358.627L343.457 820.778Z" fill="#90685A"/>
<path d="M159.024 751.307L198.146 759.721M198.146 759.721L125.491 732.876H102.337L79.1832 712.318L56.0293 698.849L60.0213 679H149.443L135.87 716.571L221.3 764.701M198.146 759.721L221.3 764.701M221.3 764.701L287.568 778.953L343.457 820.778L358.627 805.891H378.587L433.677 848.424L452.041 854.096L479.186 851.26L519.905 892.376L599.746 950.504H614.118L625.295 962.556L698.749 998V944.124M287.568 745.636H245.252L258.027 679H328.287M287.568 745.636L324.295 759.721L346.65 776.827L386.571 769.029M287.568 745.636L282.778 732.876L328.287 679M386.571 769.029L433.677 679M386.571 769.029L424.096 827.158L458.428 839.209L466.412 824.322H487.171M433.677 679H452.041M433.677 679H328.287M487.171 824.322L563.019 895.211L614.118 913.642L698.749 944.124M487.171 824.322L483.178 815.35M698.749 944.124V848.424M452.041 679H698.749V848.424M452.041 679L458.428 759.721L483.178 815.35M483.178 815.35L501.542 801.638L556.632 808.727L575.794 824.322L582.98 801.638L609.327 808.727L621.303 797.384L644.457 815.35L660.425 808.727L698.749 848.424" stroke="#02365E" stroke-width="5" stroke-linejoin="round"/>
<path d="M245.131 745.636L257.909 679H328.188L282.666 732.876L287.458 745.636L324.195 759.721L346.556 776.827L386.487 769.029L433.606 679H451.974L458.363 759.721L483.121 815.35L501.489 801.638L556.594 808.727L575.761 824.322L582.949 801.638L609.303 808.727L621.283 797.384L644.443 815.35L660.415 808.727L698.749 848.424V944.124L614.095 913.642L562.983 895.211L487.114 824.322H466.35L458.363 839.209L424.023 827.158L386.487 769.029L346.556 776.827L324.195 759.721L287.458 745.636H245.131Z" fill="#30262D"/>
<path d="M287.458 778.953L343.362 820.778L358.535 805.891H378.501L433.606 848.424L451.974 854.096L479.128 851.26L519.857 892.376L599.72 950.504H614.095L625.276 962.556L698.749 998V944.124M698.749 679V848.424M287.458 745.636H245.131L257.909 679H328.188L282.666 732.876L287.458 745.636ZM287.458 745.636L324.195 759.721L346.556 776.827L386.487 769.029M386.487 769.029L433.606 679H451.974L458.363 759.721L483.121 815.35M386.487 769.029L424.023 827.158L458.363 839.209L466.35 824.322H487.114M487.114 824.322L562.983 895.211L614.095 913.642L698.749 944.124M487.114 824.322L483.121 815.35M698.749 944.124V848.424M483.121 815.35L501.489 801.638L556.594 808.727L575.761 824.322L582.949 801.638L609.303 808.727L621.283 797.384L644.443 815.35L660.415 808.727L698.749 848.424" stroke="#02365E" stroke-width="5" stroke-linejoin="round"/>
<path d="M569.189 687.5C413.68 687.5 271.902 686.045 169.01 683.693C117.56 682.517 75.8521 681.117 47.0172 679.564C32.5921 678.787 21.4287 677.973 13.89 677.135C13.4842 677.09 13.0899 677.045 12.7069 677C13.0899 676.955 13.4842 676.91 13.89 676.865C21.4287 676.027 32.5921 675.213 47.0172 674.436C75.8521 672.883 117.56 671.483 169.01 670.307C271.902 667.955 413.68 666.5 569.189 666.5C612.264 666.5 658.044 666.612 698.5 666.823V687.177C658.044 687.388 612.264 687.5 569.189 687.5Z" fill="#54CD63" stroke="#02365E" stroke-width="5"/>
<path fill-rule="evenodd" clip-rule="evenodd" d="M385.34 263.43C366.193 262.226 351.002 244.696 351.002 223.248C351.002 201.02 367.318 183 387.444 183C407.571 183 423.887 201.02 423.887 223.248C423.887 244.696 408.695 262.226 389.547 263.43L392.382 270.527H382.506L385.34 263.43Z" fill="#FFD028"/>
<path fill-rule="evenodd" clip-rule="evenodd" d="M394.963 258.712C374.412 258.712 357.753 239.988 357.753 216.889C357.753 207.022 360.793 197.953 365.878 190.801C356.856 198.127 351.001 209.932 351.001 223.248C351.001 244.696 366.192 262.226 385.34 263.43L382.505 270.527H392.381L389.547 263.43C396.889 262.968 403.648 260.107 409.193 255.545C404.809 257.586 400.003 258.712 394.963 258.712Z" fill="#E8B500"/>
<mask id="path-12-inside-1_0_1" fill="white">
<path fill-rule="evenodd" clip-rule="evenodd" d="M385.34 263.43C366.193 262.226 351.002 244.696 351.002 223.248C351.002 201.02 367.318 183 387.444 183C407.571 183 423.887 201.02 423.887 223.248C423.887 244.696 408.695 262.226 389.547 263.43L392.382 270.527H382.506L385.34 263.43Z"/>
</mask>
<path d="M385.34 263.43L385.56 259.937L390.383 260.24L388.59 264.728L385.34 263.43ZM389.547 263.43L386.297 264.728L384.505 260.24L389.328 259.937L389.547 263.43ZM392.382 270.527L395.632 269.229L397.548 274.027H392.382V270.527ZM382.506 270.527V274.027H377.339L379.255 269.229L382.506 270.527ZM354.502 223.248C354.502 243.142 368.535 258.866 385.56 259.937L385.12 266.923C363.85 265.585 347.502 246.251 347.502 223.248H354.502ZM387.444 186.5C369.57 186.5 354.502 202.617 354.502 223.248H347.502C347.502 199.422 365.066 179.5 387.444 179.5V186.5ZM420.387 223.248C420.387 202.617 405.319 186.5 387.444 186.5V179.5C409.823 179.5 427.387 199.422 427.387 223.248H420.387ZM389.328 259.937C406.353 258.867 420.387 243.142 420.387 223.248H427.387C427.387 246.251 411.038 265.586 389.767 266.923L389.328 259.937ZM389.131 271.825L386.297 264.728L392.798 262.132L395.632 269.229L389.131 271.825ZM382.506 267.027H392.382V274.027H382.506V267.027ZM388.59 264.728L385.756 271.825L379.255 269.229L382.09 262.132L388.59 264.728Z" fill="#02365E" mask="url(#path-12-inside-1_0_1)"/>
<path d="M387.252 270.311C381.881 298.121 385.718 300.492 385.909 314.074C386.101 327.656 377.893 334.272 376.511 347.921C374.967 363.165 380.944 371.706 380.002 386.999C379.443 396.067 376.511 409.999 376.511 409.999" stroke="#02365E" stroke-width="3.5"/>
<path d="M394.468 192C407.084 198.678 412.413 207.077 416.104 219.422" stroke="#FFF7DC" stroke-width="7" stroke-linecap="round"/>
<path d="M471.662 371.145C470.91 366.965 469.77 364.548 467.023 361.309C466.226 354.714 463.841 350.966 464.982 344.422C465.155 343.425 465.538 341.892 465.538 341.892C465.538 341.892 458.046 336.731 456.445 331.618C455.277 327.883 455.248 325.323 456.445 321.597C458.062 316.566 460.654 313.593 465.538 311.576C469.892 309.779 473.294 309.667 477.601 311.576C482.604 313.794 482.86 318.306 486.23 322.618C489.599 322.219 491.494 321.159 494.859 321.597C497.127 321.892 499.684 323.638 499.684 323.638C499.684 323.638 499.576 320.589 499.684 318.813C499.933 314.718 502.349 312.484 505.807 310.277C510.817 307.08 515.821 307.406 521.024 310.277C524.851 312.389 527.016 314.624 528.262 318.813C529.716 323.704 529.059 327.81 525.664 331.618C523.098 334.495 521.357 335.939 518.055 337.927V347.02C519.899 348.934 520.664 350.511 521.024 353.144C521.352 355.541 521.229 357.13 520.096 359.268C519.017 361.306 515.828 363.351 515.828 363.351C515.828 363.351 514.028 370.286 512.674 374.67C511.591 378.174 510.141 379.937 509.704 383.578C509.445 385.736 509.704 389.145 509.704 389.145L510.103 390.166L512.674 396.753L522.138 395.896L574.098 391.186L628.841 422.362L654.264 430.898L628.841 434.424L574.098 409.372L525.664 421.62V430.898C525.664 430.898 524.004 440.189 525.664 445.744C526.842 449.69 528.512 451.518 530.674 455.023C537.436 465.985 543.316 470.758 552.757 479.518C572.404 497.749 610.841 516.076 610.841 516.076C610.841 516.076 599.559 528.276 590.985 534.447C583.988 539.483 579.729 541.944 571.871 545.489L628.099 537.231L661.502 528.323L662.43 534.447C662.43 534.447 664.519 529.808 667.148 528.323C670.465 526.45 673.672 526.306 676.904 528.323C680.176 530.366 681.374 533.379 681.172 537.231C681.008 540.37 680.167 542.589 677.646 544.468C674.897 546.518 672.179 546.57 668.925 545.489C666.39 544.647 663.508 541.313 663.508 541.313L666.621 561.912C666.621 561.912 668.831 557.37 671.523 556.159C674.1 555 676.135 555.112 678.76 556.159C681.664 557.317 683.451 558.911 684.327 561.912C685.293 565.219 684.652 568.134 682.1 570.448C679.742 572.587 677.242 572.744 674.121 572.118C671.068 571.506 667.509 567.665 667.509 567.665L668.925 576.386L678.76 578.984L667.148 594.016L661.502 586.593L648.512 581.211L641.089 564.881L628.099 555.292L548.489 571.376L534.385 556.53C521.177 561.555 511.407 561.555 498.199 556.53C497.025 556.084 495.23 555.292 495.23 555.292C495.23 555.292 497.138 561.107 498.199 564.881C504.206 586.255 505.251 621.295 505.251 621.295L515.086 651.543L506.118 654.615C506.118 654.615 508.766 654.95 509.89 656.056C511.084 657.231 511.415 658.405 511.375 660.079C511.322 662.254 510.545 663.948 508.591 664.904C506.689 665.834 504.941 665.472 503.209 664.255C501.668 663.172 500.979 661.954 500.797 660.079C500.639 658.456 501.91 656.056 501.91 656.056L477.972 664.255C477.972 664.255 480.624 663.926 482.054 665.209C483.63 666.622 484.486 668.391 484.096 670.471C483.702 672.566 482.877 674.034 480.941 674.925C478.883 675.872 476.951 675.604 475.188 674.183C473.595 672.898 473.03 671.4 473.147 669.358C473.25 667.555 475.188 665.209 475.188 665.209L467.951 667.688L464.054 674.183L454.404 665.209L460.714 660.079C460.714 660.079 461.202 653.195 463.312 649.502C466.73 643.515 474.005 645.305 477.972 639.666C481.057 635.28 482.425 626.676 482.425 626.676L470.734 545.076C465.989 543.678 463.375 542.588 459.043 540.2C452.492 536.588 444.012 528.323 444.012 528.323L455.518 505.313C455.518 505.313 472.405 482.629 480.013 466.343C483.675 458.503 487.978 454.395 488.178 445.744C488.343 438.608 485.237 435 483.353 428.115L435.847 448.342L393.166 420.135L379 424L377 409.372H393.166L435.847 427.744L483.353 405.198L490.591 401.764L491.89 395.965L493.189 390.166C493.189 390.166 490.174 391.12 488.178 391.186C484.893 391.296 483.031 390.446 480.013 389.145C477.445 388.038 475.628 387.623 473.889 385.434C472.136 383.226 472.109 381.351 471.662 378.567C471.203 375.705 472.176 373.997 471.662 371.145Z" fill="#8C5420"/>
<path d="M482.426 626.676L505.251 621.294L515.086 651.542L506.118 654.614C506.118 654.614 510.251 654.949 511.375 656.055C512.568 657.23 515.126 660.26 515.086 661.934C515.034 664.109 511.844 669.33 509.89 670.285C507.988 671.215 502.158 670.018 500.426 668.801C498.885 667.718 498.01 662.696 497.828 660.821C497.671 659.198 501.911 656.055 501.911 656.055L477.972 664.255C477.972 664.255 482.109 663.926 483.539 665.208C485.115 666.621 487.084 668.576 486.694 670.656C486.3 672.751 486.217 677.002 484.281 677.894C482.224 678.841 476.952 678.944 475.188 677.522C473.596 676.238 471.546 672.699 471.662 670.656C471.765 668.853 475.188 665.208 475.188 665.208L467.951 667.687L464.054 674.182L454.404 665.208L460.714 660.079C460.714 660.079 461.202 653.195 463.312 649.501C466.731 643.514 474.005 645.305 477.972 639.666C481.057 635.28 482.426 626.676 482.426 626.676Z" fill="white"/>
<path d="M628.099 555.292V537.23L661.502 528.323L662.43 534.447C662.43 534.447 664.519 529.808 667.148 528.323C670.466 526.449 673.672 526.305 676.904 528.323C680.176 530.366 681.375 533.378 681.173 537.23C681.008 540.37 680.167 542.588 677.647 544.468C674.897 546.518 672.179 546.569 668.925 545.488C666.39 544.647 663.508 541.313 663.508 541.313L666.621 561.911C666.621 561.911 668.831 557.369 671.523 556.159C674.101 555 676.135 555.112 678.76 556.159C681.664 557.317 683.451 558.911 684.327 561.911C685.293 565.218 684.653 568.134 682.1 570.448C679.742 572.586 677.242 572.744 674.121 572.118C671.068 571.506 667.509 567.664 667.509 567.664L668.925 576.386L678.76 578.984L667.148 594.015L661.502 586.592C661.502 586.592 652.638 584.834 648.512 581.211C643.249 576.588 645.572 570.264 641.089 564.881C637.054 560.035 628.099 555.292 628.099 555.292Z" fill="white"/>
<path d="M483.352 331.618C479.469 332.308 477.027 332.756 473.888 335.144C469.27 338.657 468.192 342.636 467.022 348.319C466.159 352.507 467.022 359.268 467.022 359.268V361.309C466.224 354.714 463.84 350.966 464.98 344.422C465.154 343.425 465.537 341.892 465.537 341.892C465.537 341.892 458.044 336.731 456.444 331.618C455.275 327.883 455.247 325.323 456.444 321.597C458.061 316.566 460.652 313.593 465.537 311.576C469.891 309.779 473.293 309.667 477.599 311.576C482.602 313.794 482.858 318.306 486.228 322.618C489.598 322.219 491.492 321.159 494.857 321.597C497.126 321.892 499.682 323.638 499.682 323.638C499.682 323.638 499.574 320.589 499.682 318.813C499.931 314.718 502.347 312.484 505.806 310.277C510.815 307.08 515.82 307.406 521.023 310.277C524.849 312.389 527.015 314.624 528.26 318.813C529.714 323.704 529.058 327.81 525.662 331.618C523.097 334.495 521.356 335.939 518.054 337.927V347.02C515.962 346.474 514.285 346.879 512.672 348.319C511.157 349.672 510.733 353.144 510.733 353.144C510.733 353.144 508.597 345.756 505.806 341.824C502.137 336.656 499.323 333.207 493.187 331.618C489.469 330.655 487.133 330.946 483.352 331.618Z" fill="#FFD028"/>
<path d="M488.178 445.745C488.343 438.609 485.237 435 483.353 428.115V405.199L490.59 401.764L491.889 395.965C491.889 395.965 498.17 395.963 501.91 394.713C505.38 393.552 510.102 390.166 510.102 390.166L512.673 396.754L522.137 395.896C522.137 395.896 520.925 408.837 522.137 416.981C522.963 422.527 525.663 430.899 525.663 430.899C525.663 430.899 524.003 440.19 525.663 445.745C526.842 449.69 528.512 451.518 530.674 455.023C537.435 465.985 543.315 470.758 552.757 479.519C572.403 497.749 610.84 516.076 610.84 516.076C610.84 516.076 599.558 528.276 590.984 534.448C583.988 539.484 579.728 541.944 571.87 545.489C565.928 551.735 561.135 554.504 552.757 556.531C545.783 558.218 541.358 558.218 534.385 556.531C521.177 561.555 511.407 561.555 498.199 556.531C497.024 556.084 495.229 555.292 495.229 555.292L470.734 545.076C465.989 543.679 463.375 542.589 459.043 540.2C452.491 536.588 444.012 528.324 444.012 528.324L455.517 505.313C455.517 505.313 472.404 482.629 480.013 466.343C483.675 458.503 487.978 454.395 488.178 445.745Z" fill="#A9DEFE"/>
<circle cx="479.456" cy="671.399" r="7.23728" fill="#02365E"/>
<ellipse cx="506.179" cy="662.677" rx="8.35071" ry="7.794" fill="#02365E"/>
<circle cx="479.27" cy="671.956" r="3.71143" fill="#FF0000"/>
<circle cx="506.364" cy="663.049" r="3.71143" fill="#FF0000"/>
<ellipse cx="671.894" cy="536.49" rx="9.27857" ry="9.64971" fill="#02365E"/>
<ellipse cx="675.603" cy="564.14" rx="9.27857" ry="9.093" fill="#02365E"/>
<circle cx="672.264" cy="536.489" r="3.71143" fill="#FF0000"/>
<circle cx="675.604" cy="564.325" r="3.71143" fill="#FF0000"/>
<path d="M471.662 371.145C470.91 366.965 469.77 364.548 467.023 361.309C466.226 354.714 463.841 350.966 464.982 344.422C465.155 343.425 465.538 341.892 465.538 341.892C465.538 341.892 458.046 336.731 456.445 331.618C455.277 327.883 455.248 325.323 456.445 321.597C458.062 316.566 460.654 313.593 465.538 311.576C469.892 309.779 473.294 309.667 477.601 311.576C482.604 313.794 482.86 318.306 486.23 322.618C489.599 322.219 491.494 321.159 494.859 321.597C497.127 321.892 499.684 323.638 499.684 323.638C499.684 323.638 499.576 320.589 499.684 318.813C499.933 314.718 502.349 312.484 505.807 310.277C510.817 307.08 515.821 307.406 521.024 310.277C524.851 312.389 527.016 314.624 528.262 318.813C529.716 323.704 529.059 327.81 525.664 331.618C523.098 334.495 521.357 335.939 518.055 337.927V347.02C519.899 348.934 520.664 350.511 521.024 353.144C521.352 355.541 521.229 357.13 520.096 359.268C519.017 361.306 515.828 363.351 515.828 363.351C515.828 363.351 514.028 370.286 512.674 374.67C511.591 378.174 510.141 379.937 509.704 383.578C509.445 385.736 509.704 389.145 509.704 389.145L510.103 390.166L512.674 396.753L522.138 395.896L574.098 391.186L628.841 422.362L654.264 430.898L628.841 434.424L574.098 409.372L525.664 421.62V430.898C525.664 430.898 524.004 440.189 525.664 445.744C526.842 449.69 528.512 451.518 530.674 455.023C537.436 465.985 543.316 470.758 552.757 479.518C572.404 497.749 610.841 516.076 610.841 516.076C610.841 516.076 599.559 528.276 590.985 534.447C583.988 539.483 579.729 541.944 571.871 545.489L628.099 537.231L661.502 528.323L662.43 534.447C662.43 534.447 664.519 529.808 667.148 528.323C670.465 526.45 673.672 526.306 676.904 528.323C680.176 530.366 681.374 533.379 681.172 537.231C681.008 540.37 680.167 542.589 677.646 544.468C674.897 546.518 672.179 546.57 668.925 545.489C666.39 544.647 663.508 541.313 663.508 541.313L666.621 561.912C666.621 561.912 668.831 557.37 671.523 556.159C674.1 555 676.135 555.112 678.76 556.159C681.664 557.317 683.451 558.911 684.327 561.912C685.293 565.219 684.652 568.134 682.1 570.448C679.742 572.587 677.242 572.744 674.121 572.118C671.068 571.506 667.509 567.665 667.509 567.665L668.925 576.386L678.76 578.984L667.148 594.016L661.502 586.593L648.512 581.211L641.089 564.881L628.099 555.292L548.489 571.376L534.385 556.53C521.177 561.555 511.407 561.555 498.199 556.53C497.025 556.084 495.23 555.292 495.23 555.292C495.23 555.292 497.138 561.107 498.199 564.881C504.206 586.255 505.251 621.295 505.251 621.295L515.086 651.543L506.118 654.615C506.118 654.615 508.766 654.95 509.89 656.056C511.084 657.231 511.415 658.405 511.375 660.079C511.322 662.254 510.545 663.948 508.591 664.904C506.689 665.834 504.941 665.472 503.209 664.255C501.668 663.172 500.979 661.954 500.797 660.079C500.639 658.456 501.91 656.056 501.91 656.056L477.972 664.255C477.972 664.255 480.624 663.926 482.054 665.209C483.63 666.622 484.486 668.391 484.096 670.471C483.702 672.566 482.877 674.034 480.941 674.925C478.883 675.872 476.951 675.604 475.188 674.183C473.595 672.898 473.03 671.4 473.147 669.358C473.25 667.555 475.188 665.209 475.188 665.209L467.951 667.688L464.054 674.183L454.404 665.209L460.714 660.079C460.714 660.079 461.202 653.195 463.312 649.502C466.73 643.515 474.005 645.305 477.972 639.666C481.057 635.28 482.425 626.676 482.425 626.676L470.734 545.076C465.989 543.678 463.375 542.588 459.043 540.2C452.492 536.588 444.012 528.323 444.012 528.323L455.518 505.313C455.518 505.313 472.405 482.629 480.013 466.343C483.675 458.503 487.978 454.395 488.178 445.744C488.343 438.608 485.237 435 483.353 428.115L435.847 448.342L393.166 420.135L373 423.5L370.5 409.372H393.166L435.847 427.744L483.353 405.198L490.591 401.764L491.89 395.965L493.189 390.166C493.189 390.166 490.174 391.12 488.178 391.186C484.893 391.296 483.031 390.446 480.013 389.145C477.445 388.038 475.628 387.623 473.889 385.434C472.136 383.226 472.109 381.351 471.662 378.567C471.203 375.705 472.176 373.997 471.662 371.145Z" fill="#8C5420"/>
<path d="M482.426 626.676L505.251 621.294L515.086 651.542L506.118 654.614C506.118 654.614 510.251 654.949 511.375 656.055C512.568 657.23 515.126 660.26 515.086 661.934C515.034 664.109 511.844 669.33 509.89 670.285C507.988 671.215 502.158 670.018 500.426 668.801C498.885 667.718 498.01 662.696 497.828 660.821C497.671 659.198 501.911 656.055 501.911 656.055L477.972 664.255C477.972 664.255 482.109 663.926 483.539 665.208C485.115 666.621 487.084 668.576 486.694 670.656C486.3 672.751 486.217 677.002 484.281 677.894C482.224 678.841 476.952 678.944 475.188 677.522C473.596 676.238 471.546 672.699 471.662 670.656C471.765 668.853 475.188 665.208 475.188 665.208L467.951 667.687L464.054 674.182L454.404 665.208L460.714 660.079C460.714 660.079 461.202 653.195 463.312 649.501C466.731 643.514 474.005 645.305 477.972 639.666C481.057 635.28 482.426 626.676 482.426 626.676Z" fill="white"/>
<path d="M628.099 555.292V537.23L661.502 528.323L662.43 534.447C662.43 534.447 664.519 529.808 667.148 528.323C670.466 526.449 673.672 526.305 676.904 528.323C680.176 530.366 681.375 533.378 681.173 537.23C681.008 540.37 680.167 542.588 677.647 544.468C674.897 546.518 672.179 546.569 668.925 545.488C666.39 544.647 663.508 541.313 663.508 541.313L666.621 561.911C666.621 561.911 668.831 557.369 671.523 556.159C674.101 555 676.135 555.112 678.76 556.159C681.664 557.317 683.451 558.911 684.327 561.911C685.293 565.218 684.653 568.134 682.1 570.448C679.742 572.586 677.242 572.744 674.121 572.118C671.068 571.506 667.509 567.664 667.509 567.664L668.925 576.386L678.76 578.984L667.148 594.015L661.502 586.592C661.502 586.592 652.638 584.834 648.512 581.211C643.249 576.588 645.572 570.264 641.089 564.881C637.054 560.035 628.099 555.292 628.099 555.292Z" fill="white"/>
<path d="M483.352 331.618C479.469 332.308 477.027 332.756 473.888 335.144C469.27 338.657 468.192 342.636 467.022 348.319C466.159 352.507 467.022 359.268 467.022 359.268V361.309C466.224 354.714 463.84 350.966 464.98 344.422C465.154 343.425 465.537 341.892 465.537 341.892C465.537 341.892 458.044 336.731 456.444 331.618C455.275 327.883 455.247 325.323 456.444 321.597C458.061 316.566 460.652 313.593 465.537 311.576C469.891 309.779 473.293 309.667 477.599 311.576C482.602 313.794 482.858 318.306 486.228 322.618C489.598 322.219 491.492 321.159 494.857 321.597C497.126 321.892 499.682 323.638 499.682 323.638C499.682 323.638 499.574 320.589 499.682 318.813C499.931 314.718 502.347 312.484 505.806 310.277C510.815 307.08 515.82 307.406 521.023 310.277C524.849 312.389 527.015 314.624 528.26 318.813C529.714 323.704 529.058 327.81 525.662 331.618C523.097 334.495 521.356 335.939 518.054 337.927V347.02C515.962 346.474 514.285 346.879 512.672 348.319C511.157 349.672 510.733 353.144 510.733 353.144C510.733 353.144 508.597 345.756 505.806 341.824C502.137 336.656 499.323 333.207 493.187 331.618C489.469 330.655 487.133 330.946 483.352 331.618Z" fill="#FFD028"/>
<path d="M488.178 445.745C488.343 438.609 485.237 435 483.353 428.115V405.199L490.59 401.764L491.889 395.965C491.889 395.965 498.17 395.963 501.91 394.713C505.38 393.552 510.102 390.166 510.102 390.166L512.673 396.754L522.137 395.896C522.137 395.896 520.925 408.837 522.137 416.981C522.963 422.527 525.663 430.899 525.663 430.899C525.663 430.899 524.003 440.19 525.663 445.745C526.842 449.69 528.512 451.518 530.674 455.023C537.435 465.985 543.315 470.758 552.757 479.519C572.403 497.749 610.84 516.076 610.84 516.076C610.84 516.076 599.558 528.276 590.984 534.448C583.988 539.484 579.728 541.944 571.87 545.489C565.928 551.735 561.135 554.504 552.757 556.531C545.783 558.218 541.358 558.218 534.385 556.531C521.177 561.555 511.407 561.555 498.199 556.531C497.024 556.084 495.229 555.292 495.229 555.292L470.734 545.076C465.989 543.679 463.375 542.589 459.043 540.2C452.491 536.588 444.012 528.324 444.012 528.324L455.517 505.313C455.517 505.313 472.404 482.629 480.013 466.343C483.675 458.503 487.978 454.395 488.178 445.745Z" fill="#A9DEFE"/>
<circle cx="479.456" cy="671.399" r="7.23728" fill="#02365E"/>
<ellipse cx="506.179" cy="662.677" rx="8.35071" ry="7.794" fill="#02365E"/>
<circle cx="479.27" cy="671.956" r="3.71143" fill="#FF0000"/>
<circle cx="506.364" cy="663.049" r="3.71143" fill="#FF0000"/>
<ellipse cx="671.894" cy="536.49" rx="9.27857" ry="9.64971" fill="#02365E"/>
<ellipse cx="675.603" cy="564.14" rx="9.27857" ry="9.093" fill="#02365E"/>
<circle cx="672.264" cy="536.489" r="3.71143" fill="#FF0000"/>
<circle cx="675.604" cy="564.325" r="3.71143" fill="#FF0000"/>
<path d="M492.077 395.641H495.231C495.231 395.641 494.429 398.345 495.231 399.723C496.213 401.41 497.953 401.217 499.871 401.579C505.147 402.574 512.675 396.568 512.675 396.568L511.005 398.424L503.768 403.063L498.2 403.806L490.778 401.579L492.077 395.641Z" fill="#2B99D6"/>
<path d="M487.623 427.002C485.026 418.021 487.623 403.063 487.623 403.063L483.54 405.105V427.373L483.911 429.415L487.994 443.332V450.384L481.87 463.003L469.066 486.014L455.519 504.942L444.199 528.139L459.045 540.386L472.592 545.768L491.52 554.119L508.407 559.871H522.325L534.387 556.717L546.263 558.016L561.295 553.933L571.687 545.768L592.842 533.52L610.471 516.262C610.471 516.262 587.374 530.021 571.316 535.933C555.827 541.634 546.725 544.476 530.304 546.139L529.69 546.201C518.454 547.34 511.732 548.021 500.427 546.139L499.832 546.04C482.513 543.158 472.938 541.565 467.396 528.139C464.677 521.552 465.612 517.072 465.911 509.953C466.86 487.346 483.004 478.871 490.778 457.621C492.384 453.231 492.025 450.154 494.675 446.302C496.475 443.684 500.427 440.549 500.427 440.549C500.427 440.549 495.519 440.308 493.004 438.693C488.775 435.977 489.019 431.83 487.623 427.002Z" fill="#2B99D6"/>
<path d="M513.788 439.992C518.124 440.089 524.737 438.136 524.737 438.136V438.693C524.737 438.693 518.196 441.677 513.788 441.477C509.415 441.278 503.211 437.765 503.211 437.765C503.211 437.765 509.568 439.898 513.788 439.992Z" fill="#2B99D6"/>
<path d="M461.272 318.443C462.162 315.517 465.355 311.762 465.355 311.762L459.788 314.731L456.633 320.855L455.52 327.536L458.118 334.402L465.355 341.639L467.025 335.33C467.025 335.33 462.417 331.141 461.272 327.536C460.197 324.151 460.239 321.84 461.272 318.443Z" fill="#E8B500"/>
<path d="M505.253 316.401C505.773 313.513 507.851 309.35 507.851 309.35L502.655 312.69L499.686 316.958L500.057 326.237L503.211 334.031L507.851 336.629L518.057 338.113L526.408 330.876C526.408 330.876 523.105 332.431 520.841 332.917C517.439 333.647 515.137 334.273 511.933 332.917C509.1 331.718 507.702 330.209 506.181 327.536C504.022 323.744 504.479 320.695 505.253 316.401Z" fill="#E8B500"/>
<path d="M435.849 448.343L393.354 420.322L435.849 442.59L483.17 423.848V427.93L435.849 448.343Z" fill="#603914"/>
<path d="M521.954 395.641H524.924C524.924 395.641 524.924 411.971 526.594 414.012C528.264 416.054 527.989 415.682 530.305 416.981C532.622 418.28 574.1 409.373 574.1 409.373L525.851 421.621V429.415L522.882 422.363L521.954 413.27V395.641Z" fill="#603914"/>
<path d="M510.635 380.053L493.005 390.445L509.521 385.434L510.635 380.053Z" fill="#603914"/>
<path d="M472.778 558.758L470.551 545.211L472.592 545.768C472.592 545.768 482.428 613.873 488.18 618.326C493.933 622.78 505.253 621.11 505.253 621.11L482.428 626.863L472.778 558.758Z" fill="#603914"/>
<path d="M548.677 571.748L534.573 556.717L542.367 557.83C542.367 557.83 547.563 563.026 552.759 565.067C557.955 567.109 628.658 555.232 628.658 555.232L548.677 571.748Z" fill="#603914"/>
<path d="M640.163 563.769L628.472 555.233V537.418L631.627 536.49C631.627 536.49 633.26 547.673 637.565 553.006C640.515 556.661 644.092 556.763 647.029 560.429C650.213 564.403 649.195 568.358 652.411 572.306C654.849 575.298 656.242 577.822 660.019 578.615C663.443 579.333 668.741 576.574 668.741 576.574C668.741 576.574 665.221 584.767 667.628 589.007C668.164 589.952 669.298 591.234 669.298 591.234L667.628 594.017L661.504 586.595L655.751 585.296L649.813 582.512L645.916 577.502L644.246 570.635L640.163 563.769Z" fill="#D9D9D9"/>
<path d="M466.84 656.926C464.968 653.244 466.84 646.348 466.84 646.348L462.757 649.503L460.901 660.452L468.139 667.689L514.902 651.173C514.902 651.173 473.706 662.679 471.108 661.565C468.51 660.452 467.955 659.121 466.84 656.926Z" fill="#D9D9D9"/>
<path d="M462.757 669.545C459.485 668.666 457.004 663.05 457.004 663.05L454.592 665.277L464.056 673.813L466.84 669.545C466.84 669.545 464.297 669.958 462.757 669.545Z" fill="#D9D9D9"/>
<path d="M467.136 311.701C466.18 311.843 465.521 312.734 465.664 313.69C465.807 314.646 466.697 315.305 467.653 315.162L467.136 311.701ZM473.518 313.431L473.102 315.131L473.518 313.431ZM478.9 316.215L477.633 317.422L478.9 316.215ZM479.341 320.263C479.731 321.147 480.765 321.546 481.649 321.156C482.533 320.765 482.933 319.732 482.542 318.848L479.341 320.263ZM509.092 309.842C508.135 309.976 507.467 310.86 507.6 311.817C507.734 312.775 508.618 313.442 509.575 313.309L509.092 309.842ZM515.272 311.576L515.659 309.869L515.272 311.576ZM522.88 316.4L524.258 315.322L522.88 316.4ZM525.664 323.267L523.916 323.178L525.664 323.267ZM522.148 327.52C521.628 328.334 521.865 329.416 522.68 329.937C523.494 330.458 524.576 330.22 525.097 329.406L522.148 327.52ZM467.395 313.431C467.653 315.162 467.653 315.162 467.653 315.162C467.653 315.162 467.653 315.162 467.653 315.162C467.653 315.162 467.652 315.162 467.652 315.162C467.652 315.162 467.653 315.162 467.653 315.162C467.654 315.162 467.655 315.162 467.658 315.161C467.663 315.161 467.671 315.159 467.683 315.158C467.707 315.154 467.744 315.149 467.793 315.143C467.891 315.13 468.038 315.111 468.221 315.09C468.59 315.049 469.105 314.999 469.685 314.965C470.898 314.896 472.209 314.912 473.102 315.131L473.934 311.731C472.505 311.382 470.754 311.398 469.485 311.471C468.825 311.509 468.245 311.565 467.828 311.612C467.619 311.636 467.45 311.657 467.332 311.673C467.272 311.681 467.225 311.688 467.192 311.692C467.176 311.695 467.163 311.697 467.153 311.698C467.148 311.699 467.145 311.699 467.142 311.7C467.14 311.7 467.139 311.7 467.138 311.7C467.138 311.7 467.137 311.7 467.137 311.7C467.136 311.7 467.136 311.7 467.136 311.7C467.136 311.701 467.136 311.701 467.395 313.431ZM473.102 315.131C475.278 315.664 476.342 316.067 477.633 317.422L480.167 315.008C478.194 312.936 476.355 312.324 473.934 311.731L473.102 315.131ZM477.633 317.422C477.992 317.799 478.412 318.462 478.778 319.136C478.951 319.453 479.094 319.74 479.193 319.947C479.243 320.051 479.281 320.133 479.307 320.188C479.319 320.215 479.328 320.235 479.334 320.248C479.337 320.255 479.339 320.259 479.34 320.262C479.341 320.263 479.341 320.263 479.341 320.264C479.341 320.264 479.341 320.264 479.341 320.263C479.341 320.263 479.341 320.263 479.341 320.263C479.341 320.263 479.341 320.263 479.341 320.263C479.341 320.263 479.341 320.263 480.941 319.555C482.542 318.848 482.542 318.848 482.542 318.847C482.542 318.847 482.542 318.847 482.542 318.847C482.541 318.847 482.541 318.846 482.541 318.846C482.541 318.845 482.54 318.844 482.54 318.843C482.539 318.841 482.538 318.839 482.537 318.836C482.534 318.83 482.53 318.822 482.526 318.811C482.516 318.791 482.503 318.762 482.487 318.726C482.454 318.655 482.407 318.554 482.348 318.43C482.229 318.184 482.06 317.844 481.854 317.465C481.463 316.745 480.862 315.738 480.167 315.008L477.633 317.422ZM509.334 311.576C509.575 313.309 509.575 313.309 509.575 313.309C509.575 313.309 509.575 313.309 509.575 313.309C509.575 313.309 509.575 313.309 509.575 313.309C509.575 313.309 509.575 313.309 509.575 313.309C509.576 313.309 509.577 313.309 509.58 313.308C509.585 313.308 509.593 313.306 509.605 313.305C509.628 313.302 509.664 313.297 509.712 313.291C509.807 313.279 509.949 313.263 510.127 313.244C510.485 313.206 510.984 313.161 511.548 313.131C512.723 313.068 514.004 313.082 514.885 313.282L515.659 309.869C514.279 309.556 512.59 309.57 511.361 309.636C510.724 309.67 510.162 309.721 509.76 309.763C509.558 309.784 509.395 309.804 509.281 309.818C509.223 309.825 509.178 309.831 509.146 309.835C509.13 309.837 509.118 309.839 509.109 309.84C509.104 309.841 509.1 309.841 509.098 309.842C509.096 309.842 509.095 309.842 509.094 309.842C509.094 309.842 509.093 309.842 509.093 309.842C509.093 309.842 509.092 309.842 509.092 309.842C509.092 309.842 509.092 309.842 509.334 311.576ZM514.885 313.282C516.468 313.641 517.626 314.093 518.612 314.719C519.598 315.344 520.501 316.2 521.502 317.479L524.258 315.322C523.091 313.831 521.905 312.663 520.487 311.763C519.069 310.863 517.507 310.288 515.659 309.869L514.885 313.282ZM521.502 317.479C523.246 319.707 524.028 320.965 523.916 323.178L527.412 323.355C527.592 319.789 526.081 317.65 524.258 315.322L521.502 317.479ZM523.916 323.178C523.88 323.893 523.508 324.923 523.026 325.919C522.801 326.386 522.577 326.793 522.41 327.083C522.327 327.227 522.259 327.341 522.212 327.416C522.189 327.454 522.172 327.482 522.161 327.5C522.155 327.509 522.152 327.515 522.149 327.518C522.148 327.52 522.148 327.521 522.148 327.521C522.148 327.521 522.148 327.521 522.148 327.521C522.148 327.521 522.148 327.521 522.148 327.52C522.148 327.52 522.148 327.52 522.148 327.52C522.148 327.52 522.148 327.52 523.623 328.463C525.097 329.406 525.097 329.405 525.097 329.405C525.097 329.405 525.097 329.405 525.097 329.405C525.098 329.404 525.098 329.404 525.098 329.403C525.099 329.402 525.1 329.401 525.1 329.4C525.102 329.397 525.104 329.394 525.107 329.39C525.112 329.382 525.119 329.37 525.128 329.357C525.145 329.329 525.169 329.29 525.199 329.241C525.259 329.143 525.343 329.004 525.442 328.831C525.641 328.487 525.906 328.003 526.177 327.443C526.689 326.385 527.338 324.817 527.412 323.355L523.916 323.178Z" fill="#FFEBA5"/>
<path d="M393.537 412.526L436.033 431.454L480.385 409.557M528.076 399.165L573.912 394.154L626.986 425.145L643.502 429.598M492.632 557.272C492.632 557.272 497.44 574.428 499.313 585.664C501.383 598.083 502.282 617.768 502.282 617.768M572.613 548.179L625.316 540.941V546.137" stroke="#CD9159" stroke-width="3.5" stroke-linecap="round" stroke-linejoin="round"/>
<path d="M503.765 395.825L508.961 393.227L510.632 396.567M604.716 515.704C604.716 515.704 591.886 510.241 584.118 505.868C573.853 500.09 568.641 495.908 559.251 488.796C552.557 483.725 548.474 481.202 542.55 475.249C536.107 468.775 532.843 464.668 528.075 456.878C525.841 453.227 523.934 451.376 522.879 447.228C521.808 443.014 522.513 440.426 522.879 436.094C523.07 433.836 523.622 430.341 523.622 430.341C523.622 430.341 521.537 425.451 520.652 422.176C519.6 418.276 519.24 416 518.982 411.969C518.64 406.605 519.91 398.237 519.91 398.237L513.23 398.794C513.23 398.794 509.751 402.43 506.92 403.804C504.105 405.17 502.254 405.598 499.126 405.66C495.715 405.727 490.59 403.804 490.59 403.804" stroke="#E1F3FF" stroke-width="3.5" stroke-linecap="round" stroke-linejoin="round"/>
<path d="M483.353 331.618C479.47 332.308 477.028 332.756 473.889 335.144C469.271 338.657 468.193 342.636 467.023 348.319C466.842 349.198 466.737 350.19 466.684 351.209M483.353 331.618C487.135 330.946 489.47 330.655 493.189 331.618C499.324 333.207 502.138 336.656 505.807 341.824C508.598 345.756 510.735 353.144 510.735 353.144C510.735 353.144 511.159 349.672 512.674 348.319C514.286 346.879 515.963 346.474 518.055 347.02M483.353 331.618L486.23 322.618M467.023 361.309C469.77 364.548 470.91 366.965 471.662 371.145C472.176 373.997 471.203 375.705 471.662 378.567C472.109 381.351 472.136 383.226 473.889 385.434C475.628 387.623 477.445 388.038 480.013 389.145C483.031 390.446 484.893 391.296 488.178 391.186C490.174 391.12 493.189 390.166 493.189 390.166M467.023 361.309C466.226 354.714 463.841 350.966 464.982 344.422C465.155 343.425 465.538 341.892 465.538 341.892M467.023 361.309C467.023 360.512 467.023 359.268 467.023 359.268M501.91 385.434C500.405 386.331 499.551 386.819 498.013 387.66C496.151 388.68 493.189 390.166 493.189 390.166M493.189 390.166L491.89 395.965M490.591 401.764L483.353 405.198M490.591 401.764C490.591 401.764 497.505 404.431 501.91 403.62C506.814 402.716 512.674 396.753 512.674 396.753M490.591 401.764L491.89 395.965M483.353 428.115C464.801 436.014 435.847 448.342 435.847 448.342L393.166 420.135L373 424L370.5 409.372H393.166L435.847 427.744L483.353 405.198M483.353 428.115C485.237 435 488.343 438.608 488.178 445.744C487.978 454.395 483.675 458.503 480.013 466.343C472.405 482.629 455.518 505.313 455.518 505.313L444.012 528.323C444.012 528.323 452.492 536.588 459.043 540.2C463.375 542.588 465.989 543.678 470.734 545.076M483.353 428.115C483.353 419.165 483.353 405.198 483.353 405.198M512.674 396.753L522.138 395.896M512.674 396.753L510.103 390.166M522.138 395.896L574.098 391.186L628.841 422.362L654.264 430.899L628.841 434.424L574.098 409.372L525.664 421.62V430.899M522.138 395.896C522.138 395.896 520.926 408.836 522.138 416.981C522.963 422.527 525.664 430.899 525.664 430.899M525.664 430.899C525.664 430.899 524.004 440.189 525.664 445.744C526.842 449.69 528.512 451.518 530.674 455.023C537.436 465.985 543.316 470.758 552.757 479.518C572.404 497.749 610.841 516.076 610.841 516.076C610.841 516.076 599.559 528.276 590.985 534.447C583.988 539.483 579.729 541.944 571.871 545.489M491.89 395.965C491.89 395.965 498.17 395.963 501.91 394.712C505.38 393.552 510.103 390.166 510.103 390.166M510.103 390.166L509.704 389.145C509.704 389.145 509.445 385.736 509.704 383.578C510.141 379.937 511.591 378.174 512.674 374.67C514.028 370.286 515.828 363.351 515.828 363.351C515.828 363.351 519.017 361.306 520.096 359.268C521.229 357.13 521.352 355.541 521.024 353.144C520.664 350.511 519.899 348.934 518.055 347.02M470.734 545.076C475.3 576.943 482.425 626.676 482.425 626.676M470.734 545.076C480.3 549.066 495.23 555.292 495.23 555.292M482.425 626.676L505.251 621.295M482.425 626.676C482.425 626.676 481.057 635.28 477.972 639.666C474.005 645.305 466.73 643.515 463.312 649.502C461.202 653.195 460.714 660.079 460.714 660.079M505.251 621.295C505.251 621.295 504.206 586.255 498.199 564.881C497.138 561.107 495.23 555.292 495.23 555.292M505.251 621.295L515.086 651.543L506.118 654.615M495.23 555.292C495.23 555.292 497.025 556.084 498.199 556.53C511.407 561.555 521.177 561.555 534.385 556.53M571.871 545.489C565.929 551.734 561.136 554.503 552.757 556.53C545.784 558.217 541.359 558.217 534.385 556.53M571.871 545.489C593.829 542.264 628.099 537.231 628.099 537.231M628.099 537.231V555.292M628.099 537.231L661.502 528.323L662.43 534.447M628.099 555.292L548.489 571.376C548.489 571.376 539.893 562.328 534.385 556.53M628.099 555.292C628.099 555.292 637.054 560.036 641.089 564.881C645.572 570.264 643.248 576.588 648.512 581.211C652.637 584.835 661.502 586.593 661.502 586.593M467.951 667.688L460.714 660.079M467.951 667.688L475.188 665.209M467.951 667.688L464.054 674.183L454.404 665.209L460.714 660.079M475.188 665.209C475.188 665.209 472.267 667.825 471.848 670.1C471.398 672.538 471.927 674.323 473.518 676.224C474.81 677.768 476.001 678.409 477.972 678.822C480.759 679.405 483.076 679.043 485.023 676.966C486.358 675.543 486.695 674.269 486.879 672.327C487.121 669.77 486.757 667.912 485.023 666.017C483.557 664.415 480.013 663.605 480.013 663.605M475.188 665.209L480.013 663.605M480.013 663.605L499.869 656.924M499.869 656.924C499.869 656.924 497.951 659.826 497.828 661.935C497.652 664.947 498.627 667.102 500.983 668.987C503.664 671.132 506.574 671.51 509.704 670.1C512.234 668.961 513.605 667.393 514.344 664.718C515.177 661.703 514.674 659.163 512.488 656.924C510.639 655.031 506.118 654.615 506.118 654.615M499.869 656.924L506.118 654.615M661.502 586.593L668.925 576.386M661.502 586.593L667.148 594.016L678.76 578.984L668.925 576.386M668.925 576.386L667.509 567.665M662.43 534.447C662.43 534.447 664.519 529.808 667.148 528.323C670.465 526.45 673.672 526.306 676.904 528.323C680.176 530.366 681.374 533.379 681.172 537.231C681.008 540.37 680.167 542.589 677.646 544.468C674.897 546.518 672.179 546.57 668.925 545.489C666.39 544.647 663.508 541.313 663.508 541.313M662.43 534.447L663.508 541.313M663.508 541.313L666.621 561.912M666.621 561.912C666.621 561.912 668.831 557.37 671.523 556.159C674.1 555 676.135 555.112 678.76 556.159C681.664 557.317 683.45 558.911 684.327 561.912C685.293 565.219 684.652 568.134 682.1 570.448C679.742 572.587 677.242 572.745 674.121 572.118C671.068 571.506 667.509 567.665 667.509 567.665M666.621 561.912L667.509 567.665M518.055 347.02C518.055 343.469 518.055 341.478 518.055 337.927M518.055 337.927C515.98 338.257 514.749 338.257 512.674 337.927C507.862 337.162 504.319 335.853 501.91 331.618C500.28 328.752 499.684 323.638 499.684 323.638M518.055 337.927C521.357 335.939 523.098 334.495 525.664 331.618C529.059 327.81 529.716 323.704 528.262 318.813C527.016 314.624 524.851 312.389 521.024 310.277C515.821 307.406 510.817 307.08 505.807 310.277C502.349 312.484 499.933 314.718 499.684 318.813C499.576 320.589 499.684 323.638 499.684 323.638M486.23 322.618C489.599 322.219 491.494 321.159 494.859 321.597C497.127 321.892 499.684 323.638 499.684 323.638M486.23 322.618C482.866 322.172 480.768 322.42 477.601 323.638C471.904 325.83 469.264 329.467 467.023 335.144C466.032 337.653 465.538 341.892 465.538 341.892M486.23 322.618C482.86 318.306 482.604 313.794 477.601 311.576C473.294 309.667 469.892 309.779 465.538 311.576C460.654 313.593 458.062 316.566 456.445 321.597C455.248 325.323 455.277 327.883 456.445 331.618C458.046 336.731 465.538 341.892 465.538 341.892M482.054 362.237V371.145C482.054 371.145 482.727 372.949 484.467 372.444C485.374 372.18 486.508 371.145 486.508 371.145M491.89 358.34C491.89 358.34 494.392 356.24 496.343 355.742C498.099 355.294 499.324 355.013 500.983 355.742C502.344 356.341 503.766 358.34 503.766 358.34M477.044 360.196C477.044 360.196 473.883 358.434 471.662 358.34C469.816 358.262 467.023 359.268 467.023 359.268M467.023 359.268C467.023 359.268 466.484 355.047 466.684 351.209M483.353 381.165C483.353 381.165 488.381 380.601 490.591 378.567C491.937 377.329 493.189 374.67 493.189 374.67C493.189 374.67 493.72 377.814 493.189 379.709C492.72 381.379 491.006 383.578 491.006 383.578M490.591 350.709C490.591 350.709 495.662 348.881 498.383 349.209C500.55 349.47 503.766 350.709 503.766 350.709M478.383 350.709C478.383 350.709 473.505 349.984 470.383 350.209C468.929 350.314 466.684 351.209 466.684 351.209" stroke="#02365E" stroke-width="3.5" stroke-linecap="round" stroke-linejoin="round"/>
<circle cx="497.883" cy="358.709" r="2" fill="#02365E"/>
<circle cx="472.883" cy="360.709" r="2" fill="#02365E"/>
<circle cx="503.916" cy="367.709" r="5" fill="#FF0000"/>
<circle cx="470.883" cy="371.049" r="5" fill="#FF0000"/>
<path d="M267.318 457.409C267.318 457.409 262.593 439.301 265.981 428.532C266.661 426.371 268.101 423.131 268.101 423.131C268.101 423.131 265.99 414.996 265.544 409.66C265.028 403.486 266.136 393.805 266.136 393.805L263.591 395.421C263.591 395.421 256.806 406.423 253.406 413.946C251.209 418.809 248.415 426.667 248.415 426.667C248.415 426.667 246.794 419.046 245.448 414.242C243.018 405.568 237.684 392.52 237.684 392.52L235.609 390.122C235.609 390.122 231.485 405.964 227.94 415.817C226.108 420.907 224.999 423.735 222.88 428.712L215.569 458.619C215.569 458.619 226.315 462.249 233.466 463.228C243.622 464.619 250.452 466.878 259.704 462.465C262.926 460.928 267.318 457.409 267.318 457.409Z" fill="#FFD028"/>
<path d="M283.247 596.17C281.083 579.404 282.053 569.796 280.286 552.983C278.817 538.998 277.336 531.236 275.445 517.302L267.318 457.409C267.318 457.409 262.925 460.928 259.704 462.464C250.451 466.877 243.621 464.618 233.465 463.228C226.314 462.249 215.568 458.618 215.568 458.618C215.568 458.618 207.75 488.212 200.971 506.579C198.592 513.025 198.615 517.423 194.544 522.958C189.834 529.363 185.663 532.432 178.147 535.024C171.744 539.736 168.33 542.627 161.75 547.089C140.663 561.389 103.653 576.774 103.653 576.774L113.866 587.643L153.583 629.911L163.512 640.478C163.512 640.478 185.286 612.055 197.541 592.702C206.009 579.33 212.832 572.656 217.923 557.669C219.436 553.215 221.119 546.054 221.119 546.054C221.119 546.054 222.344 541.632 223.117 538.795C228.523 518.964 231.026 507.706 236.094 487.786L243.15 487.739C245.149 496.455 246.461 501.299 248.268 510.057C250.264 519.732 251.016 525.228 252.777 534.95C250.028 546.357 249.156 552.935 245.739 564.16C238.493 587.963 219.704 622.311 219.704 622.311L233.643 625.733L284.815 638.295L293.619 640.456C293.619 640.456 290.906 634.769 289.49 630.994C284.638 618.057 285.016 609.873 283.247 596.17Z" fill="#54CD63"/>
<path d="M252.698 295.836L229.945 313.852L207.082 357.162L213.407 364.47L230.904 384.687L235.608 390.122L237.684 392.52L239.759 394.918L242.092 379.747C242.092 379.747 240.208 373.862 239.699 369.96C239.023 364.777 238.899 361.702 239.924 356.576C240.927 351.559 242.215 348.847 244.71 344.379C247.731 338.968 249.762 335.841 254.604 331.974C258.855 328.579 261.536 325.354 266.972 325.566C268.426 325.623 270.643 326.202 270.643 326.202C270.643 326.202 272.939 326.363 274.314 326.839C278.089 328.143 279.299 330.774 281.523 334.091C283.884 337.612 284.669 340.013 285.621 344.144C286.797 349.251 285.987 357.559 285.987 357.559L281.68 368.537L278.124 377.598C278.124 377.598 276.504 379.598 275.295 380.71C271.523 384.179 268.59 385.637 263.549 386.558C262.407 386.767 260.597 386.908 260.597 386.908L261.046 397.037L263.591 395.421L266.135 393.805L278.853 385.726L308.988 366.585L284.831 313.873C284.831 313.873 278.129 310.191 274.082 307.444C268.898 303.924 261.503 297.481 261.503 297.481C261.503 297.481 263.185 296.041 265.043 296.658C269.424 298.114 277.151 302.647 283.135 304.36C288.156 305.798 296.053 307.821 296.053 307.821L327.287 363.51C327.287 363.51 327.982 369.903 326.239 373.354C324.935 375.935 321.27 378.844 321.27 378.844L286.034 406.842L275.361 415.322L269.263 420.168L268.1 423.13C268.1 423.13 265.99 414.996 265.544 409.66C265.028 403.485 266.135 393.805 266.135 393.805L263.591 395.421C263.591 395.421 256.806 406.423 253.406 413.946C251.208 418.809 248.415 426.666 248.415 426.666C248.415 426.666 246.794 419.045 245.448 414.242C243.017 405.567 237.684 392.52 237.684 392.52L235.608 390.122C235.608 390.122 231.484 405.963 227.939 415.817C226.108 420.907 224.998 423.734 222.879 428.711L222.537 413.697L216.255 404.597L199.206 384.502L190.682 374.454C190.682 374.454 187.037 368.558 187.001 364.363C186.96 359.685 191.377 353.211 191.377 353.211L222.189 307.994C222.189 307.994 227.56 305.776 230.924 304.183C237.538 301.049 241.838 297.249 247.341 295.141C250.147 294.066 252.698 295.836 252.698 295.836Z" fill="#F5D8BD"/>
<path d="M242.092 379.748L239.759 394.918L237.684 392.52L235.608 390.123L230.904 384.687L213.407 364.47C213.407 364.47 215.07 351.367 218.253 343.65C221.483 335.816 223.19 330.638 229.707 325.221C235.311 320.562 239.509 318.389 246.759 317.635C250.87 317.208 257.314 318.407 257.314 318.407C257.314 318.407 264.846 318.079 269.433 319.294C276.462 321.154 280.786 323.295 285.347 328.956C289.306 333.87 290.269 337.747 291.321 343.968C292.507 350.99 291.761 355.253 290.015 362.156C288.76 367.117 285.229 374.354 285.229 374.354L285.987 357.56L281.68 368.538L278.124 377.599L278.308 384.306L278.853 385.727L266.135 393.805L263.591 395.421L261.046 397.038L260.597 386.908C260.597 386.908 262.407 386.767 263.549 386.558C268.59 385.637 271.523 384.18 275.295 380.711C276.504 379.599 278.124 377.599 278.124 377.599L281.68 368.538L285.987 357.56C285.987 357.56 286.797 349.252 285.621 344.145C284.669 340.013 283.884 337.613 281.523 334.091C279.299 330.775 278.089 328.143 274.314 326.839C272.939 326.364 270.643 326.203 270.643 326.203C270.643 326.203 268.426 325.623 266.972 325.567C261.536 325.355 258.855 328.58 254.604 331.974C249.762 335.841 247.731 338.969 244.71 344.379C242.215 348.847 240.927 351.559 239.924 356.577C238.899 361.703 239.023 364.777 239.699 369.961C240.208 373.862 242.092 379.748 242.092 379.748Z" fill="#2B99D6"/>
<path d="M267.318 457.409C267.318 457.409 262.592 439.301 265.981 428.533C266.661 426.371 268.1 423.131 268.1 423.131L269.263 420.169L275.361 415.323L286.034 406.842C286.034 406.842 288.83 409.828 290.135 412.071C292.253 415.713 292.835 418.191 293.331 422.374C293.862 426.852 293.678 429.551 292.434 433.885C290.622 440.196 286.317 442.167 283.28 447.989C279.866 454.535 277.572 458.303 276.375 465.588C275.711 469.625 275.722 471.966 275.887 476.054C276.221 484.319 279.915 488.486 280.438 496.741C280.79 502.301 282.11 505.895 279.871 510.996C278.662 513.752 277.625 515.229 275.445 517.303L267.318 457.409C267.318 457.409 262.925 460.929 259.704 462.465C250.451 466.878 243.622 464.619 233.465 463.229C226.314 462.25 215.568 458.619 215.568 458.619C215.568 458.619 207.75 488.213 200.972 506.58C198.592 513.026 198.616 517.424 194.544 522.959C189.834 529.364 185.663 532.433 178.148 535.025C175.347 534.449 173.789 533.972 171.147 532.881C163.601 529.764 158.339 527.292 154.69 519.989C151.103 512.811 151.653 507.091 154.103 499.449C156.99 490.445 165.255 489.346 169.937 481.131C173.412 475.034 175.743 471.379 176.501 464.403C177.197 457.994 175.834 454.301 174.273 448.046C172.244 439.919 166.952 436.522 166.182 428.181C165.594 421.808 165.878 417.844 168.335 411.934C170.173 407.512 171.738 405.1 175.15 401.739C179.592 397.365 184.068 397.647 189.072 393.931C193.412 390.708 199.207 384.502 199.207 384.502L216.255 404.597L222.537 413.698L222.879 428.712L215.568 458.619C215.568 458.619 226.314 462.25 233.465 463.229C243.622 464.619 250.451 466.878 259.704 462.465C262.925 460.929 267.318 457.409 267.318 457.409Z" fill="#2B99D6"/>
<path d="M248.268 510.057C250.264 519.733 251.016 525.229 252.777 534.951C249.645 537.59 247.693 538.895 244.056 540.778C235.894 545.005 221.119 546.055 221.119 546.055C221.119 546.055 222.344 541.632 223.117 538.796C228.523 518.964 231.027 507.707 236.095 487.787L243.151 487.74C245.149 496.456 246.462 501.3 248.268 510.057Z" fill="#2B99D6"/>
<path d="M104.004 598.428L113.866 587.643L153.583 629.911C153.583 629.911 156.273 636.647 155.66 641.017C155.212 644.202 154.61 646.132 152.651 648.684C149.989 652.152 142.99 654.344 142.99 654.344L104.392 604.612L104.004 598.428Z" fill="white"/>
<path d="M227.135 642.319L233.643 625.733L284.815 638.295C284.815 638.295 288.693 642.083 290.174 645.137C291.854 648.603 292.813 650.981 292.218 654.787C291.685 658.2 288.134 662.635 288.134 662.635C288.134 662.635 277.853 659.814 271.313 657.844C259.817 654.381 253.378 652.373 242.12 648.199C236.226 646.013 227.135 642.319 227.135 642.319Z" fill="white"/>
<path d="M215.461 458.377L221.174 460.216C221.174 460.216 216.459 479.692 213.459 492.177C210.993 502.439 210.523 508.455 207.166 518.462C205.26 524.145 204.748 527.675 201.56 532.75C198.021 538.383 194.548 540.421 189.718 544.994C178.047 556.045 170.134 560.697 156.999 569.959C143.864 579.221 145.341 582.643 144.427 592.775C142.841 610.348 163.58 640.305 163.58 640.305L119.825 593.979L103.826 576.844L123.927 567.639L142.428 558.41L162.477 546.773L177.835 535.305L184.386 532.446L191.751 526.489L197.124 518.945L199.771 509.125L204.078 498.147L215.461 458.377Z" fill="#1D922C"/>
<path d="M243.081 487.915L250.442 486.58C250.442 486.58 260.474 514.564 259.75 533.063C259.422 541.461 258.315 546.123 256.623 554.356C254.67 563.861 253.084 569.102 250.037 578.315C244.917 593.799 243.466 603.41 251.533 615.498C260.379 628.753 293.687 640.283 293.687 640.283L219.529 622.244L230.857 600.548L239.492 581.617L247.236 559.319L252.496 534.64L243.081 487.915Z" fill="#1D922C"/>
<path d="M235.557 390.252L238.358 393.362L238.38 402.017C238.38 402.017 237.748 410.963 236.32 416.491C234.767 422.507 232.209 425.326 230.508 431.302C228.441 438.57 223.866 443.746 227.436 450.406C229.232 453.756 231.173 455.218 234.433 457.173C239.968 460.492 244.332 459.492 250.786 459.568C257.36 459.645 267.492 457.476 267.492 457.476L263.927 459.898L256.238 464.12L248.598 465.144L230.994 462.861L215.499 458.792L223.016 428.362L228.075 415.468L232.568 400.943L235.557 390.252Z" fill="#E8B500"/>
<path d="M244.923 382.266C243.626 381.01 242.152 378.564 242.152 378.564C242.152 378.564 242.711 383.168 244.215 385.607C245.399 387.528 246.294 388.613 248.205 389.787C250.385 391.126 252.321 391.865 254.827 392.385C257.09 392.855 257.978 392.347 260.246 391.898C261.467 391.655 260.766 386.472 260.766 386.472C260.766 386.472 258.889 386.325 257.22 386.286C254.348 386.22 252.597 386.458 249.914 385.431C247.759 384.605 246.581 383.871 244.923 382.266Z" fill="#E7B98F"/>
<path d="M228.888 412.369L196.357 379.898L222.579 413.513L223.145 427.006L228.888 412.369Z" fill="#E7B98F"/>
<path d="M268.278 422.597L266.209 414.546L310.42 387.456L269.236 420.158L268.278 422.597Z" fill="#E7B98F"/>
<path d="M142.747 654.449L101.621 600.911L113.525 587.485L118.144 592.113C118.144 592.113 111.663 595.095 112.043 599.974C112.478 605.563 114.308 608.465 116.547 613.605C120.244 622.089 124.198 625.856 129.193 633.648C134.425 641.811 142.747 654.449 142.747 654.449Z" fill="#D9D9D9"/>
<path d="M257.485 653.625L227.24 642.562L233.281 625.628L238.714 627.157C238.714 627.157 235.079 632.186 237.031 635.545C239.249 639.361 241.173 641.155 244.595 643.942C249.321 647.792 252.991 648.424 258.51 651.011C269.762 656.286 288.133 662.635 288.133 662.635L257.485 653.625Z" fill="#D9D9D9"/>
<path d="M239.144 322.691C245.288 318.939 257.087 318.471 257.087 318.471L245.333 317.679L237.214 319.922L229.395 325.501L223.151 332.702L217.493 344.558L213.382 364.259L223.398 375.63C223.398 375.63 221.448 364.863 221.892 357.947C222.406 349.92 223.604 345.469 226.73 337.928C229.67 330.838 232.593 326.69 239.144 322.691Z" fill="#006EAD"/>
<path d="M192.842 390.986L198.918 384.724L209.744 397.618C209.744 397.618 200.533 401.751 195.511 405.707C190.328 409.789 186.196 411.86 184.017 418.088C181.815 424.383 183.63 428.676 185.381 435.111C186.372 438.755 187.72 440.532 188.881 444.126C190.727 449.836 191.856 453.131 192.247 459.12C192.64 465.122 192.727 468.743 190.854 474.458C188.518 481.586 184.887 484.613 180.008 490.311C176.156 494.81 172.354 495.937 169.199 500.949C166.628 505.032 164.87 507.628 164.686 512.449C164.528 516.585 165.569 518.958 167.291 522.721C169.972 528.579 178.079 535.199 178.079 535.199L168.29 531.961L159.148 526.564L153.177 517.183L152.314 507.595L155.607 495.616L162.623 489.521L169.564 482.593L174.75 472.965L176.402 465.168L176.093 455.194L173.419 445.096L168.32 436.058L165.865 427.453L166.184 417.927L169.671 409.04L176.531 400.27L186.13 395.792L192.842 390.986Z" fill="#006EAD"/>
<path d="M264.236 452.38C264.236 452.38 263.272 446.474 263.025 442.655C262.721 437.967 263.042 435.123 263.779 430.484C264.275 427.359 266.265 422.612 266.265 422.612C266.265 422.612 265.105 418.796 264.731 416.782C263.765 411.571 264.91 396.342 264.91 396.342L256.901 410.09" stroke="#FFEBA5" stroke-width="3.5" stroke-linecap="round" stroke-linejoin="round"/>
<path d="M270.436 322.301C270.436 322.301 277.027 324.546 280.307 327.381C284.268 330.804 285.771 333.739 287.542 338.665C288.929 342.523 289.08 344.919 289.313 349.012C289.675 355.349 287.403 365.153 287.403 365.153M285.604 408.685C285.604 408.685 289.2 413.606 290.349 416.579C291.66 419.97 292.06 425.359 291.716 428.979C291.329 433.054 290.174 434.63 288.578 438.002C286.136 443.163 282.977 445.001 280.245 450.015C277.796 454.51 276.562 456.964 275.11 462.076C273.878 466.413 274.281 473.413 274.281 473.413M277.182 386.076L276.726 380.066" stroke="#A9DEFE" stroke-width="3.5" stroke-linecap="round" stroke-linejoin="round"/>
<path d="M233.811 487.896C233.811 487.896 231.489 498.736 229.861 505.649C226.943 518.05 225.179 524.978 221.692 537.231C219.163 546.117 218.238 552.701 214.515 561.158C209.773 571.931 205.674 577.926 199.082 587.677C188.138 603.867 170.191 629.023 170.191 629.023M256.296 465.953C260.163 465.011 265.69 461.998 265.69 461.998C265.69 461.998 271.106 507.795 275.464 537.016C276.75 545.634 277.915 550.406 278.877 559.066C280.659 575.112 279.449 586.101 281.489 602.117C282.743 611.955 282.525 615.777 285.144 624.061C286.735 629.089 290.302 636.541 290.302 636.541" stroke="#9BE8A5" stroke-width="3.5" stroke-linecap="round" stroke-linejoin="round"/>
<path d="M245.182 298.517L223.216 309.402L192.478 355.453M209.842 363.473L233.311 390.779L231.559 399.341M286.358 306.832L294.89 309.174L324.685 362.891C324.685 362.891 325.502 366.694 325.073 369.076C324.724 371.018 323.227 373.78 323.227 373.78M306.899 369.786L269.208 394.609" stroke="#FFF1E4" stroke-width="3.5" stroke-linecap="round" stroke-linejoin="round"/>
<path d="M204.092 362.826L207.082 357.162M207.082 357.162L229.945 313.852L252.698 295.836C252.698 295.836 250.147 294.066 247.341 295.141C241.838 297.249 237.538 301.049 230.924 304.183C227.56 305.776 222.189 307.994 222.189 307.994L191.377 353.211C191.377 353.211 186.96 359.685 187.001 364.363C187.037 368.558 190.682 374.454 190.682 374.454L199.206 384.502M207.082 357.162L213.407 364.47M285.987 357.559C285.987 357.559 286.797 349.251 285.621 344.144C284.669 340.013 283.884 337.612 281.523 334.091C279.299 330.774 278.089 328.143 274.314 326.839C272.939 326.363 270.643 326.202 270.643 326.202M285.987 357.559C285.987 357.559 283.362 364.25 281.68 368.537C280.291 372.076 278.124 377.598 278.124 377.598M285.987 357.559L285.229 374.353C285.229 374.353 288.76 367.117 290.015 362.156C291.761 355.252 292.507 350.989 291.321 343.968C290.269 337.746 289.306 333.869 285.347 328.956C280.786 323.294 276.462 321.154 269.433 319.293C264.846 318.079 257.314 318.407 257.314 318.407M256.114 387.059L260.597 386.908M260.597 386.908C260.597 386.908 262.407 386.767 263.549 386.558C268.59 385.637 271.523 384.179 275.295 380.71C276.504 379.598 278.124 377.598 278.124 377.598M260.597 386.908L261.046 397.037L263.591 395.421M308.988 366.585L311.274 370.497M308.988 366.585L284.831 313.873C284.831 313.873 278.129 310.191 274.082 307.444C268.898 303.924 261.503 297.481 261.503 297.481C261.503 297.481 263.185 296.041 265.043 296.658C269.424 298.114 277.151 302.647 283.135 304.36C288.156 305.798 296.053 307.821 296.053 307.821L327.287 363.51C327.287 363.51 327.982 369.903 326.239 373.354C324.935 375.935 321.27 378.844 321.27 378.844L286.034 406.842M308.988 366.585L278.853 385.726M267.318 457.409C267.318 457.409 262.592 439.301 265.981 428.532C266.661 426.37 268.1 423.13 268.1 423.13M267.318 457.409C267.318 457.409 262.925 460.928 259.704 462.465C250.451 466.877 243.622 464.619 233.465 463.228C226.314 462.249 215.568 458.618 215.568 458.618M267.318 457.409C267.318 457.409 272.271 493.912 275.445 517.302M252.777 534.95C250.029 546.357 249.156 552.935 245.739 564.16C238.494 587.963 219.704 622.311 219.704 622.311L233.643 625.733M252.777 534.95C251.016 525.229 250.264 519.733 248.268 510.057C246.461 501.3 245.149 496.455 243.151 487.74M252.777 534.95C249.645 537.59 247.693 538.894 244.056 540.778C235.894 545.004 221.119 546.054 221.119 546.054M243.151 487.74C245.93 487.26 250.268 486.511 250.268 486.511M243.151 487.74C240.395 487.758 238.85 487.768 236.095 487.786M236.095 487.786C233.577 486.798 229.647 485.256 229.647 485.256M236.095 487.786C231.027 507.706 228.523 518.964 223.117 538.795C222.344 541.632 221.119 546.054 221.119 546.054M215.568 458.618C215.568 458.618 207.75 488.212 200.972 506.579C198.592 513.026 198.616 517.423 194.544 522.959C189.834 529.363 185.663 532.432 178.147 535.024M215.568 458.618C215.568 458.618 220.024 440.391 222.879 428.711M222.879 428.711C224.998 423.734 226.108 420.907 227.939 415.817C231.484 405.963 235.608 390.122 235.608 390.122M222.879 428.711C222.746 422.848 222.537 413.697 222.537 413.697M235.608 390.122L237.684 392.52M235.608 390.122L230.904 384.687M222.537 413.697L216.255 404.597L199.206 384.502M222.537 413.697L224.481 418.481M213.407 364.47C213.407 364.47 215.07 351.367 218.253 343.649C221.483 335.815 223.19 330.637 229.707 325.22C235.311 320.561 239.509 318.388 246.759 317.635C250.87 317.207 257.314 318.407 257.314 318.407M213.407 364.47L230.904 384.687M199.206 384.502C199.206 384.502 193.412 390.708 189.072 393.93C184.068 397.647 179.592 397.365 175.15 401.739C171.738 405.099 170.173 407.512 168.335 411.934C165.877 417.844 165.594 421.808 166.182 428.181C166.952 436.522 172.244 439.918 174.273 448.045C175.834 454.3 177.197 457.993 176.501 464.402C175.743 471.379 173.412 475.034 169.937 481.13C165.255 489.346 156.99 490.445 154.103 499.449C151.653 507.09 151.103 512.81 154.69 519.988C158.339 527.291 163.601 529.764 171.147 532.88C173.789 533.972 175.347 534.449 178.147 535.024M178.147 535.024C171.744 539.736 168.33 542.627 161.751 547.09C140.664 561.39 103.653 576.775 103.653 576.775L113.866 587.643M221.119 546.054C221.119 546.054 219.436 553.215 217.923 557.669C212.832 572.657 206.009 579.33 197.541 592.703C185.286 612.055 163.512 640.478 163.512 640.478L153.583 629.911M275.445 517.302C277.336 531.237 278.817 538.998 280.287 552.983C282.054 569.796 281.083 579.405 283.247 596.171C285.016 609.873 284.638 618.058 289.49 630.994C290.906 634.769 293.619 640.456 293.619 640.456L284.815 638.295M275.445 517.302C277.625 515.229 278.662 513.751 279.871 510.996C282.11 505.894 280.79 502.301 280.438 496.741C279.915 488.485 276.221 484.319 275.887 476.053C275.722 471.965 275.711 469.625 276.375 465.587C277.572 458.302 279.866 454.534 283.28 447.988C286.317 442.166 290.622 440.196 292.434 433.885C293.678 429.551 293.862 426.851 293.331 422.373C292.835 418.19 292.253 415.712 290.135 412.071C288.83 409.827 286.034 406.842 286.034 406.842M286.034 406.842L275.361 415.322M278.124 377.598L278.308 384.306L278.853 385.726M278.853 385.726L266.135 393.805M266.135 393.805C266.135 393.805 265.028 403.485 265.544 409.66C265.99 414.996 268.1 423.13 268.1 423.13M266.135 393.805L263.591 395.421M268.1 423.13L269.263 420.168L275.361 415.322M263.591 395.421C263.591 395.421 256.806 406.423 253.406 413.946C251.208 418.809 248.415 426.666 248.415 426.666C248.415 426.666 246.794 419.045 245.448 414.242C243.017 405.567 237.684 392.52 237.684 392.52M237.684 392.52L239.759 394.918L242.092 379.747C242.092 379.747 240.208 373.862 239.699 369.96C239.023 364.777 238.899 361.702 239.924 356.576C240.927 351.559 242.215 348.847 244.71 344.379C247.731 338.968 249.762 335.841 254.604 331.974C258.855 328.579 261.536 325.354 266.972 325.566C268.426 325.623 270.643 326.202 270.643 326.202M270.643 326.202L266.012 322.374L257.314 318.407M113.866 587.643L104.004 598.428L101.622 600.912L104.393 604.613L142.991 654.344C142.991 654.344 149.989 652.152 152.652 648.684C154.61 646.132 155.213 644.202 155.66 641.017C156.273 636.647 153.583 629.911 153.583 629.911M113.866 587.643L153.583 629.911M233.643 625.733L227.135 642.319C227.135 642.319 236.226 646.014 242.121 648.199C253.378 652.374 259.817 654.382 271.313 657.844C277.853 659.814 288.134 662.635 288.134 662.635C288.134 662.635 291.685 658.2 292.219 654.787C292.814 650.981 291.854 648.604 290.174 645.137C288.694 642.083 284.815 638.295 284.815 638.295M233.643 625.733L284.815 638.295M261.744 323.515C261.744 323.515 252.527 325.705 247.983 329.376C244.077 332.53 242.512 335.142 240.159 339.577C237.235 345.091 236.545 348.746 235.742 354.935C235.108 359.823 235.616 367.554 235.616 367.554M258.433 322.216C258.433 322.216 252.863 322.801 249.405 323.7C244.202 325.054 241.007 325.767 236.683 328.963C232.24 332.248 230.259 335.013 227.753 339.937C225.317 344.721 224.765 347.87 224.155 353.204C223.682 357.344 224.191 363.875 224.191 363.875M231.783 366.05C231.783 366.05 232.447 370.358 232.42 373.137C232.393 375.938 232.032 377.495 231.633 380.268C231.384 381.999 230.904 384.687 230.904 384.687M203.303 396.096C203.303 396.096 200.829 399.94 199.069 402.277C196.314 405.933 193.519 407.077 191.375 411.122C189.061 415.488 188.56 418.474 188.362 423.412C188.13 429.227 190.659 432.24 191.274 438.027C191.738 442.389 191.858 444.868 191.696 449.251C191.542 453.416 190.549 459.861 190.549 459.861M208.452 417.822C208.452 417.822 205.706 423.169 204.896 426.883C203.717 432.295 205.153 435.525 205.163 441.064C205.177 448.464 206.324 452.775 204.767 460.01C203.444 466.156 202.36 469.756 198.887 474.996C195.433 480.205 191.681 481.591 187.455 486.194C184.578 489.328 182.382 490.724 180.383 494.479C179.319 496.48 178.264 499.881 178.264 499.881M275.361 415.322C275.361 415.322 276.853 417.946 277.463 419.766C278.658 423.331 278.798 425.625 278.326 429.355C277.784 433.633 276.25 435.793 274.292 439.635C272.502 443.148 268.926 448.187 268.926 448.187" stroke="#02365E" stroke-width="3.5" stroke-linecap="round" stroke-linejoin="round"/>
<path d="M259.5 341.535C261.614 342.225 262.923 342.783 264.386 344.458C265.814 346.093 266.592 347.382 266.609 349.553C266.615 350.306 266.361 351.466 266.361 351.466L271.321 352.407C271.321 352.407 271.864 349.322 273.098 347.876C274.677 346.029 276.326 345.472 278.747 345.267C280.461 345.122 281.485 345.367 283.097 345.968C284.843 346.62 285.896 347.136 287.111 348.549C288.631 350.317 289.151 351.836 289.129 354.167C289.111 356.062 288.571 357.123 287.715 358.805L287.7 358.834L287.689 358.856C286.907 360.392 286.424 361.341 285.082 362.431C283.838 363.443 282.944 363.87 281.374 364.194C278.488 364.789 276.303 364.244 274.062 362.33C272.248 360.78 271.591 359.306 271.142 356.962C270.807 355.213 271.321 352.407 271.321 352.407L266.361 351.466C266.361 351.466 266.294 352.648 266.113 353.38C265.451 356.051 264.169 357.617 261.735 358.901C259.479 360.09 257.705 360.219 255.239 359.569C252.598 358.873 251.082 357.691 249.65 355.365C248.321 353.207 248.84 351.493 248.322 349.013C248.266 346.601 248.897 344.992 250.578 343.262C252.021 341.778 253.269 341.15 255.325 340.902C256.959 340.706 257.929 341.022 259.492 341.532L259.5 341.535Z" fill="#02365E"/>
<path d="M248.322 349.013C248.84 351.493 248.321 353.207 249.65 355.365C251.082 357.691 252.598 358.873 255.239 359.569C257.705 360.219 259.479 360.09 261.735 358.901C264.169 357.617 265.451 356.051 266.113 353.38C266.294 352.648 266.361 351.466 266.361 351.466M248.322 349.013C248.266 346.601 248.897 344.992 250.578 343.262C252.021 341.778 253.269 341.15 255.325 340.902C256.962 340.705 257.932 341.023 259.5 341.535C261.614 342.225 262.923 342.783 264.386 344.458C265.814 346.093 266.592 347.382 266.609 349.553C266.615 350.306 266.361 351.466 266.361 351.466M248.322 349.013C246.348 348.238 243.269 347.03 243.269 347.03M266.361 351.466L271.321 352.407M271.321 352.407C271.321 352.407 271.864 349.322 273.098 347.876C274.677 346.029 276.326 345.472 278.747 345.267C280.461 345.122 281.485 345.367 283.097 345.968C284.843 346.62 285.896 347.136 287.111 348.549C288.631 350.317 289.151 351.836 289.129 354.167C289.111 356.073 288.565 357.135 287.7 358.834C286.912 360.382 286.43 361.336 285.082 362.431C283.838 363.443 282.944 363.87 281.374 364.194C278.488 364.789 276.303 364.244 274.062 362.33C272.248 360.78 271.591 359.306 271.142 356.962C270.807 355.213 271.321 352.407 271.321 352.407ZM268.561 360.976C268.561 360.976 269.489 362.23 269.514 363.16C269.553 364.578 267.518 366.197 267.518 366.197M269.455 369.973C269.455 369.973 268.436 370.679 267.688 370.888C266.773 371.144 266.198 371.06 265.255 370.939C264.093 370.79 263.504 370.41 262.399 370.019C261.089 369.556 260.359 369.28 259.088 368.72C258.149 368.307 257.658 367.999 256.717 367.589C255.712 367.151 254.103 366.563 254.103 366.563C254.103 366.563 253.803 367.595 253.836 368.268C253.901 369.56 254.508 370.212 255.281 371.248C255.809 371.956 256.164 372.323 256.856 372.872C257.553 373.424 258.009 373.655 258.81 374.041C259.469 374.357 260.553 374.724 260.553 374.724" stroke="#02365E" stroke-width="3.5" stroke-linecap="round" stroke-linejoin="round"/>
<path d="M269.453 369.974C269.453 369.974 268.435 370.68 267.686 370.889C266.771 371.145 266.196 371.061 265.253 370.94C264.091 370.791 263.502 370.411 262.397 370.02C261.088 369.557 260.357 369.281 259.086 368.721C258.147 368.308 257.656 367.999 256.715 367.59C255.71 367.152 254.101 366.564 254.101 366.564C254.101 366.564 253.801 367.596 253.835 368.269C253.899 369.561 254.506 370.212 255.279 371.249C255.808 371.957 256.162 372.324 256.854 372.872C257.551 373.425 258.007 373.656 258.808 374.041C259.467 374.358 260.551 374.725 260.551 374.725" stroke="#F2463A" stroke-width="3.5" stroke-linecap="round" stroke-linejoin="round"/>
<circle cx="271.236" cy="666.5" r="9.5" fill="#02365E"/>
<circle cx="237.236" cy="656.5" r="9.5" fill="#02365E"/>
<circle cx="127.236" cy="650.5" r="9.5" fill="#02365E"/>
<circle cx="104.236" cy="621.5" r="9.5" fill="#02365E"/>
<circle cx="271.236" cy="666.5" r="3.5" fill="#FFD028"/>
<circle cx="237.236" cy="656.5" r="3.5" fill="#FFD028"/>
<circle cx="127.236" cy="650.5" r="3.5" fill="#FFD028"/>
<circle cx="104.236" cy="621.5" r="3.5" fill="#FFD028"/>
</svg>
