<svg xmlns="http://www.w3.org/2000/svg" xmlns:xlink="http://www.w3.org/1999/xlink" width="702" height="1001" fill="none">
  <defs>
    <path id="b" fill="#fff" d="m482.4 626.7 22.9-5.4 9.8 30.2-9 3.1s4.2.3 5.3 1.5c1.2 1.1 3.7 4.2 3.7 5.8 0 2.2-3.3 7.4-5.2 8.4-2 1-7.7-.3-9.5-1.5-1.5-1-2.4-6.1-2.6-8-.1-1.6 4.1-4.7 4.1-4.7l-24 8.2s4.2-.4 5.6 1c1.6 1.3 3.6 3.3 3.2 5.4-.4 2-.5 6.3-2.4 7.2-2 1-7.3 1-9.1-.4-1.6-1.3-3.7-4.8-3.5-6.8 0-1.8 3.5-5.5 3.5-5.5l-7.2 2.5-4 6.5-9.6-9 6.3-5.1s.5-6.9 2.6-10.6c3.4-6 10.7-4.2 14.7-9.8 3-4.4 4.4-13 4.4-13Zm145.7-71.4v-18l33.4-9 1 6.1s2-4.6 4.6-6c3.4-2 6.6-2.1 9.8 0 3.3 2 4.5 5 4.3 8.8-.2 3.2-1 5.4-3.6 7.3-2.7 2-5.4 2-8.7 1-2.5-.9-5.4-4.2-5.4-4.2l3.1 20.6s2.2-4.5 5-5.7c2.5-1.2 4.5-1 7.2 0 2.9 1.1 4.7 2.7 5.5 5.7 1 3.3.4 6.2-2.2 8.5-2.4 2.2-4.9 2.3-8 1.7-3-.6-6.6-4.4-6.6-4.4l1.4 8.7 9.9 2.6-11.7 15-5.6-7.4s-8.9-1.8-13-5.4c-5.3-4.6-3-11-7.4-16.3-4-4.9-13-9.6-13-9.6Z"/>
    <path id="c" fill="#FFD028" d="M483.4 331.6c-4 .7-6.4 1.2-9.5 3.5-4.6 3.6-5.7 7.5-6.9 13.2-.8 4.2 0 11 0 11v2c-.8-6.6-3.2-10.3-2-16.9l.5-2.5s-7.5-5.2-9-10.3a14.6 14.6 0 0 1 0-10c1.6-5 4.2-8 9-10 4.4-1.8 7.8-2 12.1 0 5 2.2 5.3 6.7 8.6 11 3.4-.4 5.3-1.4 8.7-1 2.2.3 4.8 2 4.8 2v-4.8c.2-4 2.6-6.3 6.1-8.5 5-3.2 10-2.9 15.2 0 3.8 2 6 4.3 7.3 8.5 1.4 4.9.8 9-2.6 12.8a28.4 28.4 0 0 1-7.6 6.3v9.1a5.6 5.6 0 0 0-5.4 1.3c-1.5 1.4-2 4.8-2 4.8s-2.1-7.3-4.9-11.3c-3.7-5.1-6.5-8.6-12.6-10.2-3.7-1-6-.7-9.8 0Z"/>
    <path id="d" fill="#A9DEFE" d="M488.2 445.7c.1-7-3-10.7-4.8-17.6v-22.9l7.2-3.4 1.3-5.8s6.3 0 10-1.3c3.5-1.1 8.2-4.5 8.2-4.5l2.6 6.6 9.4-.9s-1.2 13 0 21c.9 5.6 3.6 14 3.6 14s-1.7 9.3 0 14.8c1.1 4 2.8 5.8 5 9.3 6.7 11 12.6 15.8 22 24.5 19.7 18.2 58.1 36.6 58.1 36.6s-11.2 12.2-19.8 18.3c-7 5-11.3 7.5-19.1 11-6 6.3-10.8 9.1-19.1 11.1a34 34 0 0 1-18.4 0 45.3 45.3 0 0 1-39.2-1.2L470.7 545a50 50 0 0 1-11.7-4.9c-6.5-3.6-15-11.9-15-11.9l11.5-23s16.9-22.7 24.5-39c3.7-7.8 8-12 8.2-20.6Z"/>
  </defs>
  <path fill="#FFD028" fill-rule="evenodd" d="M590 0c0 32-18 58-40 58 22 0 40 26 40 58 0-32 18-58 40-58-22 0-40-26-40-58Z" clip-rule="evenodd"/>
  <path fill="#54CD63" fill-rule="evenodd" d="M651 148c0 32-18 58-40 58 22 0 40 26 40 58 0-32 18-58 40-58-22 0-40-26-40-58Z" clip-rule="evenodd"/>
  <path fill="#BE8973" d="M3.1 695.3V679h696.1v319l-73.6-35.4-11.2-12.1H600l-80-58.1-40.8-41.1L452 854l-18.4-5.7-55.2-42.5h-20l-15.2 14.9-56-41.8-66.4-14.3-23.2-5-39.2-8.4h-72L3 695.3Z"/>
  <path stroke="#02365E" stroke-linejoin="round" stroke-width="5" d="M59.1 679h-56v16.3l83.2 56h72l39.3 8.4M59 679l-4 19.8 23.2 13.5 23.2 20.6h23.2l72.9 26.8M59 679h89.7m48.8 80.7 23.2 5m-72-85.7L135 716.6l85.7 48.1m-72-85.7h108.8m-36.8 85.7 66.4 14.3 56 41.8 15.2-15h20l55.2 42.6 18.4 5.7 27.2-2.8 40.8 41 80 58.2h14.4l11.2 12 73.6 35.5v-53.9M257.6 679l-12.8 66.6h42.4M257.6 679H328m-40.8 66.6 36.8 14.1 22.4 17.1 40-7.8m-99.2-23.4-4.8-12.7L328 679m58.4 90 47.2-90m-47.2 90 37.6 58.2 34.4 12 8-14.9h20.8M433.6 679H452m-18.4 0H328m159.2 145.3 76 71 51.2 18.3 84.8 30.5m-212-119.8-4-9m216 128.8v-95.7M452 679h247.2v169.4M452 679l6.4 80.7 24.8 55.6m0 0 18.4-13.7 55.2 7.1 19.2 15.6 7.2-22.7 26.4 7.1 12-11.3 23.2 18 16-6.7 38.4 39.7"/>
  <path fill="#90685A" d="m343.7 820.8-56-41.8-66.3-14.3-23.2-5-72.7-26.8h-23.2l-23.1-20.6L56 698.8l4-19.8h89.5l-13.6 37.6 85.5 48.1 66.3 14.3 56 41.8 15.2-15h20l55 42.6 18.5 5.7 27.1-2.8 40.8 41 80 58.2h14.3l11.2 12 73.5 35.5v-53.9l-84.7-30.5-51.2-18.4-75.9-70.9h-20.7l-8 15-34.4-12.1-37.6-58.2-40 7.8-22.3-17-36.8-14.2h-42.3l12.8-66.6h441.1v319l-73.5-35.4-11.2-12.1h-14.4l-80-58.1-40.7-41.1-27.1 2.8-18.4-5.7-55.2-42.5h-20l-15.1 14.9Z"/>
  <path stroke="#02365E" stroke-linejoin="round" stroke-width="5" d="m159 751.3 39.2 8.4m0 0L125.5 733h-23.2l-23.1-20.6L56 698.8l4-19.8h89.5l-13.6 37.6 85.5 48.1m-23.2-5 23.2 5m0 0 66.3 14.3 56 41.8 15.2-15h20l55 42.6 18.5 5.7 27.1-2.8 40.8 41 80 58.2h14.3l11.2 12 73.5 35.5v-53.9M287.7 745.6h-42.3l12.8-66.6h70.3m-40.8 66.6 36.8 14.1 22.4 17.1 40-7.8m-99.2-23.4L283 733l45.5-53.9m58.3 90 47.2-90m-47.2 90 37.6 58.2 34.4 12 8-14.9h20.7M434 679h18.4m-18.4 0H328.5m159 145.3 76 71 51 18.3 84.8 30.5M487.5 824.3l-4-9m215.8 128.8v-95.7M452.3 679h247v169.4M452.3 679l6.5 80.7 24.7 55.6m0 0 18.4-13.7 55.2 7.1 19.1 15.6 7.2-22.7 26.4 7.1 12-11.3 23.2 18 16-6.7 38.3 39.7"/>
  <path fill="#30262D" d="m245.3 745.6 12.8-66.6h70.3L283 732.9l4.8 12.7 36.7 14.1 22.4 17.1 40-7.8 47.1-90h18.4l6.4 80.7 24.8 55.6 18.3-13.7 55.2 7.1 19.2 15.6 7.2-22.7 26.3 7.1 12-11.3 23.2 18 16-6.7 38.3 39.7v95.7l-84.7-30.5-51.1-18.4-76-70.9h-20.7l-8 15-34.4-12.1-37.5-58.2-40 7.8-22.4-17-36.7-14.2h-42.4Z"/>
  <path stroke="#02365E" stroke-linejoin="round" stroke-width="5" d="m287.7 779 56 41.8 15-15h20l55.2 42.6 18.4 5.7 27.2-2.8 40.7 41 80 58.2h14.3l11.2 12 73.5 35.5v-53.9m0-265.1v169.4M287.7 745.6h-42.4l12.8-66.6h70.3L283 732.9l4.8 12.7Zm0 0 36.7 14.1 22.4 17.1 40-7.8m0 0 47.1-90h18.4l6.4 80.7 24.8 55.6M386.8 769l37.5 58.2 34.4 12 8-14.9h20.8m0 0 75.9 71 51.1 18.3 84.7 30.5M487.5 824.3l-4-9m215.7 128.8v-95.7m-215.7-33 18.3-13.8 55.2 7.1 19.2 15.6 7.2-22.7 26.3 7.1 12-11.3 23.2 18 16-6.7 38.3 39.7"/>
  <path fill="#54CD63" stroke="#02365E" stroke-width="5" d="M569.8 687.5c-155.6 0-297.6-1.5-400.6-3.8a4276 4276 0 0 1-122.1-4.1 637.5 637.5 0 0 1-34.4-2.6l1.2-.1c7.6-.9 18.7-1.7 33.2-2.5 28.8-1.5 70.6-3 122.1-4 103-2.4 245-3.9 400.6-3.9 43.2 0 89 .1 129.5.3v20.4c-40.5.2-86.3.3-129.5.3Z"/>
  <path fill="#FFD028" fill-rule="evenodd" d="M385.3 263.4c-19.1-1.2-34.3-18.7-34.3-40.2 0-22.2 16.3-40.2 36.4-40.2 20.2 0 36.5 18 36.5 40.2 0 21.5-15.2 39-34.4 40.2l2.9 7.1h-9.9l2.8-7Z" clip-rule="evenodd"/>
  <path fill="#E8B500" fill-rule="evenodd" d="M395 258.7c-20.6 0-37.2-18.7-37.2-41.8 0-9.9 3-19 8-26.1a41.7 41.7 0 0 0-14.8 32.4c0 21.5 15.2 39 34.3 40.2l-2.8 7.1h9.9l-2.9-7c7.4-.5 14.1-3.4 19.7-8-4.4 2-9.2 3.2-14.2 3.2Z" clip-rule="evenodd"/>
  <mask id="a" fill="#fff">
    <path fill-rule="evenodd" d="M385.3 263.4c-19.1-1.2-34.3-18.7-34.3-40.2 0-22.2 16.3-40.2 36.4-40.2 20.2 0 36.5 18 36.5 40.2 0 21.5-15.2 39-34.4 40.2l2.9 7.1h-9.9l2.8-7Z" clip-rule="evenodd"/>
  </mask>
  <path fill="#02365E" d="m385.3 263.4.3-3.5 4.8.3-1.8 4.5-3.3-1.3Zm4.2 0-3.2 1.3-1.8-4.5 4.8-.3.2 3.5Zm2.9 7.1 3.2-1.3 2 4.8h-5.2v-3.5Zm-9.9 0v3.5h-5.2l2-4.8 3.2 1.3Zm-28-47.3c0 20 14 35.7 31 36.7l-.4 7c-21.3-1.3-37.6-20.6-37.6-43.7h7Zm33-36.7c-18 0-33 16.1-33 36.7h-7c0-23.8 17.6-43.7 40-43.7v7Zm32.9 36.7c0-20.6-15-36.7-33-36.7v-7c22.4 0 40 20 40 43.7h-7Zm-31 36.7c17-1 31-16.8 31-36.7h7c0 23-16.4 42.4-37.6 43.7l-.5-7Zm-.3 12-2.8-7.2 6.5-2.6 2.8 7.1-6.5 2.6Zm-6.6-4.9h9.9v7h-9.9v-7Zm6-2.3-2.7 7.1-6.5-2.6 2.8-7 6.5 2.5Z" mask="url(#a)"/>
  <path stroke="#02365E" stroke-width="3.5" d="M387.3 270.3c-5.4 27.8-1.6 30.2-1.4 43.8.2 13.6-8 20.2-9.4 33.8-1.5 15.3 4.4 23.8 3.5 39.1-.6 9-3.5 23-3.5 23"/>
  <path stroke="#FFF7DC" stroke-linecap="round" stroke-width="7" d="M394.5 192c12.6 6.7 18 15 21.6 27.4"/>
  <path fill="#8C5420" d="M471.7 371.1c-.8-4.1-2-6.6-4.7-9.8-.8-6.6-3.2-10.3-2-16.9l.5-2.5s-7.5-5.2-9-10.3a14.6 14.6 0 0 1 0-10c1.6-5 4.2-8 9-10 4.4-1.8 7.8-2 12.1 0 5 2.2 5.3 6.7 8.6 11 3.4-.4 5.3-1.4 8.7-1 2.2.3 4.8 2 4.8 2v-4.8c.2-4 2.6-6.3 6.1-8.5 5-3.2 10-2.9 15.2 0 3.9 2 6 4.3 7.3 8.5 1.4 4.9.8 9-2.6 12.8a28.4 28.4 0 0 1-7.6 6.3v9.1c1.8 2 2.6 3.5 3 6.1.3 2.4.1 4-1 6.2-1 2-4.3 4-4.3 4l-3.1 11.4c-1.1 3.5-2.6 5.2-3 8.9a31 31 0 0 0 0 5.5l.4 1 2.6 6.7 9.4-.9 52-4.7 54.7 31.2 25.5 8.5-25.5 3.5-54.7-25-48.4 12.2v9.3s-1.7 9.3 0 14.8c1.1 4 2.8 5.8 5 9.3 6.7 11 12.6 15.8 22 24.5 19.7 18.2 58.1 36.6 58.1 36.6s-11.2 12.2-19.8 18.3c-7 5-11.3 7.5-19.1 11l56.2-8.2 33.4-8.9 1 6.1s2-4.6 4.6-6c3.4-2 6.6-2 9.8 0 3.3 2 4.5 5 4.3 8.8-.2 3.2-1 5.4-3.6 7.3-2.7 2-5.4 2-8.7 1-2.5-.9-5.4-4.2-5.4-4.2l3.1 20.6s2.2-4.5 5-5.7c2.5-1.2 4.5-1 7.2 0 2.9 1.1 4.7 2.7 5.5 5.7 1 3.3.4 6.2-2.2 8.5-2.4 2.2-4.9 2.3-8 1.7-3-.6-6.6-4.4-6.6-4.4l1.4 8.7 9.9 2.6-11.7 15-5.6-7.4-13-5.4-7.4-16.3-13-9.6-79.6 16-14.1-14.8c-13.2 5-23 5-36.2 0l-3-1.2s2 5.8 3 9.6c6 21.4 7 56.4 7 56.4l9.9 30.2-9 3.1s2.7.4 3.8 1.5c1.2 1.1 1.5 2.3 1.5 4a5 5 0 0 1-2.8 4.8c-2 1-3.7.6-5.4-.6a5.2 5.2 0 0 1-2.4-4.2c-.2-1.6 1.1-4 1.1-4l-24 8.2s2.7-.4 4.2 1c1.5 1.3 2.4 3 2 5.2-.4 2-1.2 3.5-3.2 4.4-2 1-4 .7-5.7-.7a5.2 5.2 0 0 1-2-4.8c0-1.8 2-4.2 2-4.2l-7.2 2.5-4 6.5-9.6-9 6.3-5.1s.5-6.9 2.6-10.6c3.4-6 10.7-4.2 14.7-9.8 3-4.4 4.4-13 4.4-13L470.7 545a50 50 0 0 1-11.7-4.9c-6.5-3.6-15-11.9-15-11.9l11.5-23s16.9-22.7 24.5-39c3.7-7.8 8-12 8.2-20.6.1-7-3-10.7-4.8-17.6l-47.6 20.2-42.6-28.2-14.2 4-2-14.6h16.2l42.6 18.3 47.6-22.5 7.2-3.4 1.3-5.8 1.3-5.8s-3 1-5 1c-3.3.1-5.2-.8-8.2-2-2.6-1.2-4.4-1.6-6.1-3.8-1.8-2.2-1.8-4-2.2-6.8-.5-2.9.5-4.6 0-7.5Z"/>
  <use xlink:href="#b"/>
  <use xlink:href="#c"/>
  <use xlink:href="#d"/>
  <circle cx="479.5" cy="671.4" r="7.2" fill="#02365E"/>
  <ellipse cx="506.2" cy="662.7" fill="#02365E" rx="8.4" ry="7.8"/>
  <circle cx="479.3" cy="672" r="3.7" fill="red"/>
  <circle cx="506.4" cy="663" r="3.7" fill="red"/>
  <ellipse cx="671.9" cy="536.5" fill="#02365E" rx="9.3" ry="9.6"/>
  <ellipse cx="675.6" cy="564.1" fill="#02365E" rx="9.3" ry="9.1"/>
  <circle cx="672.3" cy="536.5" r="3.7" fill="red"/>
  <circle cx="675.6" cy="564.3" r="3.7" fill="red"/>
  <path fill="#8C5420" d="M471.7 371.1c-.8-4.1-2-6.6-4.7-9.8-.8-6.6-3.2-10.3-2-16.9l.5-2.5s-7.5-5.2-9-10.3a14.6 14.6 0 0 1 0-10c1.6-5 4.2-8 9-10 4.4-1.8 7.8-2 12.1 0 5 2.2 5.3 6.7 8.6 11 3.4-.4 5.3-1.4 8.7-1 2.2.3 4.8 2 4.8 2v-4.8c.2-4 2.6-6.3 6.1-8.5 5-3.2 10-2.9 15.2 0 3.9 2 6 4.3 7.3 8.5 1.4 4.9.8 9-2.6 12.8a28.4 28.4 0 0 1-7.6 6.3v9.1c1.8 2 2.6 3.5 3 6.1.3 2.4.1 4-1 6.2-1 2-4.3 4-4.3 4l-3.1 11.4c-1.1 3.5-2.6 5.2-3 8.9a31 31 0 0 0 0 5.5l.4 1 2.6 6.7 9.4-.9 52-4.7 54.7 31.2 25.5 8.5-25.5 3.5-54.7-25-48.4 12.2v9.3s-1.7 9.3 0 14.8c1.1 4 2.8 5.8 5 9.3 6.7 11 12.6 15.8 22 24.5 19.7 18.2 58.1 36.6 58.1 36.6s-11.2 12.2-19.8 18.3c-7 5-11.3 7.5-19.1 11l56.2-8.2 33.4-8.9 1 6.1s2-4.6 4.6-6c3.4-2 6.6-2 9.8 0 3.3 2 4.5 5 4.3 8.8-.2 3.2-1 5.4-3.6 7.3-2.7 2-5.4 2-8.7 1-2.5-.9-5.4-4.2-5.4-4.2l3.1 20.6s2.2-4.5 5-5.7c2.5-1.2 4.5-1 7.2 0 2.9 1.1 4.7 2.7 5.5 5.7 1 3.3.4 6.2-2.2 8.5-2.4 2.2-4.9 2.3-8 1.7-3-.6-6.6-4.4-6.6-4.4l1.4 8.7 9.9 2.6-11.7 15-5.6-7.4-13-5.4-7.4-16.3-13-9.6-79.6 16-14.1-14.8c-13.2 5-23 5-36.2 0l-3-1.2s2 5.8 3 9.6c6 21.4 7 56.4 7 56.4l9.9 30.2-9 3.1s2.7.4 3.8 1.5c1.2 1.1 1.5 2.3 1.5 4a5 5 0 0 1-2.8 4.8c-2 1-3.7.6-5.4-.6a5.2 5.2 0 0 1-2.4-4.2c-.2-1.6 1.1-4 1.1-4l-24 8.2s2.7-.4 4.2 1c1.5 1.3 2.4 3 2 5.2-.4 2-1.2 3.5-3.2 4.4-2 1-4 .7-5.7-.7a5.2 5.2 0 0 1-2-4.8c0-1.8 2-4.2 2-4.2l-7.2 2.5-4 6.5-9.6-9 6.3-5.1s.5-6.9 2.6-10.6c3.4-6 10.7-4.2 14.7-9.8 3-4.4 4.4-13 4.4-13L470.7 545a50 50 0 0 1-11.7-4.9c-6.5-3.6-15-11.9-15-11.9l11.5-23s16.9-22.7 24.5-39c3.7-7.8 8-12 8.2-20.6.1-7-3-10.7-4.8-17.6l-47.6 20.2-42.6-28.2-20.2 3.4-2.5-14.1h22.7l42.6 18.3 47.6-22.5 7.2-3.4 1.3-5.8 1.3-5.8s-3 1-5 1c-3.3.1-5.2-.8-8.2-2-2.6-1.2-4.4-1.6-6.1-3.8-1.8-2.2-1.8-4-2.2-6.8-.5-2.9.5-4.6 0-7.5Z"/>
  <use xlink:href="#b"/>
  <use xlink:href="#c"/>
  <use xlink:href="#d"/>
  <circle cx="479.5" cy="671.4" r="7.2" fill="#02365E"/>
  <ellipse cx="506.2" cy="662.7" fill="#02365E" rx="8.4" ry="7.8"/>
  <circle cx="479.3" cy="672" r="3.7" fill="red"/>
  <circle cx="506.4" cy="663" r="3.7" fill="red"/>
  <ellipse cx="671.9" cy="536.5" fill="#02365E" rx="9.3" ry="9.6"/>
  <ellipse cx="675.6" cy="564.1" fill="#02365E" rx="9.3" ry="9.1"/>
  <circle cx="672.3" cy="536.5" r="3.7" fill="red"/>
  <circle cx="675.6" cy="564.3" r="3.7" fill="red"/>
  <path fill="#2B99D6" d="M492 395.6h3.2s-.8 2.7 0 4.1c1 1.7 2.8 1.5 4.7 1.9 5.2 1 12.8-5 12.8-5l-1.7 1.8-7.2 4.7-5.6.7-7.4-2.2 1.3-6Zm-4.4 31.4c-2.6-9 0-24 0-24l-4 2.1v22.3l.3 2 4 14v7l-6 12.6-12.8 23-13.6 19-11.3 23.1 14.8 12.3 13.6 5.4 19 8.3 16.8 5.8h14l12-3.2 11.9 1.3 15-4 10.4-8.2 21.1-12.3 17.7-17.2s-23.1 13.7-39.2 19.6a144.5 144.5 0 0 1-41 10.2l-.6.1a95 95 0 0 1-29.3 0l-.6-.2c-17.3-2.8-26.9-4.4-32.4-17.9-2.7-6.5-1.8-11-1.5-18.1 1-22.7 17.1-31.1 24.9-52.4 1.6-4.4 1.2-7.4 3.9-11.3 1.8-2.6 5.7-5.8 5.7-5.8s-4.9-.2-7.4-1.8c-4.2-2.7-4-6.9-5.4-11.7Z"/>
  <path fill="#2B99D6" d="M513.8 440c4.3 0 11-1.9 11-1.9v.6s-6.6 3-11 2.8a30.9 30.9 0 0 1-10.6-3.7s6.4 2.1 10.6 2.2Z"/>
  <path fill="#E8B500" d="M461.3 318.4a25 25 0 0 1 4-6.6l-5.5 3-3.2 6-1 6.7 2.5 6.9 7.3 7.2 1.6-6.3s-4.6-4.2-5.7-7.8c-1.1-3.3-1-5.7 0-9Zm44-2a34 34 0 0 1 2.6-7l-5.2 3.3-3 4.3.4 9.2 3.1 7.8 4.7 2.6 10.2 1.5 8.3-7.2s-3.3 1.5-5.6 2c-3.4.7-5.7 1.4-8.9 0a10.9 10.9 0 0 1-5.7-5.4c-2.2-3.8-1.7-6.8-1-11.1Z"/>
  <path fill="#603914" d="m435.8 448.3-42.4-28 42.4 22.3 47.4-18.8v4.1l-47.4 20.4Zm86.2-52.7h3s0 16.4 1.6 18.4c1.7 2 1.4 1.7 3.7 3 2.3 1.3 43.8-7.6 43.8-7.6l-48.2 12.2v7.8l-3-7-1-9.1v-17.7ZM510.6 380 493 390.5l16.5-5 1.1-5.3Zm-37.8 178.8-2.2-13.6 2 .6s9.8 68 15.6 72.5c5.7 4.5 17 2.8 17 2.8l-22.8 5.8-9.6-68.1Zm75.9 12.9-14.1-15 7.8 1.1s5.2 5.2 10.4 7.3c5.2 2 75.9-9.9 75.9-9.9l-80 16.5Z"/>
  <path fill="#D9D9D9" d="m640.2 563.8-11.7-8.6v-17.8l3.1-1s1.7 11.3 6 16.6c3 3.7 6.5 3.8 9.4 7.4 3.2 4 2.2 8 5.4 12 2.4 2.9 3.8 5.4 7.6 6.2 3.4.7 8.7-2 8.7-2s-3.5 8.2-1 12.4c.5 1 1.6 2.2 1.6 2.2l-1.7 2.8-6.1-7.4-5.7-1.3-6-2.8-3.9-5-1.7-6.9-4-6.8ZM466.8 657c-1.8-3.8 0-10.7 0-10.7l-4 3.2-1.9 11 7.2 7.2 46.8-16.5s-41.2 11.5-43.8 10.4c-2.6-1.1-3.1-2.5-4.3-4.7Zm-4 12.5c-3.3-.8-5.8-6.5-5.8-6.5l-2.4 2.3 9.5 8.5 2.7-4.3s-2.5.5-4 0Z"/>
  <path fill="#FFEBA5" d="M467.1 311.7a1.7 1.7 0 1 0 .6 3.5l-.6-3.5Zm6.4 1.7-.4 1.7.4-1.7Zm5.4 2.8-1.3 1.2 1.3-1.2Zm.4 4a1.8 1.8 0 0 0 3.2-1.4l-3.2 1.5Zm29.8-10.4a1.8 1.8 0 0 0 .5 3.5l-.5-3.5Zm6.2 1.8.4-1.7-.4 1.7Zm7.6 4.8 1.4-1-1.4 1Zm2.8 6.9-1.8-.1h1.8Zm-3.6 4.2a1.8 1.8 0 0 0 3 2l-3-2Zm-54.7-14 .3 1.7a24.2 24.2 0 0 1 5.4 0l.8-3.5a16.1 16.1 0 0 0-6 0h-.7l.2 1.7Zm5.7 1.6c2.2.6 3.2 1 4.5 2.3l2.6-2.4c-2-2-3.8-2.7-6.3-3.3l-.8 3.4Zm4.5 2.3 1.2 1.7.4.8.1.3 1.6-.6 1.6-.8a34.8 34.8 0 0 0-.6-1.3 10 10 0 0 0-1.7-2.5l-2.6 2.4Zm31.7-5.8.3 1.7h.1a23.8 23.8 0 0 1 5.2 0l.8-3.4a16.7 16.7 0 0 0-6-.1h-.5l.2 1.8Zm5.6 1.7c1.6.3 2.7.8 3.7 1.4 1 .6 1.9 1.5 2.9 2.8l2.8-2.2a15 15 0 0 0-3.8-3.5 15 15 0 0 0-4.8-2l-.8 3.5Zm6.6 4.2c1.7 2.2 2.5 3.5 2.4 5.7l3.5.2c.2-3.6-1.3-5.8-3.1-8l-2.8 2Zm2.4 5.7a7 7 0 0 1-.9 2.7 18.1 18.1 0 0 1-.8 1.6l1.4 1 1.5.9.1-.2a15.9 15.9 0 0 0 1-1.8c.5-1 1.1-2.6 1.2-4l-3.5-.2Z"/>
  <path stroke="#CD9159" stroke-linecap="round" stroke-linejoin="round" stroke-width="3.5" d="m393.5 412.5 42.5 19 44.4-22m47.7-10.3 45.8-5 53 31 16.6 4.4M492.6 557.3s4.8 17.1 6.7 28.4c2 12.4 3 32 3 32m70.3-69.5 52.7-7.3v5.2"/>
  <path stroke="#E1F3FF" stroke-linecap="round" stroke-linejoin="round" stroke-width="3.5" d="m503.8 395.8 5.2-2.6 1.6 3.4m94.1 119.1s-12.8-5.5-20.6-9.8c-10.2-5.8-15.5-10-24.8-17.1-6.7-5-10.8-7.6-16.8-13.6a86 86 0 0 1-14.4-18.3c-2.3-3.7-4.2-5.5-5.2-9.7-1-4.2-.4-6.8 0-11.1l.7-5.8s-2-4.8-3-8.1c-1-4-1.4-6.2-1.6-10.2-.4-5.4 1-13.8 1-13.8l-6.8.6s-3.4 3.6-6.3 5a16.2 16.2 0 0 1-7.8 1.9c-3.4 0-8.5-1.9-8.5-1.9"/>
  <path stroke="#02365E" stroke-linecap="round" stroke-linejoin="round" stroke-width="3.5" d="M483.4 331.6c-4 .7-6.4 1.2-9.5 3.5-4.6 3.6-5.7 7.5-6.9 13.2-.2.9-.3 1.9-.3 3m16.7-19.7a20 20 0 0 1 9.8 0c6.1 1.6 9 5 12.6 10.2 2.8 4 5 11.3 5 11.3s.4-3.4 1.9-4.8a5.4 5.4 0 0 1 5.4-1.3m-34.7-15.4 2.8-9M467 361.3c2.8 3.2 4 5.7 4.7 9.8.5 2.9-.5 4.6 0 7.5.4 2.8.4 4.6 2.2 6.8 1.7 2.2 3.5 2.6 6.1 3.7 3 1.3 4.9 2.2 8.2 2 2 0 5-1 5-1M467 361.4c-.8-6.6-3.2-10.3-2-16.9l.5-2.5m1.5 19.4v-2m35 26.1-4 2.3-4.8 2.5m0 0-1.3 5.8m-1.3 5.8-7.2 3.4m7.2-3.4s6.9 2.6 11.3 1.8c5-.9 10.8-6.8 10.8-6.8m-22.1 5 1.3-5.8m-8.5 32.1-47.6 20.2-42.6-28.2L373 424l-2.5-14.6h22.7l42.6 18.3 47.6-22.5m0 23c1.8 6.8 5 10.4 4.8 17.5-.2 8.7-4.5 12.8-8.2 20.6-7.6 16.3-24.5 39-24.5 39l-11.5 23s8.5 8.3 15 11.9a50 50 0 0 0 11.7 4.9m12.7-117v-22.9m29.3-8.4 9.4-.9m-9.4.9-2.6-6.6m12 5.7 52-4.7 54.7 31.2 25.5 8.5-25.5 3.5-54.7-25-48.4 12.2v9.3m-3.6-35s-1.2 13 0 21c.9 5.6 3.6 14 3.6 14m0 0s-1.7 9.3 0 14.8c1.1 4 2.8 5.8 5 9.3 6.7 11 12.6 15.8 22 24.5 19.7 18.2 58.1 36.6 58.1 36.6s-11.2 12.2-19.8 18.3c-7 5-11.3 7.5-19.1 11m-80-149.4s6.3 0 10-1.3c3.5-1.1 8.2-4.5 8.2-4.5m0 0-.4-1s-.3-3.5 0-5.6c.4-3.7 1.9-5.4 3-9 1.3-4.3 3.1-11.2 3.1-11.2s3.2-2 4.3-4.1a8.9 8.9 0 0 0 1-6.2 9.7 9.7 0 0 0-3-6m-47.4 198 11.7 81.6M470.7 545l24.5 10.2m-12.8 71.4 22.9-5.4m-22.9 5.4s-1.3 8.6-4.4 13c-4 5.6-11.3 3.8-14.7 9.8-2.1 3.7-2.6 10.6-2.6 10.6m44.6-38.8s-1-35-7.1-56.4c-1-3.8-3-9.6-3-9.6m10 66 9.9 30.2-9 3.1m-10.9-99.3 3 1.2c13.2 5 23 5 36.2 0m37.5-11c-6 6.2-10.8 9-19.1 11a34 34 0 0 1-18.4 0m37.5-11 56.2-8.3m0 0v18m0-18 33.4-8.9 1 6.1m-34.5 21-79.6 16-14.1-14.8m93.7-1.2s9 4.7 13 9.6c4.5 5.4 2.1 11.7 7.4 16.3 4.1 3.6 13 5.4 13 5.4m-193.5 81-7.3-7.5m7.3 7.6 7.2-2.5m-7.2 2.5-4 6.5-9.6-9 6.3-5.1m14.5 5.1s-3 2.6-3.4 4.9c-.4 2.4.1 4.2 1.7 6.1a7 7 0 0 0 4.5 2.6c2.8.6 5 .2 7-1.8 1.4-1.5 1.7-2.7 1.9-4.7.2-2.5-.1-4.4-1.9-6.3-1.4-1.6-5-2.4-5-2.4m-4.8 1.6 4.8-1.6m0 0 19.9-6.7m0 0s-2 3-2 5c-.2 3 .7 5.2 3 7a7.9 7.9 0 0 0 8.8 1.2 7.6 7.6 0 0 0 4.6-5.4c.9-3 .4-5.5-1.8-7.8-1.9-1.9-6.4-2.3-6.4-2.3m-6 2.4 6.2-2.3m155.4-68 7.4-10.2m-7.4 10.2 5.6 7.4 11.7-15-9.9-2.6m0 0-1.4-8.7m-5-33.3s2-4.6 4.6-6c3.4-2 6.6-2 9.8 0 3.3 2 4.5 5 4.3 8.8-.2 3.2-1 5.4-3.6 7.3-2.7 2-5.4 2-8.7 1-2.5-.9-5.4-4.2-5.4-4.2m-1-6.9 1 7m0 0 3.1 20.5m0 0s2.2-4.5 5-5.7c2.5-1.2 4.5-1 7.2 0 2.9 1.1 4.7 2.7 5.5 5.7 1 3.3.4 6.2-2.2 8.5-2.4 2.2-4.9 2.3-8 1.7-3-.6-6.6-4.4-6.6-4.4m-.9-5.8 1 5.8M518 347v-9m0 0c-2.1.3-3.4.3-5.4 0-4.8-.8-8.4-2.1-10.8-6.4-1.6-2.8-2.2-8-2.2-8M518 338c3.3-2 5-3.4 7.6-6.3 3.4-3.8 4-7.9 2.6-12.8a13.2 13.2 0 0 0-7.3-8.5c-5.2-2.9-10.2-3.2-15.2 0-3.5 2.2-5.9 4.4-6.1 8.5v4.8m-13.5-1c3.4-.4 5.3-1.4 8.7-1 2.2.3 4.8 2 4.8 2m-13.5-1a16 16 0 0 0-8.6 1c-5.7 2.2-8.3 5.9-10.6 11.5-1 2.6-1.5 6.8-1.5 6.8m20.7-19.3c-3.3-4.3-3.6-8.8-8.6-11-4.3-2-7.7-1.8-12 0-5 2-7.5 5-9.2 10a14.6 14.6 0 0 0 0 10c1.6 5.1 9.1 10.3 9.1 10.3m16.6 20.3v9s.6 1.7 2.4 1.2c.9-.2 2-1.3 2-1.3m5.4-12.8s2.5-2 4.4-2.6c1.8-.4 3-.7 4.7 0 1.3.6 2.8 2.6 2.8 2.6m-26.8 1.9s-3.1-1.8-5.3-1.9c-1.9 0-4.7 1-4.7 1m0 0s-.5-4.3-.3-8m16.7 29.9s5-.6 7.2-2.6c1.3-1.3 2.6-4 2.6-4s.5 3.2 0 5.1c-.5 1.7-2.2 3.9-2.2 3.9m-.4-32.9s5-1.8 7.8-1.5c2.2.3 5.4 1.5 5.4 1.5m-25.4 0s-4.9-.7-8-.5c-1.5.1-3.7 1-3.7 1"/>
  <circle cx="497.9" cy="358.7" r="2" fill="#02365E"/>
  <circle cx="472.9" cy="360.7" r="2" fill="#02365E"/>
  <circle cx="503.9" cy="367.7" r="5" fill="red"/>
  <circle cx="470.9" cy="371" r="5" fill="red"/>
  <path fill="#FFD028" d="M267.3 457.4s-4.7-18.1-1.3-28.9c.7-2.1 2.1-5.4 2.1-5.4s-2.1-8.1-2.6-13.4c-.5-6.2.6-15.9.6-15.9l-2.5 1.6s-6.8 11-10.2 18.5c-2.2 5-5 12.8-5 12.8s-1.6-7.7-3-12.5c-2.4-8.6-7.7-21.7-7.7-21.7l-2-2.4s-4.2 15.9-7.8 25.7c-1.8 5.1-2.9 8-5 13l-7.3 29.8s10.7 3.6 17.9 4.6c10.1 1.4 17 3.7 26.2-.7 3.2-1.6 7.6-5 7.6-5Z"/>
  <path fill="#54CD63" d="M283.2 596.2c-2.1-16.8-1.1-26.4-3-43.2-1.4-14-2.9-21.8-4.8-35.7l-8-59.9s-4.5 3.5-7.7 5c-9.2 4.5-16 2.2-26.2.8-7.2-1-18-4.6-18-4.6s-7.8 29.6-14.5 48c-2.4 6.4-2.4 10.8-6.5 16.4a30 30 0 0 1-16.4 12c-6.4 4.7-9.8 7.6-16.3 12a409.3 409.3 0 0 1-58.1 29.8l10.2 10.8 39.7 42.3 10 10.6s21.7-28.4 34-47.8c8.4-13.4 15.2-20 20.3-35 1.5-4.5 3.2-11.6 3.2-11.6l2-7.3c5.4-19.8 8-31 13-51h7c2 8.7 3.4 13.5 5.2 22.3 2 9.6 2.7 15.1 4.5 24.9-2.8 11.4-3.6 18-7 29.2-7.3 23.8-26.1 58.1-26.1 58.1l14 3.4 51.1 12.6 8.8 2.2s-2.7-5.7-4.1-9.5c-4.9-13-4.5-21.1-6.3-34.8Z"/>
  <path fill="#F5D8BD" d="m252.7 295.8-22.8 18-22.8 43.4 6.3 7.3 17.5 20.2 4.7 5.4 2 2.4 2.2 2.4 2.3-15.2s-1.9-5.8-2.4-9.7a36.3 36.3 0 0 1 5-25.6c3-5.4 5-8.6 9.9-12.4 4.3-3.4 7-6.6 12.4-6.4 1.4 0 3.6.6 3.6.6s2.3.2 3.7.6c3.8 1.3 5 4 7.2 7.3a25 25 0 0 1 4.1 10c1.2 5.2.4 13.5.4 13.5l-4.3 11-3.6 9s-1.6 2-2.8 3.1c-3.8 3.5-6.7 5-11.8 5.9l-2.9.3.4 10.1 2.6-1.6 2.5-1.6 12.8-8 30-19.2-24-52.7s-6.8-3.7-10.8-6.5c-5.2-3.5-12.6-10-12.6-10s1.7-1.4 3.5-.7c4.4 1.4 12.2 6 18.1 7.7l13 3.4 31.2 55.7s.7 6.4-1 9.9c-1.4 2.5-5 5.4-5 5.4l-35.3 28-10.6 8.5-6.1 4.9-1.2 3s-2.1-8.2-2.6-13.5c-.5-6.2.6-15.9.6-15.9l-2.5 1.6s-6.8 11-10.2 18.5a211 211 0 0 0-5 12.8s-1.6-7.7-3-12.5c-2.4-8.6-7.7-21.7-7.7-21.7l-2-2.4s-4.2 15.9-7.8 25.7c-1.8 5.1-2.9 8-5 13l-.4-15.1-6.2-9.1-17-20.1-8.6-10s-3.7-6-3.7-10.1c0-4.7 4.4-11.2 4.4-11.2l30.8-45.2s5.4-2.2 8.7-3.8c6.6-3.2 11-7 16.4-9 2.8-1.1 5.4.6 5.4.6Z"/>
  <path fill="#2B99D6" d="m242 379.7-2.2 15.2-2.1-2.4-2-2.4-4.8-5.4-17.5-20.2s1.7-13.1 4.9-20.9c3.2-7.8 4.9-13 11.4-18.4 5.6-4.6 9.8-6.8 17-7.6 4.2-.4 10.6.8 10.6.8s7.5-.3 12.1.9a27.7 27.7 0 0 1 22 24.7c1.1 7 .4 11.3-1.4 18.2-1.2 5-4.8 12.2-4.8 12.2l.8-16.8-4.3 11-3.6 9 .2 6.7.6 1.4-12.8 8.1-2.5 1.6-2.6 1.6-.4-10 3-.4c5-1 8-2.4 11.7-5.9 1.2-1.1 2.8-3.1 2.8-3.1l3.6-9 4.3-11s.8-8.3-.4-13.5a28 28 0 0 0-4-10c-2.3-3.3-3.5-6-7.3-7.3-1.4-.4-3.7-.6-3.7-.6s-2.2-.6-3.6-.6c-5.5-.2-8.1 3-12.4 6.4-4.8 3.8-6.9 7-9.9 12.4a36.3 36.3 0 0 0-5 25.6c.5 3.9 2.4 9.7 2.4 9.7Zm25.3 77.7s-4.7-18.1-1.3-28.9c.7-2.1 2.1-5.4 2.1-5.4l1.2-3 6-4.8 10.7-8.5s2.8 3 4.1 5.3a23 23 0 0 1 3.2 10.3c.6 4.5.4 7.2-.9 11.5-1.8 6.3-6 8.3-9.1 14-3.4 6.6-5.7 10.4-7 17.7a46 46 0 0 0-.4 10.5c.3 8.2 4 12.4 4.5 20.6.4 5.6 1.7 9.2-.5 14.3a16.9 16.9 0 0 1-4.5 6.3l-8-59.9s-4.5 3.5-7.7 5c-9.2 4.5-16 2.2-26.2.8-7.2-1-18-4.6-18-4.6s-7.8 29.6-14.5 48c-2.4 6.4-2.4 10.8-6.5 16.4a30 30 0 0 1-16.4 12c-2.8-.6-4.3-1-7-2.1-7.5-3.1-12.8-5.6-16.4-13-3.6-7-3-12.8-.6-20.5 2.9-9 11.2-10 15.8-18.3 3.5-6 5.8-9.7 6.6-16.7.7-6.4-.7-10.1-2.2-16.4-2-8-7.3-11.5-8.1-19.8-.6-6.4-.3-10.4 2.1-16.3 1.9-4.4 3.4-6.8 6.8-10.2 4.5-4.3 9-4 14-7.8 4.3-3.2 10.1-9.4 10.1-9.4l17 20.1 6.3 9.1.4 15-7.3 30s10.7 3.6 17.9 4.5c10.1 1.4 17 3.7 26.2-.7 3.2-1.6 7.6-5 7.6-5Z"/>
  <path fill="#2B99D6" d="M248.3 510c2 9.7 2.7 15.2 4.5 25a45.5 45.5 0 0 1-8.7 5.8c-8.2 4.2-23 5.3-23 5.3l2-7.3c5.4-19.8 8-31 13-51h7c2 8.7 3.4 13.5 5.2 22.3Z"/>
  <path fill="#fff" d="m104 598.4 9.9-10.8 39.7 42.3s2.7 6.7 2 11.1c-.4 3.2-1 5.1-3 7.7-2.6 3.5-9.6 5.6-9.6 5.6l-38.6-49.7-.4-6.2Zm123.1 43.9 6.5-16.6 51.2 12.6s3.9 3.8 5.4 6.8c1.7 3.5 2.6 5.9 2 9.7a22 22 0 0 1-4 7.8s-10.3-2.8-16.9-4.8a369 369 0 0 1-29.2-9.6c-5.9-2.2-15-5.9-15-5.9Z"/>
  <path fill="#1D922C" d="m215.5 458.4 5.7 1.8-7.7 32c-2.5 10.2-3 16.3-6.3 26.3-2 5.6-2.5 9.2-5.6 14.3-3.6 5.6-7 7.6-11.9 12.2-11.7 11-19.6 15.7-32.7 25-13.1 9.2-11.7 12.6-12.6 22.8-1.6 17.5 19.2 47.5 19.2 47.5L119.8 594l-16-17.2 20.1-9.2 18.5-9.2 20-11.6 15.4-11.5 6.6-2.9 7.4-6 5.3-7.5 2.7-9.8 4.3-11 11.4-39.7ZM243 488l7.4-1.4s10 28 9.3 46.5c-.3 8.4-1.4 13-3 21.3a182 182 0 0 1-6.7 24c-5 15.4-6.5 25 1.5 37.1 8.9 13.3 42.2 24.8 42.2 24.8l-74.2-18 11.4-21.8 8.6-18.9 7.7-22.3 5.3-24.7-9.4-46.7Z"/>
  <path fill="#E8B500" d="m235.6 390.3 2.8 3v8.7s-.7 9-2 14.5c-1.6 6-4.2 8.8-5.9 14.8-2 7.3-6.6 12.4-3 19.1a16 16 0 0 0 7 6.8c5.5 3.3 9.8 2.3 16.3 2.4 6.6 0 16.7-2.1 16.7-2.1l-3.6 2.4-7.7 4.2-7.6 1L231 463l-15.5-4.1 7.5-30.4 5-13 4.6-14.5 3-10.6Z"/>
  <path fill="#E7B98F" d="M245 382.3c-1.4-1.3-2.8-3.7-2.8-3.7s.5 4.6 2 7c1.2 2 2 3 4 4.2 2.2 1.3 4.1 2 6.6 2.6 2.3.5 3.2 0 5.4-.5 1.3-.2.6-5.4.6-5.4l-3.6-.2c-2.9 0-4.6.2-7.3-.9-2.1-.8-3.3-1.5-5-3.1Zm-16.1 30.1-32.5-32.5 26.2 33.6.5 13.5 5.8-14.6Zm39.4 10.2-2-8 44.1-27.1-41.2 32.7-1 2.4Z"/>
  <path fill="#D9D9D9" d="m142.7 654.4-41-53.5 11.8-13.4 4.6 4.6s-6.4 3-6 7.9c.4 5.6 2.2 8.5 4.4 13.6 3.7 8.5 7.7 12.3 12.7 20 5.2 8.2 13.5 20.8 13.5 20.8Zm114.8-.8-30.3-11 6-17 5.5 1.6s-3.6 5-1.7 8.3c2.2 3.9 4.2 5.7 7.6 8.4 4.7 3.9 8.4 4.5 14 7.1a386 386 0 0 0 29.5 11.6l-30.6-9Z"/>
  <path fill="#006EAD" d="M239.1 322.7c6.2-3.8 18-4.2 18-4.2l-11.8-.8-8 2.2-8 5.6-6.1 7.2-5.7 11.9-4.1 19.7 10 11.3s-2-10.7-1.5-17.7c.5-8 1.7-12.4 4.8-20a28 28 0 0 1 12.4-15.2ZM192.8 391l6.1-6.3 10.8 13s-9.2 4-14.2 8c-5.2 4-9.3 6.2-11.5 12.4-2.2 6.3-.4 10.6 1.4 17 1 3.7 2.3 5.4 3.5 9 1.8 5.7 3 9 3.3 15 .4 6 .5 9.6-1.3 15.4-2.4 7-6 10.1-10.9 15.8-3.8 4.5-7.6 5.6-10.8 10.6-2.6 4.1-4.3 6.7-4.5 11.5a20 20 0 0 0 2.6 10.3 46.7 46.7 0 0 0 10.8 12.5l-9.8-3.2-9.2-5.4-6-9.4-.8-9.6 3.3-12 7-6 7-7 5.2-9.6 1.6-7.8-.3-10-2.7-10.1-5-9-2.5-8.6.3-9.6 3.5-8.9 6.8-8.7 9.6-4.5 6.7-4.8Z"/>
  <path stroke="#FFEBA5" stroke-linecap="round" stroke-linejoin="round" stroke-width="3.5" d="M264.2 452.4s-1-6-1.2-9.7a44.7 44.7 0 0 1 3.2-20l-1.5-6c-1-5.1.2-20.4.2-20.4l-8 13.8"/>
  <path stroke="#A9DEFE" stroke-linecap="round" stroke-linejoin="round" stroke-width="3.5" d="M270.4 322.3s6.6 2.2 10 5a23 23 0 0 1 7.1 11.4c1.4 3.8 1.6 6.2 1.8 10.3.4 6.3-1.9 16.2-1.9 16.2m-1.8 43.5s3.6 5 4.7 7.9c1.4 3.4 1.8 8.8 1.4 12.4-.4 4-1.5 5.6-3.1 9-2.5 5.2-5.6 7-8.4 12-2.4 4.5-3.6 7-5 12-1.3 4.4-1 11.4-1 11.4m3-87.3-.5-6"/>
  <path stroke="#9BE8A5" stroke-linecap="round" stroke-linejoin="round" stroke-width="3.5" d="M233.8 487.9s-2.3 10.8-4 17.7a562.4 562.4 0 0 1-8.1 31.6c-2.5 9-3.5 15.5-7.2 24-4.7 10.7-8.8 16.7-15.4 26.5-11 16.2-29 41.3-29 41.3m86.2-163c3.9-1 9.4-4 9.4-4s5.4 45.8 9.8 75c1.3 8.6 2.4 13.4 3.4 22 1.8 16.1.5 27.1 2.6 43.1 1.2 9.9 1 13.7 3.6 22 1.6 5 5.2 12.4 5.2 12.4"/>
  <path stroke="#FFF1E4" stroke-linecap="round" stroke-linejoin="round" stroke-width="3.5" d="m245.2 298.5-22 10.9-30.7 46m17.3 8 23.5 27.4-1.7 8.5m54.8-92.5 8.5 2.4 29.8 53.7s.8 3.8.4 6.2c-.4 2-1.9 4.7-1.9 4.7m-16.3-4-37.7 24.8"/>
  <path stroke="#02365E" stroke-linecap="round" stroke-linejoin="round" stroke-width="3.5" d="m204 362.8 3-5.6m0 0 23-43.3 22.7-18s-2.6-1.8-5.4-.8c-5.5 2.1-9.8 6-16.4 9-3.3 1.7-8.7 3.9-8.7 3.9l-30.8 45.2s-4.4 6.5-4.4 11.2c0 4.2 3.7 10 3.7 10l8.5 10.1m7.9-27.3 6.3 7.3m72.6-7s.8-8.2-.4-13.4a28 28 0 0 0-4-10c-2.3-3.3-3.5-6-7.3-7.3-1.4-.4-3.7-.6-3.7-.6m15.4 31.4-4.3 11-3.6 9m7.9-20-.8 16.8s3.6-7.3 4.8-12.2a38.3 38.3 0 0 0 1.3-18.2 28 28 0 0 0-6-15 26.4 26.4 0 0 0-15.9-9.7c-4.6-1.2-12-.9-12-.9m-1.3 68.7 4.5-.2m0 0 3-.3c5-1 8-2.4 11.7-5.9 1.2-1.1 2.8-3.1 2.8-3.1m-17.5 9.3.4 10.1 2.6-1.6m45.4-28.8 2.3 3.9m-2.3-4L284.8 314s-6.7-3.7-10.7-6.5c-5.2-3.5-12.6-10-12.6-10s1.7-1.4 3.5-.7c4.4 1.4 12.2 6 18.1 7.7l13 3.4 31.2 55.7s.7 6.4-1 9.9c-1.4 2.5-5 5.4-5 5.4l-35.3 28m23-40.2-30.1 19.1m-11.6 71.7s-4.7-18.1-1.3-28.9c.7-2.1 2.1-5.4 2.1-5.4m-.8 34.3s-4.4 3.5-7.6 5c-9.2 4.5-16 2.2-26.2.8-7.2-1-18-4.6-18-4.6m51.8-1.2 8.1 59.9M252.8 535c-2.8 11.4-3.6 18-7 29.2-7.3 23.8-26.1 58.1-26.1 58.1l14 3.4m19-90.8c-1.7-9.7-2.4-15.2-4.4-24.8-1.8-8.8-3.2-13.6-5.1-22.4m9.6 47.3a45.5 45.5 0 0 1-8.7 5.8c-8.2 4.2-23 5.3-23 5.3m22-58.4 7.2-1.2m-7.1 1.2H236m0 0-6.5-2.4m6.5 2.5c-5 20-7.6 31.2-13 51l-2 7.3m-5.5-87.5s-7.8 29.6-14.6 48c-2.4 6.4-2.4 10.8-6.5 16.4a30 30 0 0 1-16.4 12m37.5-76.4 7.3-29.9m0 0c2.1-5 3.2-7.8 5-12.9 3.6-9.8 7.7-25.7 7.7-25.7M223 428.7l-.4-15m13.1-23.6 2 2.4m-2-2.4-4.7-5.4m-8.4 29-6.2-9.1-17-20.1m23.2 29.2 2 4.8m-11-54s1.6-13.1 4.8-20.9c3.2-7.8 4.9-13 11.4-18.4 5.6-4.6 9.8-6.8 17-7.6 4.2-.4 10.6.8 10.6.8m-43.9 46 17.5 20.3m-31.7-.2s-5.8 6.2-10.1 9.4c-5 3.7-9.5 3.5-14 7.8a27 27 0 0 0-6.8 10.2c-2.4 6-2.7 10-2.1 16.3.8 8.3 6 11.7 8 19.8 1.6 6.3 3 10 2.3 16.4-.8 7-3 10.6-6.6 16.7-4.6 8.2-13 9.3-15.8 18.3-2.4 7.7-3 13.4.6 20.6 3.6 7.3 8.9 9.8 16.4 12.9 2.7 1 4.2 1.5 7 2.1m0 0c-6.4 4.7-9.8 7.6-16.3 12a409.3 409.3 0 0 1-58.1 29.8l10.2 10.8m107-41.5s-1.7 7.1-3.2 11.6c-5 15-11.9 21.6-20.4 35a842.4 842.4 0 0 1-34 47.8l-10-10.6m122-112.6c1.8 14 3.3 21.7 4.8 35.7 1.8 16.8.8 26.4 3 43.2 1.7 13.7 1.3 21.9 6.2 34.8a148 148 0 0 0 4.1 9.5l-8.8-2.2m-9.4-121c2.2-2 3.3-3.5 4.5-6.3 2.2-5.1.9-8.7.5-14.3-.5-8.2-4.2-12.4-4.5-20.6a41 41 0 0 1 .5-10.5c1.2-7.3 3.5-11 6.9-17.6 3-5.8 7.3-7.8 9.1-14.1 1.3-4.3 1.5-7 1-11.5a23 23 0 0 0-7.4-15.6m0 0-10.6 8.5m2.7-37.7.2 6.7.6 1.4m0 0-12.8 8.1m0 0s-1 9.7-.6 15.9c.5 5.3 2.6 13.4 2.6 13.4m-2-29.3-2.5 1.6m4.5 27.7 1.2-3 6-4.8m-11.7-19.9s-6.8 11-10.2 18.5a211 211 0 0 0-5 12.8s-1.6-7.7-3-12.5c-2.4-8.6-7.7-21.7-7.7-21.7m0 0 2 2.4 2.4-15.2s-1.9-5.8-2.4-9.7a36.3 36.3 0 0 1 5-25.6c3-5.4 5-8.6 9.9-12.4 4.3-3.4 7-6.6 12.4-6.4 1.4 0 3.6.6 3.6.6m0 0-4.6-3.8-8.7-4M114 587.6l-9.9 10.8-2.4 2.5 2.8 3.7 38.6 49.7s7-2.1 9.7-5.6c2-2.6 2.5-4.5 3-7.7.6-4.4-2.1-11-2.1-11M114 587.6l39.7 42.3m80-4.2-6.5 16.6s9.1 3.7 15 5.9a383 383 0 0 0 29.2 9.6c6.6 2 16.8 4.8 16.8 4.8s3.6-4.4 4.1-7.8c.6-3.8-.3-6.2-2-9.7-1.5-3-5.4-6.8-5.4-6.8m-51.2-12.6 51.2 12.6m-23-314.8s-9.3 2.2-13.8 5.9c-4 3.1-5.5 5.7-7.8 10.2-3 5.5-3.7 9.1-4.5 15.3a82 82 0 0 0 0 12.7m22.7-45.4s-5.5.6-9 1.5c-5.2 1.4-8.4 2-12.7 5.3-4.5 3.2-6.4 6-9 11-2.4 4.7-3 7.9-3.5 13.2-.5 4.1 0 10.7 0 10.7m7.6 2.2s.6 4.3.6 7c0 2.8-.4 4.4-.8 7.2l-.7 4.4M203.3 396l-4.2 6.2c-2.8 3.6-5.6 4.8-7.7 8.8a24.8 24.8 0 0 0-3 12.3c-.3 5.8 2.3 8.8 2.9 14.6.4 4.4.6 6.9.4 11.3-.2 4.1-1.2 10.6-1.2 10.6m18-42s-2.8 5.3-3.6 9c-1.2 5.4.3 8.6.3 14.2 0 7.4 1.1 11.7-.4 19a37.5 37.5 0 0 1-6 14.9c-3.4 5.2-7.1 6.6-11.3 11.2-3 3.1-5.1 4.5-7.1 8.3-1 2-2.1 5.4-2.1 5.4m97-84.6s1.6 2.6 2.2 4.5c1.2 3.5 1.3 5.8.8 9.6-.5 4.2-2 6.4-4 10.2a93.6 93.6 0 0 1-5.4 8.6"/>
  <path fill="#02365E" d="M259.5 341.5c2.1.7 3.4 1.3 4.9 3 1.4 1.6 2.2 2.9 2.2 5l-.2 2 5 1s.5-3.2 1.7-4.6c1.6-1.9 3.2-2.4 5.6-2.6 1.8-.2 2.8 0 4.4.7a8 8 0 0 1 4 2.5c1.5 1.8 2 3.3 2 5.7 0 1.9-.5 3-1.4 4.6a9.5 9.5 0 0 1-2.6 3.6 7.5 7.5 0 0 1-3.7 1.8c-3 .6-5.1 0-7.3-1.9a8.2 8.2 0 0 1-3-5.3c-.3-1.8.2-4.6.2-4.6l-5-1s0 1.2-.2 2c-.6 2.7-2 4.2-4.4 5.5a8 8 0 0 1-6.5.7 8.4 8.4 0 0 1-5.5-4.2c-1.4-2.2-.9-4-1.4-6.4 0-2.4.6-4 2.3-5.7a7 7 0 0 1 4.7-2.4c1.7-.2 2.6.1 4.2.6Z"/>
  <path stroke="#02365E" stroke-linecap="round" stroke-linejoin="round" stroke-width="3.5" d="M248.3 349c.5 2.5 0 4.2 1.3 6.4 1.5 2.3 3 3.5 5.6 4.2a8 8 0 0 0 6.5-.7 7.8 7.8 0 0 0 4.4-5.5l.3-2m-18-2.4c-.1-2.4.5-4 2.2-5.7a7 7 0 0 1 4.7-2.4c1.7-.2 2.6.1 4.2.6 2.1.7 3.4 1.3 4.9 3 1.4 1.6 2.2 2.9 2.2 5l-.2 2m-18-2.5-5.1-2m23 4.5 5 1m0 0s.6-3.2 1.8-4.6c1.6-1.9 3.2-2.4 5.6-2.6 1.8-.2 2.8 0 4.4.7a8 8 0 0 1 4 2.5c1.5 1.8 2 3.3 2 5.7 0 1.9-.5 3-1.4 4.6a9.5 9.5 0 0 1-2.6 3.6 7.5 7.5 0 0 1-3.7 1.8c-3 .6-5.1 0-7.3-1.9a8.2 8.2 0 0 1-3-5.3c-.3-1.8.2-4.6.2-4.6Zm-2.7 8.5s.9 1.2 1 2.2c0 1.4-2 3-2 3m1.9 3.8s-1 .7-1.8.9c-1 .2-1.5.2-2.4 0-1.2-.1-1.8-.5-2.9-.9-1.3-.4-2-.7-3.3-1.3l-2.4-1.1-2.6-1s-.3 1-.3 1.7c.1 1.3.7 2 1.5 3 .5.7.9 1 1.6 1.6.7.5 1.1.8 2 1.1.6.4 1.7.7 1.7.7"/>
  <path stroke="#F2463A" stroke-linecap="round" stroke-linejoin="round" stroke-width="3.5" d="M269.5 370s-1 .7-1.8.9c-1 .2-1.5.2-2.4 0-1.2-.1-1.8-.5-2.9-.9-1.3-.4-2-.7-3.3-1.3l-2.4-1.1-2.6-1s-.3 1-.3 1.7c.1 1.3.7 2 1.5 3 .5.7.9 1 1.6 1.6.7.5 1.1.8 2 1.1.6.4 1.7.7 1.7.7"/>
  <circle cx="271.2" cy="666.5" r="9.5" fill="#02365E"/>
  <circle cx="237.2" cy="656.5" r="9.5" fill="#02365E"/>
  <circle cx="127.2" cy="650.5" r="9.5" fill="#02365E"/>
  <circle cx="104.2" cy="621.5" r="9.5" fill="#02365E"/>
  <circle cx="271.2" cy="666.5" r="3.5" fill="#FFD028"/>
  <circle cx="237.2" cy="656.5" r="3.5" fill="#FFD028"/>
  <circle cx="127.2" cy="650.5" r="3.5" fill="#FFD028"/>
  <circle cx="104.2" cy="621.5" r="3.5" fill="#FFD028"/>
</svg>