<svg width="542" height="376" viewBox="0 0 542 376" fill="none" xmlns="http://www.w3.org/2000/svg">
<path d="M537.928 13.4638V103.294C537.928 108.035 533.353 111.888 527.706 111.888H311.357C305.711 111.888 301.135 108.035 301.135 103.294V13.4638C301.135 8.71416 305.711 3.87305 311.357 3.87305H527.706C533.353 3.87305 537.928 8.71416 537.928 13.4638Z" fill="#3E447E" stroke="#1F244D" stroke-width="7"/>
<path d="M516.306 13.4638V103.294C516.306 108.035 511.73 111.888 506.084 111.888H289.734C284.088 111.888 279.512 108.035 279.512 103.294V13.4638C279.512 8.71416 284.088 3.87305 289.734 3.87305H506.084C511.73 3.87305 516.306 8.71416 516.306 13.4638Z" fill="#1F244D" stroke="#1F244D" stroke-width="7"/>
<path d="M516.306 14.0952V39.161H279.512V14.0952C279.512 11.3857 280.588 8.78705 282.503 6.87028C284.418 4.95352 287.016 3.87547 289.725 3.87305H506.084C508.793 3.87547 511.39 4.95196 513.306 6.86648C515.222 8.78101 516.301 11.3773 516.306 14.0861V14.0952Z" fill="#4B518C" stroke="#1F244D" stroke-width="7"/>
<path d="M292.497 28.3529C296.273 28.3529 299.333 25.2923 299.333 21.5168C299.333 17.7413 296.273 14.6807 292.497 14.6807C288.722 14.6807 285.661 17.7413 285.661 21.5168C285.661 25.2923 288.722 28.3529 292.497 28.3529Z" fill="white"/>
<path d="M318.702 24.1337C320.147 20.6456 318.49 16.6467 315.002 15.2018C311.514 13.757 307.515 15.4135 306.07 18.9016C304.625 22.3896 306.282 26.3885 309.77 27.8334C313.258 29.2782 317.257 27.6218 318.702 24.1337Z" fill="white"/>
<path d="M332.27 28.3529C336.045 28.3529 339.106 25.2923 339.106 21.5168C339.106 17.7413 336.045 14.6807 332.27 14.6807C328.494 14.6807 325.434 17.7413 325.434 21.5168C325.434 25.2923 328.494 28.3529 332.27 28.3529Z" fill="white"/>
<path d="M412.656 56.979H299.965V60.9599H412.656V56.979Z" fill="#FCB427"/>
<path d="M412.656 66.6797H299.965V70.6605H412.656V66.6797Z" fill="#E9E9E9"/>
<path d="M412.656 76.3711H299.965V80.3519H412.656V76.3711Z" fill="#E9E9E9"/>
<path d="M412.656 86.0625H299.965V90.0434H412.656V86.0625Z" fill="#E9E9E9"/>
<path d="M456.991 74.4789L446.166 70.0789C445.349 69.7478 445.348 69.4337 446.164 69.1367L457.046 65.1394C457.138 65.1049 457.22 65.0483 457.286 64.9743C457.352 64.9003 457.399 64.8111 457.424 64.7141C457.449 64.617 457.45 64.515 457.428 64.4164C457.406 64.3178 457.362 64.2256 457.298 64.1474L451.964 57.575C451.357 56.8229 451.526 56.4798 452.471 56.5457L463.111 57.2649C463.193 57.2712 463.276 57.2605 463.354 57.2335C463.431 57.2066 463.503 57.1639 463.563 57.108C463.624 57.0521 463.673 56.9842 463.706 56.9082C463.74 56.8323 463.759 56.75 463.761 56.666L464.071 44.8422C464.099 43.6535 464.47 43.5365 465.184 44.4912L471.357 52.7796C471.417 52.8592 471.493 52.9237 471.581 52.9681C471.669 53.0125 471.765 53.0354 471.863 53.0351C471.96 53.0347 472.056 53.0111 472.142 52.9662C472.227 52.9212 472.301 52.8561 472.358 52.7761L478.345 44.2628C479.035 43.2783 479.409 43.3952 479.469 44.6137L480.036 56.1302C480.041 56.2261 480.067 56.3201 480.112 56.4052C480.157 56.4902 480.22 56.5642 480.296 56.6215C480.372 56.6788 480.459 56.7181 480.551 56.7363C480.643 56.7545 480.738 56.7513 480.828 56.7268L492.331 53.6355C493.305 53.3727 493.541 53.6853 493.041 54.5734L487.3 64.6873C487.254 64.7673 487.226 64.857 487.219 64.9502C487.212 65.0433 487.225 65.1374 487.258 65.2258C487.29 65.3142 487.342 65.3946 487.409 65.4613C487.475 65.528 487.555 65.5793 487.643 65.6114L499.634 69.8693C500.683 70.239 500.699 70.6332 499.682 71.0519L487.912 75.8751C487.83 75.9093 487.756 75.9613 487.696 76.0277C487.635 76.0941 487.59 76.1732 487.563 76.2596C487.536 76.346 487.528 76.4377 487.539 76.5283C487.55 76.619 487.58 76.7065 487.627 76.7848L493.36 86.3556C493.874 87.2213 493.65 87.5347 492.69 87.2959L481.105 84.424C481.015 84.4023 480.922 84.4006 480.832 84.4191C480.743 84.4376 480.658 84.4759 480.586 84.5312C480.513 84.5865 480.454 84.6575 480.412 84.7391C480.37 84.8208 480.346 84.9111 480.343 85.0036L479.922 96.9347C479.888 97.9337 479.586 98.0193 479.019 97.1914L472.353 87.4472C472.295 87.3648 472.22 87.2967 472.132 87.2486C472.045 87.2006 471.949 87.1737 471.851 87.1704C471.753 87.167 471.656 87.1872 471.568 87.2293C471.48 87.2715 471.404 87.3343 471.346 87.4128L465.77 94.7891C465.104 95.6725 464.733 95.5534 464.659 94.4318L463.86 82.8135C463.848 82.6475 463.773 82.4917 463.652 82.3791C463.531 82.2666 463.373 82.2063 463.211 82.211L452.778 82.4977C451.843 82.5246 451.674 82.1763 452.272 81.4529L457.248 75.4787C457.311 75.4025 457.355 75.3116 457.376 75.2138C457.398 75.1159 457.396 75.0138 457.371 74.9161C457.346 74.8183 457.298 74.7276 457.232 74.6516C457.166 74.5755 457.083 74.5163 456.991 74.4789Z" fill="#FCB427"/>
<path d="M309.908 345.553L238.105 324.153C223.223 331.316 206.915 335.026 190.399 335.003C134.245 335.003 88.5613 293.178 88.5613 241.772C88.5613 190.365 134.245 148.54 190.399 148.54C246.553 148.54 292.237 190.358 292.237 241.772C292.237 267.719 280.324 292.626 259.519 310.24L309.908 345.553ZM237.99 322.604L238.263 322.682L301.847 341.644L257.174 310.326L257.891 309.723C278.811 292.353 290.809 267.575 290.809 241.757C290.809 191.14 245.771 149.96 190.406 149.96C135.041 149.96 90.0028 191.14 90.0028 241.757C90.0028 292.375 135.041 333.555 190.406 333.555C206.801 333.579 222.986 329.875 237.739 322.725L237.99 322.604Z" fill="white"/>
<path d="M440.707 86.3334V357.265C440.707 365.326 432.933 371.873 423.337 371.873H55.7392C46.1435 371.873 38.3694 365.326 38.3694 357.265V86.3334C38.3694 78.2581 46.1435 70.0322 55.7392 70.0322H423.337C432.933 70.0322 440.707 78.2581 440.707 86.3334Z" fill="#1F244D" stroke="black" stroke-width="7"/>
<path d="M406.409 86.3334V357.265C406.409 365.326 398.635 371.873 389.039 371.873H21.4411C11.8454 371.873 4.07129 365.326 4.07129 357.265V86.3334C4.07129 78.2581 11.8454 70.0322 21.4411 70.0322H389.039C398.635 70.0322 406.409 78.2581 406.409 86.3334Z" fill="#4B518C" stroke="#1F244D" stroke-width="7"/>
<path d="M406.409 86.3334V357.265C406.409 365.326 398.635 371.873 389.039 371.873H21.4411C11.8454 371.873 4.07129 365.326 4.07129 357.265V86.3334C4.07129 78.2581 11.8454 70.0322 21.4411 70.0322H389.039C398.635 70.0322 406.409 78.2581 406.409 86.3334Z" fill="#4B518C" stroke="#1F244D" stroke-width="7"/>
<path d="M406.409 87.402V129.994H4.07861V87.402C4.08051 82.7971 5.91016 78.3812 9.16566 75.1243C12.4212 71.8675 16.8363 70.036 21.4412 70.0322H389.039C393.644 70.0341 398.06 71.8638 401.317 75.1193C404.574 78.3748 406.405 82.7899 406.409 87.3948V87.402Z" fill="#8991DC" stroke="#1F244D" stroke-width="7"/>
<path d="M26.1383 111.628C32.5508 111.628 37.7492 106.429 37.7492 100.017C37.7492 93.6041 32.5508 88.4058 26.1383 88.4058C19.7257 88.4058 14.5273 93.6041 14.5273 100.017C14.5273 106.429 19.7257 111.628 26.1383 111.628Z" fill="white"/>
<path d="M59.9239 111.628C66.3365 111.628 71.5348 106.429 71.5348 100.017C71.5348 93.6041 66.3365 88.4058 59.9239 88.4058C53.5114 88.4058 48.313 93.6041 48.313 100.017C48.313 106.429 53.5114 111.628 59.9239 111.628Z" fill="white"/>
<path d="M93.7164 111.628C100.129 111.628 105.327 106.429 105.327 100.017C105.327 93.6041 100.129 88.4058 93.7164 88.4058C87.3039 88.4058 82.1055 93.6041 82.1055 100.017C82.1055 106.429 87.3039 111.628 93.7164 111.628Z" fill="white"/>
<path opacity="0.1" d="M276.938 57.6181C277.37 57.6181 277.72 57.2681 277.72 56.8364C277.72 56.4047 277.37 56.0547 276.938 56.0547C276.507 56.0547 276.157 56.4047 276.157 56.8364C276.157 57.2681 276.507 57.6181 276.938 57.6181Z" fill="black"/>
<path d="M374.351 200.506H236.182V205.519H374.351V200.506Z" fill="#F8F8F8"/>
<path d="M374.351 216.7H236.182V221.713H374.351V216.7Z" fill="#FCB427"/>
<path d="M374.351 232.893H236.182V237.906H374.351V232.893Z" fill="#F8F8F8"/>
<path d="M364.226 278.347H348.383V295.861H364.226V278.347Z" fill="#FCB427"/>
<path d="M338.709 278.347H322.866V295.861H338.709V278.347Z" fill="#F8F8F8"/>
<path d="M313.192 278.347H297.35V295.861H313.192V278.347Z" fill="#FCB427"/>
<path d="M287.666 278.347H271.824V295.861H287.666V278.347Z" fill="#FCB427"/>
<path d="M262.151 278.347H246.309V295.861H262.151V278.347Z" fill="#FCB427"/>
<path d="M374.351 249.08H236.182V254.093H374.351V249.08Z" fill="#F8F8F8"/>
<g filter="url(#filter0_i_324_171)">
<path d="M120.515 314.637C160.391 314.637 192.717 282.311 192.717 242.435C192.717 202.559 160.391 170.233 120.515 170.233C80.6389 170.233 48.313 202.559 48.313 242.435C48.313 282.311 80.6389 314.637 120.515 314.637Z" fill="#88C9F9"/>
</g>
<g filter="url(#filter1_d_324_171)">
<mask id="mask0_324_171" style="mask-type:alpha" maskUnits="userSpaceOnUse" x="48" y="170" width="145" height="145">
<path d="M120.515 314.637C160.391 314.637 192.717 282.311 192.717 242.435C192.717 202.559 160.391 170.233 120.515 170.233C80.6389 170.233 48.313 202.559 48.313 242.435C48.313 282.311 80.6389 314.637 120.515 314.637Z" fill="#88C9F9"/>
</mask>
<g mask="url(#mask0_324_171)">
<g filter="url(#filter2_d_324_171)">
<path fill-rule="evenodd" clip-rule="evenodd" d="M160.265 180.418C159.567 180.35 158.911 180.591 158.431 181.03C154.45 180.973 150.665 179.972 146.551 178.886C146.063 178.756 145.57 178.626 145.071 178.496C140.365 177.268 135.246 176.091 129.654 176.815C122.837 177.697 114.63 181.016 107.849 185.9C101.108 190.757 95.3538 197.476 94.194 205.362C93.4411 210.482 93.4304 215.55 94.7607 220.358C94.183 220.496 93.6558 220.849 93.3098 221.388C91.703 223.893 89.9881 226.336 88.2409 228.826L88.2249 228.848C86.4818 231.332 84.7066 233.862 83.0389 236.468C82.8904 236.7 82.4023 237.533 82.0004 238.277C81.8019 238.645 81.5835 239.066 81.4333 239.413C81.3798 239.536 81.2421 239.854 81.1762 240.209C81.1566 240.314 81.1289 240.496 81.1321 240.719C81.1349 240.909 81.1604 241.356 81.4233 241.842C81.7476 242.443 82.3464 242.93 83.1181 243.066C83.7457 243.177 84.2372 243.01 84.4425 242.928C85.8529 242.364 87.2486 241.514 88.4669 240.746C88.6931 240.603 88.9132 240.464 89.1278 240.328L89.1293 240.327C90.1396 239.686 91.0309 239.12 91.8892 238.679C93.806 237.693 95.7582 236.552 97.6188 235.464L97.8176 235.347C99.4046 234.42 100.919 233.538 102.355 232.778C104.157 234.438 106.068 235.794 107.97 237.145L108.298 237.378C111.296 239.508 114.675 240.74 117.974 241.633C119.626 242.08 121.293 242.451 122.9 242.801C123.107 242.846 123.314 242.891 123.519 242.935L123.519 242.936C124.269 243.098 125.003 243.257 125.725 243.421C125.867 243.657 126.021 243.863 126.168 244.04C126.581 244.537 127.065 244.945 127.449 245.248C127.648 245.405 127.848 245.555 128.022 245.686L128.024 245.688L128.025 245.688C128.206 245.824 128.356 245.937 128.496 246.047C128.635 246.156 128.737 246.242 128.813 246.313C128.864 246.36 128.892 246.389 128.903 246.402L128.908 246.407L128.909 246.407C130.326 248.245 130.997 250.287 131.821 252.923C131.884 253.125 131.947 253.328 132.011 253.531C133.462 258.181 134.965 262.997 137.278 267.621C145.084 283.233 163.219 288.941 178.79 288.941C179.708 288.941 180.505 288.421 180.902 287.659C181.653 287.784 182.423 287.538 182.964 287.004C183 286.996 183.043 286.988 183.093 286.979C183.581 286.894 184.3 286.857 185.174 286.864C186.026 286.871 186.917 286.918 187.72 286.966L188.106 286.99C188.725 287.028 189.336 287.065 189.73 287.065C190.685 287.065 191.449 286.668 191.976 286.269C192.499 285.873 192.917 285.381 193.244 284.925C193.897 284.014 194.444 282.885 194.877 281.863C195.321 280.816 195.7 279.752 195.988 278.916C196.064 278.697 196.127 278.51 196.185 278.341L196.303 277.995L196.326 277.928L196.354 277.847C196.404 277.706 196.443 277.595 196.474 277.511C196.486 277.481 196.494 277.458 196.5 277.442C196.507 277.426 196.511 277.416 196.513 277.412L196.514 277.408L196.511 277.415C196.896 276.578 197.287 275.736 197.681 274.888C199.646 270.663 201.676 266.296 203.26 261.83C205.841 254.557 205.681 247.274 205.515 240.21C205.289 230.618 204.38 220.37 198.792 211.523C194.815 205.226 189.687 199.088 183.884 194.289C183.23 193.748 182.542 193.168 181.824 192.563L181.824 192.562C179.294 190.429 176.402 187.989 173.363 185.9C169.46 183.216 165.003 180.876 160.265 180.418ZM85.7855 241.338L85.7891 241.329C85.7866 241.336 85.7845 241.342 85.7829 241.346C85.781 241.351 85.7799 241.353 85.7799 241.353C85.7799 241.353 85.7805 241.351 85.7821 241.347L85.7855 241.338Z" fill="#62BB5A"/>
<path fill-rule="evenodd" clip-rule="evenodd" d="M96.9554 283.699C96.5766 283.992 96.2824 284.402 96.1343 284.896C95.7567 286.154 96.4709 287.481 97.7296 287.858C101.082 288.864 104.703 289.316 108.075 289.736L108.076 289.736C109.448 289.907 110.778 290.073 112.032 290.269C112.245 290.302 112.467 290.338 112.697 290.375C114.275 290.628 116.193 290.935 117.975 290.935C118.523 290.935 119.24 290.873 119.922 290.524C120.732 290.11 121.232 289.433 121.467 288.707C121.658 288.118 121.656 287.546 121.652 287.257C121.648 287.005 121.643 286.89 121.638 286.79C121.634 286.684 121.63 286.596 121.63 286.383C121.63 283.793 120.828 281.323 119.997 279.171C119.697 278.394 119.402 277.677 119.122 276.994L119.121 276.993C118.569 275.648 118.073 274.442 117.706 273.192C117.31 271.84 116.856 270.492 116.42 269.196C116.287 268.798 116.155 268.406 116.026 268.02C115.469 266.342 114.966 264.734 114.603 263.112C114.577 262.997 114.552 262.872 114.522 262.713L114.516 262.684C114.488 262.542 114.455 262.368 114.417 262.198C114.35 261.89 114.214 261.307 113.906 260.77C113.549 260.149 112.741 259.263 111.375 259.266C110.323 259.268 109.514 259.833 109.061 260.198C105.093 263.404 103.606 269.064 103.293 273.284C103.007 277.147 100.795 280.833 97.4556 283.218C97.2614 283.357 97.0943 283.519 96.9554 283.699ZM110.374 265.82C109.015 267.937 108.246 270.842 108.039 273.636C107.743 277.629 106.008 281.349 103.371 284.277C104.945 284.546 106.548 284.745 108.21 284.951L108.211 284.951C109.677 285.133 111.189 285.321 112.766 285.568C113.006 285.605 113.244 285.643 113.478 285.68C114.673 285.87 115.805 286.05 116.867 286.131C116.818 284.535 116.307 282.826 115.558 280.886C115.341 280.323 115.093 279.719 114.836 279.093C114.232 277.62 113.577 276.021 113.14 274.531C112.772 273.278 112.36 272.052 111.931 270.776L111.93 270.773L111.926 270.761C111.924 270.756 111.923 270.752 111.921 270.747C111.786 270.344 111.648 269.935 111.51 269.52C111.114 268.326 110.719 267.091 110.374 265.82Z" fill="#62BB5A"/>
<path fill-rule="evenodd" clip-rule="evenodd" d="M44.5977 262.061C44.5669 261.814 44.575 261.572 44.6171 261.34C44.5923 261.202 44.5794 261.06 44.5794 260.915C44.5794 259.601 45.6446 258.536 46.9587 258.536C49.2953 258.536 51.769 258.633 54.2122 258.728L54.2136 258.728C55.7018 258.786 57.1787 258.844 58.6064 258.879C62.4822 258.975 66.2173 258.917 69.7084 258.354C70.4472 258.235 72.1412 258 73.775 258.054C74.5758 258.081 75.5383 258.18 76.4114 258.498C77.2598 258.807 78.5096 259.516 78.9268 261.045C80.2496 265.896 78.2792 270.705 75.6856 274.555C73.0502 278.467 69.4596 281.864 66.639 284.128C66.4098 284.312 66.1572 284.549 65.8044 284.883L65.778 284.908C65.4576 285.211 65.0603 285.588 64.6349 285.937C63.8048 286.618 62.4794 287.534 60.7555 287.534L60.5643 287.534C59.269 287.534 57.5512 287.536 55.899 287.231C54.1467 286.908 52.1625 286.192 50.6888 284.492C47.9017 281.276 46.6311 277.191 45.9202 273.276C45.4676 270.784 45.2084 268.088 44.9735 265.645C44.8497 264.358 44.7327 263.141 44.5977 262.061ZM70.4661 263.052C71.1136 262.947 72.4476 262.772 73.6173 262.81C73.9794 262.822 74.2624 262.854 74.4702 262.891C74.9613 265.602 73.8956 268.695 71.739 271.896C69.4649 275.272 66.2649 278.326 63.6604 280.417C63.2627 280.736 62.8755 281.103 62.5611 281.4L62.5321 281.428C62.1848 281.757 61.8997 282.026 61.6154 282.259C61.0026 282.762 60.7701 282.775 60.7555 282.775H60.7149C59.3098 282.775 57.9757 282.775 56.7611 282.551C55.5522 282.329 54.7693 281.934 54.2849 281.375C52.3223 279.111 51.2549 276.02 50.6022 272.426C50.1788 270.094 49.9629 267.818 49.7459 265.531C49.6765 264.799 49.6069 264.065 49.5303 263.328C50.9555 263.363 52.3927 263.419 53.8592 263.477C55.3653 263.537 56.9024 263.597 58.4893 263.637C62.4502 263.734 66.5351 263.686 70.4661 263.052Z" fill="#62BB5A"/>
<path d="M73.6173 262.81C72.4476 262.772 71.1136 262.947 70.4661 263.052C66.5351 263.686 62.4502 263.734 58.4893 263.637C56.9024 263.597 55.3653 263.537 53.8592 263.477C52.3927 263.419 50.9555 263.363 49.5303 263.328C49.6069 264.065 49.6765 264.799 49.7459 265.531C49.9629 267.818 50.1788 270.094 50.6022 272.426C51.2549 276.02 52.3223 279.111 54.2849 281.375C54.7693 281.934 55.5522 282.329 56.7611 282.551C57.9757 282.775 59.3098 282.775 60.7149 282.775H60.7555C60.7701 282.775 61.0026 282.762 61.6154 282.259C61.8997 282.026 62.1848 281.757 62.5321 281.428L62.5611 281.4C62.8755 281.103 63.2627 280.736 63.6604 280.417C66.2649 278.326 69.4649 275.272 71.739 271.896C73.8956 268.695 74.9613 265.602 74.4702 262.891C74.2624 262.854 73.9794 262.822 73.6173 262.81Z" fill="#62BB5A"/>
<path d="M108.039 273.636C108.246 270.842 109.015 267.937 110.374 265.82C110.719 267.091 111.114 268.326 111.51 269.52C111.648 269.935 111.786 270.344 111.921 270.747L111.926 270.761L111.93 270.773L111.931 270.776C112.36 272.052 112.772 273.278 113.14 274.531C113.577 276.021 114.232 277.62 114.836 279.093C115.093 279.719 115.341 280.323 115.558 280.886C116.307 282.826 116.818 284.535 116.867 286.131C115.805 286.05 114.673 285.87 113.478 285.68C113.244 285.643 113.006 285.605 112.766 285.568C111.189 285.321 109.677 285.133 108.211 284.951L108.21 284.951C106.548 284.745 104.945 284.546 103.371 284.277C106.008 281.349 107.743 277.629 108.039 273.636Z" fill="#62BB5A"/>
<path d="M60.5259 237.334C62.6735 237.528 67.0978 239.15 69.2526 239.15C68.2538 240.149 67.4395 241.303 66.4152 242.29C64.7023 243.94 62.68 245.387 61.1186 247.183C60.6726 247.696 60.1537 248.264 59.6179 247.422C58.8191 246.167 58.6708 244 58.3568 242.605C58.0561 241.269 57.7859 239.925 57.4614 238.595C57.3952 238.323 56.9124 237.212 56.9696 236.854C56.9717 236.841 60.3633 237.319 60.5259 237.334Z" fill="#62BB5A"/>
</g>
<g style="mix-blend-mode:plus-darker" filter="url(#filter3_f_324_171)">
<rect width="224.186" height="366.212" transform="matrix(0.933834 -0.357707 0.124825 0.992179 78.313 322.427)" fill="#D9D9D9"/>
</g>
<ellipse cx="116.232" cy="212.629" rx="4.32603" ry="4.32602" fill="white"/>
</g>
</g>
<defs>
<filter id="filter0_i_324_171" x="48.313" y="166.233" width="148.404" height="148.404" filterUnits="userSpaceOnUse" color-interpolation-filters="sRGB">
<feFlood flood-opacity="0" result="BackgroundImageFix"/>
<feBlend mode="normal" in="SourceGraphic" in2="BackgroundImageFix" result="shape"/>
<feColorMatrix in="SourceAlpha" type="matrix" values="0 0 0 0 0 0 0 0 0 0 0 0 0 0 0 0 0 0 127 0" result="hardAlpha"/>
<feOffset dx="17" dy="-17"/>
<feGaussianBlur stdDeviation="2"/>
<feComposite in2="hardAlpha" operator="arithmetic" k2="-1" k3="1"/>
<feColorMatrix type="matrix" values="0 0 0 0 0 0 0 0 0 0 0 0 0 0 0 0 0 0 0.25 0"/>
<feBlend mode="normal" in2="shape" result="effect1_innerShadow_324_171"/>
</filter>
<filter id="filter1_d_324_171" x="44.313" y="176.593" width="152.404" height="146.044" filterUnits="userSpaceOnUse" color-interpolation-filters="sRGB">
<feFlood flood-opacity="0" result="BackgroundImageFix"/>
<feColorMatrix in="SourceAlpha" type="matrix" values="0 0 0 0 0 0 0 0 0 0 0 0 0 0 0 0 0 0 127 0" result="hardAlpha"/>
<feOffset dy="4"/>
<feGaussianBlur stdDeviation="2"/>
<feComposite in2="hardAlpha" operator="out"/>
<feColorMatrix type="matrix" values="0 0 0 0 0 0 0 0 0 0 0 0 0 0 0 0 0 0 0.25 0"/>
<feBlend mode="normal" in2="BackgroundImageFix" result="effect1_dropShadow_324_171"/>
<feBlend mode="normal" in="SourceGraphic" in2="effect1_dropShadow_324_171" result="shape"/>
</filter>
<filter id="filter2_d_324_171" x="40.5791" y="176.593" width="169.017" height="122.343" filterUnits="userSpaceOnUse" color-interpolation-filters="sRGB">
<feFlood flood-opacity="0" result="BackgroundImageFix"/>
<feColorMatrix in="SourceAlpha" type="matrix" values="0 0 0 0 0 0 0 0 0 0 0 0 0 0 0 0 0 0 127 0" result="hardAlpha"/>
<feOffset dy="4"/>
<feGaussianBlur stdDeviation="2"/>
<feComposite in2="hardAlpha" operator="out"/>
<feColorMatrix type="matrix" values="0 0 0 0 0 0 0 0 0 0 0 0 0 0 0 0 0 0 0.25 0"/>
<feBlend mode="normal" in2="BackgroundImageFix" result="effect1_dropShadow_324_171"/>
<feBlend mode="normal" in="SourceGraphic" in2="effect1_dropShadow_324_171" result="shape"/>
</filter>
<filter id="filter3_f_324_171" x="28.313" y="192.233" width="355.065" height="543.541" filterUnits="userSpaceOnUse" color-interpolation-filters="sRGB">
<feFlood flood-opacity="0" result="BackgroundImageFix"/>
<feBlend mode="normal" in="SourceGraphic" in2="BackgroundImageFix" result="shape"/>
<feGaussianBlur stdDeviation="25" result="effect1_foregroundBlur_324_171"/>
</filter>
</defs>
</svg>
