<svg xmlns="http://www.w3.org/2000/svg" width="1271" height="1184" fill="none">
  <path fill="#E5E5E5" d="M0 0h1271v1184H0z"/>
  <g clip-path="url(#a)">
    <path fill="#2B99D6" d="M-84-2965h1440v5863H-84z"/>
    <path fill="url(#b)" d="M-84 4h1440v1476H-84z"/>
    <path stroke="#fff" stroke-opacity=".5" stroke-width="4" d="M636 1039V4m0 1035h-90m90 0h90M636 4h-90m90 0h90m270 0v1035M996 4h-90m90 0h90m-90 1035h-90m90 0h90M276 4v1035M276 4h-90m90 0h90m-90 1035h-90m90 0h90M96 4v1035M96 4H6m90 0h90M96 1039H6m90 0h90M456 4v1035M456 4h-90m90 0h90m-90 1035h-90m90 0h90M816 4v1035M816 4h-90m90 0h90m-90 1035h-90m90 0h90M1176 4v1035m0-1035h-90m90 0h90m-90 1035h-90m90 0h90M6 4h-90v88M6 4v1035m0 0h-90v-87M186 4v1035M366 4v1035M546 4v1035M726 4v1035M906 4v1035M1086 4v1035M1266 4h90v88m-90-88v1035m0 0h90v-90m0-427H-84m1440 0v86m0-86v-86M-84 522v-87m0 87v86m0 172h1440m-1440 0v-86m0 86v84m1440-84v84m0-84v-85m0-432H-84m1440 0v86m0-86v-83M-84 263v-86m0 86v86m1440 600v-85m0 85-1440 3m1440-88V695m0 169H-84m1440-169v-87m0 87-1440-1m1440-86V436m0 172H-84m1440-172v-87m0 87-1440-1m1440-86V180m0 169H-84m1440-169V92m0 88-1440-3m1440-85H-84m0 0v85m0 172v86m0 173v86m0 170v88"/>
    <path stroke="#fff" stroke-opacity=".5" stroke-width="4" d="M636 2073V1038m0 1035h-90m90 0h90m-90-1035h-90m90 0h90m270 0v1035m0-1035h-90m90 0h90m-90 1035h-90m90 0h90M276 1038v1035m0-1035h-90m90 0h90m-90 1035h-90m90 0h90M96 1038v1035m0-1035H6m90 0h90M96 2073H6m90 0h90m270-1035v1035m0-1035h-90m90 0h90m-90 1035h-90m90 0h90m270-1035v1035m0-1035h-90m90 0h90m-90 1035h-90m90 0h90m270-1035v1035m0-1035h-90m90 0h90m-90 1035h-90m90 0h90M6 1038h-90v88m90-88v1035m0 0h-90v-87m270-948v1035m180-1035v1035m180-1035v1035m180-1035v1035m180-1035v1035m180-1035v1035m180-1035h90v88m-90-88v1035m0 0h90v-90m0-427H-84m1440 0v86m0-86v-86m-1440 86v-87m0 87v86m0 172h1440m-1440 0v-86m0 86v84m1440-84v84m0-84v-85m0-432H-84m1440 0v86m0-86v-83m-1440 83v-86m0 86v86m1440 600v-85m0 85-1440 3m1440-88v-169m0 169H-84m1440-169v-87m0 87-1440-1m1440-86v-172m0 172H-84m1440-172v-87m0 87-1440-1m1440-86v-169m0 169H-84m1440-169v-88m0 88-1440-3m1440-85H-84m0 0v85m0 172v86m0 173v86m0 170v88"/>
    <path fill="#FED8AC" d="M-84-270h1440V4H-84z"/>
    <path stroke="#fff" stroke-opacity=".5" stroke-width="4" d="M1176-268h-90v93m90-93h90v93m-90-93v93m-270-93h-90v93m90-93h90v93m-90-93v93M1356 4h-90M-84-86V4H6m-90-90v-89H6m-90 89 90 1M6 4h90M6 4v-89M96 4h90M96 4v-89m90 89h90m-90 0v-90m90 90h90m-90 0v-89m90 89h90m-90 0v-179M456 4h90m-90 0v-90m90 90h90m-90 0v-90m90 90h90m-90 0v-90m90 90h90m-90 0v-88m90 88h90m-90 0v-90m90 90h90m-90 0v-88m90 88h90m-90 0v-90m90 90h90m-90 0v-87m90 87h90m-90 0v-87m90 87v-87M6-175v-93h90v93m-90 0v90m0-90h90M6-85h90m0 0v-90m0 90h180m-90-1v-89h90m-90 89 90 1m0 0v-90m0 90 450 1m-450-91h90m0 0v-93h90v93m-90 0h90m0 0h90m-90 0v89m90-89v-93h90v93m-90 0h90m-90 0v89m90-89v89m180-89h90m-90 0v89m90-89h90m-90 0v91m90-91h90m-90 0v89m90-89h90m-90 0v92m90-92h90m-90 0v92m90-92v92m0 0h-90m0 0h-90m0 0-90-3m90 3-180-1m0 0-90-2m90 2H726m0 0-90-2m-90 0h-90"/>
    <mask id="c" fill="#fff">
      <path d="M0 10C0 4 4 0 10 0h1251c6 0 10 4 10 10v1164c0 5-4 10-10 10H10c-6 0-10-5-10-10V10Z"/>
    </mask>
    <path fill="#C4C4C4" d="M0 10C0 4 4 0 10 0h1251c6 0 10 4 10 10v1164c0 5-4 10-10 10H10c-6 0-10-5-10-10V10Z"/>
    <path fill="#02365E" d="M0 57a2 2 0 0 0 0 4v-4Zm1271 4a2 2 0 0 0 0-4v4Zm-49-61a2 2 0 0 0-4 0h4Zm-53 0a2 2 0 1 0-4 0h4Zm-52 0a2 2 0 0 0-4 0h4ZM0 127a2 2 0 0 0 0 4v-4Zm1271 4a2 2 0 0 0 0-4v4Zm-147-86a2 2 0 1 0 0 4v-4Zm33 4a2 2 0 1 0 0-4v4Zm79-32a2 2 0 0 0-3 3l3-3Zm19 27a2 2 0 1 0 3-3l-3 3Zm3-24a2 2 0 0 0-3-3l3 3Zm-25 21v3h3l-3-3Zm-13 20h51v-4h-51v4Zm2-2V0h-4v59h4Zm-57-59v59h4V0h-4Zm-50 61h52v-4h-52v4Zm2-2V0h-4v59h4ZM276 85v21h4V85h-4Zm12 33h883v-4H288v4Zm895-12V85h-4v21h4Zm-12-33H288v4h883v-4Zm-4-12h27v-4h-27v4Zm27 0h26v-4h-26v4Zm0 70h77v-4h-77v4Zm-2-72v70h4V59h-4ZM0 61h205v-4H0v4Zm205 0h910v-4H205v4ZM0 131h205v-4H0v4Zm205 0h989v-4H205v4Zm-2-72v70h4V59h-4ZM29 156h1181v-4H29v4Zm1189 8v982h4V164h-4Zm-8 990H29v4h1181v-4Zm-1189-8V164h-4v982h4Zm1221 12h4v-4h-4v4Zm4-1006h-4v4h4v-4Zm12 287V230h-4v209h4Zm-28-209v209h4V230h-4ZM1124 49h33v-4h-33v4Zm109-29 11 12 3-3-11-12-3 3Zm11 12 11 12 3-3-11-12-3 3Zm3 0 11-12-3-3-11 12 3 3Zm-60 17h12v-4h-12v4Zm17-36h-23v4h23v-4Zm-29 11v13h4V24h-4Zm36 13V24h-4v13h4Zm-34-11h32v-4h-32v4Zm34-2v-5h-4v5h4Zm-36-5v5h4v-5h-4Zm34-2h-32v4h32v-4Zm35 12-11 12 3 3 11-12-3-3Zm-14 135v20h4v-20h-4Zm0 20v46h4v-46h-4Zm28 46v-46h-4v46h4Zm0-46v-20h-4v20h4Zm-26 2h24v-4h-24v4Zm-2 253v686h4V439h-4Zm0 686v21h4v-21h-4Zm28 21v-21h-4v21h4Zm0-21V439h-4v686h4Zm-26 2h24v-4h-24v4Zm10-897v209h4V230h-4Zm10 209V230h-4v209h4Zm-16-209v209h4V230h-4Zm-4 211h3v-4h-3v4Zm3 0h3v-4h-3v4Zm3-213h-3v4h3v-4Zm-3 0h-3v4h3v-4Zm2 211V230h-4v209h4Zm7-211h-3v4h3v-4Zm-3 0h-3v4h3v-4Zm-3 213h3v-4h-3v4Zm3 0h3v-4h-3v4Zm-2-211v209h4V230h-4Zm5 211h3v-4h-3v4Zm3 0h3v-4h-3v4Zm3-213h-3v4h3v-4Zm-3 0h-3v4h3v-4Zm2 211V230h-4v209h4Zm7-211h-3v4h3v-4Zm-3 0h-3v4h3v-4Zm-3 213h3v-4h-3v4Zm3 0h3v-4h-3v4Zm-2-211v209h4V230h-4Zm-47-213c2 0 3 1 3 2h4c0-3-3-6-7-6v4Zm-5 32c7 0 12-6 12-12h-4c0 4-4 8-8 8v4Zm-12-4c-5 0-8-4-8-8h-4c0 6 5 12 12 12v-4Zm-6-32c-4 0-6 3-6 6h4l2-2v-4Zm65 143c5 0 8 3 8 8h4c0-7-5-12-12-12v4Zm0 1002c7 0 12-5 12-12h-4c0 4-3 8-8 8v4Zm-4-4c-4 0-8-4-8-8h-4c0 7 5 12 12 12v-4ZM1183 85c0-7-6-12-12-12v4c4 0 8 4 8 8h4Zm-12 33c6 0 12-6 12-12h-4c0 4-4 8-8 8v4Zm-895-12c0 6 6 12 12 12v-4c-4 0-8-4-8-8h-4Zm4-21c0-4 4-8 8-8v-4c-6 0-12 5-12 12h4Zm962 67c-7 0-12 5-12 12h4c0-5 4-8 8-8v-4Zm-24 994c0 4-3 8-8 8v4c7 0 12-5 12-12h-4Zm-1189 8c-4 0-8-4-8-8h-4c0 7 6 12 12 12v-4Zm1181-998c5 0 8 3 8 8h4c0-7-5-12-12-12v4ZM29 152c-6 0-12 5-12 12h4c0-5 4-8 8-8v-4Zm1232 1028H10v8h1251v-8ZM4 59V10h-8v49h8Zm1263-49v49h8V10h-8Zm-47-6h41v-8h-41v8Zm-53 0h53v-8h-53v8ZM10 4h1105v-8H10v8Zm1105 0h52v-8h-52v8ZM4 1174V129h-8v1045h8ZM4 129V59h-8v70h8Zm1263-70v70h8V59h-8Zm0 70v1045h8V129h-8ZM10 1180c-3 0-6-3-6-6h-8c0 8 6 14 14 14v-8ZM1275 10c0-8-6-14-14-14v8c3 0 6 3 6 6h8Zm-14 1178c8 0 14-6 14-14h-8c0 3-3 6-6 6v8ZM4 10c0-3 3-6 6-6v-8C2-4-4 2-4 10h8Z" mask="url(#c)"/>
    <path fill="#02365E" d="M1243 162h3l6 12c1 1 0 3-2 3h-12c-1 0-2-2-1-3l6-12Zm0 988h3l6-12c1-1 0-3-2-3h-12c-1 0-2 2-1 3l6 12Z"/>
    <path stroke="#02365E" stroke-linecap="round" stroke-linejoin="round" stroke-width="4" d="M236 80c5 2 9 7 9 14 0 8-5 14-11 15m2-29 2 6m-2-6 5-2m-13 31c-6-2-10-8-10-15s5-14 12-15m-2 30-1-6m1 6-5 2"/>
    <mask id="d" fill="#fff">
      <path d="M0 10v49h1115V0H10C4 0 0 4 0 10Zm1181 5h23c3 0 5 2 5 4v5h-32v-5c0-2 2-4 4-4Z"/>
    </mask>
    <path fill="#006EAD" d="M0 10v49h1115V0H10C4 0 0 4 0 10Zm1181 5h23c3 0 5 2 5 4v5h-32v-5c0-2 2-4 4-4Z"/>
    <path fill="#02365E" d="M1269 10v49h4V10h-4Zm-49-8h41v-4h-41v4Zm-53 0h53v-4h-53v4Zm-52 59h52v-4h-52v4Zm0-59h52v-4h-52v4ZM2 895V129h-4v766h4Zm0-766V59h-4v70h4Zm1267-70v70h4V59h-4Zm-102 2h27v-4h-27v4Zm27 0h26v-4h-26v4Zm-70-12h33v-4h-33v4Zm107-33 13 16 3-3-13-15-3 2Zm13 16 14 16 3-3-14-16-3 3Zm3 0 14-16-3-2-14 15 3 3Zm-3-3-13 16 3 3 13-16-3-3Zm-69-5v23h4V24h-4Zm36 23V24h-4v23h4Zm-2-30h-32v4h32v-4Zm64-7c0-7-5-12-12-12v4c4 0 8 4 8 8h4ZM0 59h-4v4h4v-4Zm1115 0v4h4v-4h-4Zm0-59h4v-4h-4v4Zm62 24h-4v4h4v-4Zm32 0v4h4v-4h-4ZM4 59V10h-8v49h8Zm6-55h1105v-8H10v8Zm1109 55V0h-8v59h8ZM0 63h205v-8H0v8Zm205 0h910v-8H205v8Zm999-52h-23v8h23v-8Zm-27 17h32v-8h-32v8Zm36-4v-5h-8v5h8Zm-40-5v5h8v-5h-8Zm8-8c-5 0-8 4-8 8h8v-8Zm23 8h9c0-4-4-8-9-8v8ZM4 10c0-3 3-6 6-6v-8C2-4-4 2-4 10h8Z" mask="url(#d)"/>
    <mask id="e" width="1210" height="1086" x="15" y="71" fill="#000" maskUnits="userSpaceOnUse">
      <path fill="#fff" d="M15 71h1210v1086H15z"/>
      <path d="M263 105V85c0-6 5-10 10-10h898c5 0 10 4 10 10v20c0 6-5 10-10 10H273c-5 0-10-4-10-10Zm948 49H29c-5 0-10 4-10 10v979c0 5 5 10 10 10h1182c5 0 10-5 10-10V164c0-6-5-10-10-10Z"/>
    </mask>
    <path fill="#fff" d="M263 105V85c0-6 5-10 10-10h898c5 0 10 4 10 10v20c0 6-5 10-10 10H273c-5 0-10-4-10-10Zm948 49H29c-5 0-10 4-10 10v979c0 5 5 10 10 10h1182c5 0 10-5 10-10V164c0-6-5-10-10-10Z"/>
    <path stroke="#02365E" stroke-width="8" d="M263 105V85c0-6 5-10 10-10h898c5 0 10 4 10 10v20c0 6-5 10-10 10H273c-5 0-10-4-10-10Zm948 49H29c-5 0-10 4-10 10v979c0 5 5 10 10 10h1182c5 0 10-5 10-10V164c0-6-5-10-10-10Z" mask="url(#e)"/>
    <path fill="#02365E" fill-rule="evenodd" d="m94 113 23-19-23-19v10H72v17h22v11Zm-61 0L10 94l23-19v10h22v17H33v11Zm130-41 19 18v26h-12V97h-8v19h-17V90l18-18Z" clip-rule="evenodd"/>
    <rect width="50.5" height="34" x="1206" y="83" fill="#02365E" rx="1"/>
    <path fill="#02365E" d="M1208 74h17l2 4-1 2h-19v-2l1-4Z"/>
  </g>
  <defs>
    <linearGradient id="b" x1="636" x2="636" y1="4" y2="2036.8" gradientUnits="userSpaceOnUse">
      <stop stop-color="#FED9AF"/>
      <stop offset="1" stop-color="#FFB260"/>
    </linearGradient>
    <clipPath id="a">
      <path fill="#fff" d="M0 0h1440v5863H0z" transform="translate(-84 -2965)"/>
    </clipPath>
  </defs>
</svg>