<svg width="1271" height="1185" viewBox="0 0 1271 1185" fill="none" xmlns="http://www.w3.org/2000/svg">
<path d="M2 10.873C2 6.45476 5.58172 2.87305 10 2.87305H1115.08H1167.05H1220.21H1261C1265.42 2.87305 1269 6.45477 1269 10.873V60.3585V130.189V1174.68C1269 1179.09 1265.42 1182.68 1261 1182.68H9.99999C5.58172 1182.68 2 1179.09 2 1174.68V130.189V60.3585V10.873Z" fill="#C4C4C4" stroke="#1C1C1C" stroke-width="4" stroke-linecap="round" stroke-linejoin="round"/>
<path d="M1242.55 163.342C1243.3 161.92 1245.34 161.92 1246.09 163.342L1251.99 174.521C1252.69 175.853 1251.72 177.455 1250.22 177.455H1238.42C1236.91 177.455 1235.95 175.853 1236.65 174.521L1242.55 163.342Z" fill="#1C1C1C"/>
<path d="M1242.53 1150.73C1243.27 1152.2 1245.37 1152.2 1246.11 1150.73L1252.09 1138.77C1252.75 1137.44 1251.79 1135.87 1250.3 1135.87H1238.34C1236.85 1135.87 1235.88 1137.44 1236.55 1138.77L1242.53 1150.73Z" fill="#1C1C1C"/>
<path d="M235.658 80.7493C241.324 82.5587 245.468 88.3409 245.468 95.1941C245.468 102.832 240.321 109.139 233.656 110.1M235.658 80.7493L237.922 86.8428M235.658 80.7493L240.94 78.4915M228.112 109.639C222.445 107.83 218.302 102.047 218.302 95.1941C218.302 87.5565 223.448 81.2492 230.113 80.2884M228.112 109.639L226.602 103.963M228.112 109.639L222.829 111.479" stroke="#1C1C1C" stroke-width="4" stroke-linecap="round" stroke-linejoin="round"/>
<path d="M204.943 58.3374H2V10.8731C2 6.45477 5.58172 2.87305 10 2.87305H1113.08V58.3374H204.943ZM1181.03 17.7391H1204.46C1205.86 17.7391 1206.99 18.8694 1206.99 20.2636V22.7881H1178.5V20.2636C1178.5 18.8694 1179.63 17.7391 1181.03 17.7391Z" fill="#FCB427" stroke="#1C1C1C" stroke-width="4"/>
<path d="M261.414 85.5806V106.313C261.414 112.941 266.787 118.313 273.414 118.313H1170.96C1177.59 118.313 1182.96 112.941 1182.96 106.313V85.5806C1182.96 78.9532 1177.59 73.5806 1170.96 73.5806H273.414C266.787 73.5806 261.414 78.9532 261.414 85.5806ZM1210.55 152.46H29.4045C22.7771 152.46 17.4045 157.832 17.4045 164.46L17.4041 1143.37C17.4041 1150 22.7766 1155.37 29.4041 1155.37H619.976H1210.55C1217.18 1155.37 1222.55 1150 1222.55 1143.37L1222.55 164.46C1222.55 157.832 1217.18 152.46 1210.55 152.46Z" fill="white" stroke="#1C1C1C" stroke-width="4"/>
<path fill-rule="evenodd" clip-rule="evenodd" d="M93.5134 113.913L116.555 94.8816L93.5134 75.8499V85.8327H71.6533V102.638H93.5134V113.913Z" fill="#1C1C1C"/>
<path fill-rule="evenodd" clip-rule="evenodd" d="M33.2507 113.913L10.2091 94.8816L33.2507 75.8499V85.8327H55.1108V102.638H33.2507V113.913Z" fill="#1C1C1C"/>
<path fill-rule="evenodd" clip-rule="evenodd" d="M163.229 73.2644L181.544 91.0744H181.544V91.0748L181.545 91.075H181.544V117.234H169.843V98.3105H161.703V117.234H144.914V91.0744H144.915L163.229 73.2644Z" fill="#1C1C1C"/>
<rect x="1205.99" y="83.3425" width="50.4519" height="33.958" rx="1" fill="#1C1C1C"/>
<path d="M1208.11 75.2331C1208.27 74.8565 1208.63 74.6104 1209.04 74.6104H1224.29C1224.7 74.6104 1225.07 74.8565 1225.22 75.2331L1226.78 79.0544C1227.05 79.7121 1226.56 80.4317 1225.85 80.4317H1207.48C1206.77 80.4317 1206.29 79.7121 1206.55 79.0544L1208.11 75.2331Z" fill="#1C1C1C"/>
</svg>
