<svg width="1011" height="718" viewBox="0 0 1011 718" fill="none" xmlns="http://www.w3.org/2000/svg">
<path d="M106.073 457.687L3.13379 341.867H196.145H288.362H483.517H494.24H645.075H662.232H870.97H1007.51L951.034 359.467L946.03 365.145L875.974 359.467L854.528 365.145L827.363 369.119V375.932L791.621 395.803L774.464 411.132L750.159 428.732H741.581L726.569 451.442H715.131L710.28 463.932L710.842 469.61L637.212 517.868L627.204 529.833L569.3 599.056L527.839 619.873L507.108 630.282L464.675 616.656L384.152 715.444L343.406 676.269L276.924 630.282V583.159L264.056 547.391H244.755L224.739 500.268L217.591 517.868L173.985 510.488L130.378 463.932L106.073 457.687Z" fill="#91685A"/>
<path d="M224.739 500.268L217.591 517.868L173.985 510.488L130.378 463.932L106.073 457.687L3.13379 341.867H196.145M224.739 500.268L218.708 469.61M224.739 500.268L244.755 547.391M146.82 415.106L217.591 463.932L218.708 469.61M146.82 415.106L106.073 367.983M146.82 415.106L218.708 469.61M244.755 547.391H264.056M244.755 547.391L224.739 391.829M264.056 547.391L276.924 583.159V630.282L343.406 676.269L384.152 715.444L464.675 616.656M264.056 547.391L282.643 454.848M464.675 616.656L472.08 607.572L449.204 517.868L382.723 474.152V447.468L362.707 425.326M464.675 616.656L507.108 630.282M507.108 630.282L527.839 619.873M507.108 630.282L519.26 607.572M637.212 517.868L710.842 469.61L710.28 463.932M637.212 517.868L662.232 457.687L645.075 387.287L662.232 341.867M637.212 517.868L627.204 529.833M710.28 463.932L705.838 419.081L715.131 391.829V365.145L718.705 369.119L722.28 428.732L715.131 451.442M710.28 463.932L715.131 451.442M715.131 451.442H726.569L741.581 428.732H750.159M715.131 451.442L729.428 428.732L750.159 361.738M750.159 428.732L774.464 411.132L791.621 395.803M750.159 428.732V415.674L783.042 373.093M791.621 395.803L827.363 375.932V369.119M791.621 395.803L783.042 373.093M827.363 369.119L854.528 365.145L875.974 359.467L946.03 365.145L951.034 359.467L1007.51 341.867H870.97M827.363 369.119L800.199 359.467M783.042 373.093L800.199 359.467M800.199 359.467L870.97 341.867M870.97 341.867H662.232M662.232 341.867H645.075M645.075 341.867L618.625 373.093L605.043 500.268M645.075 341.867H494.24M605.043 500.268L627.204 529.833M605.043 500.268V521.842L572.875 564.423L569.3 553.068M627.204 529.833L569.3 599.056L527.839 619.873M569.3 553.068L572.875 432.139H560.007L547.14 406.022L534.987 442.926L539.991 503.675M569.3 553.068L563.581 583.159M563.581 583.159L527.839 619.873M563.581 583.159L560.007 556.475L552.859 553.068L539.991 503.675M527.839 619.873L519.26 607.572M519.26 607.572L534.987 573.507L539.991 503.675M196.145 341.867L224.739 391.829M196.145 341.867H288.362M224.739 391.829L244.755 369.119L256.193 415.674L282.643 454.848M282.643 454.848L311.952 378.771L288.362 341.867M288.362 341.867H483.517M494.24 341.867L513.541 391.829L483.517 400.913L449.204 474.152L459.212 373.093L483.517 341.867M494.24 341.867H483.517" stroke="#02365E" stroke-width="5" stroke-linejoin="round"/>
<path d="M146.82 415.106L217.591 463.932L218.708 469.61L224.739 500.268L244.755 547.391L224.739 391.829L244.755 369.119L256.193 415.674L282.643 454.848L264.056 547.391L276.924 583.159V630.282L343.406 676.269L382.723 583.159L347.695 504.81L362.707 425.326L382.723 447.468V474.152L449.204 517.868L472.08 607.572L464.675 616.656L507.108 630.282L519.26 607.572L534.987 573.507L539.991 503.675L534.987 442.926L547.14 406.022L560.007 432.139H572.875L569.3 553.068L572.875 564.423L605.043 521.842V500.268L618.625 373.093L645.075 341.867H494.24L513.541 391.829L483.517 400.913L449.204 474.152L459.212 373.093L483.517 341.867H494.24H645.075H662.232L645.075 387.287L662.232 457.687L637.212 517.868L710.842 469.61L710.28 463.932L705.838 419.081L715.131 391.829V365.145L718.705 369.119L722.28 428.732L715.131 451.442H726.569L741.581 428.732H750.159V415.674L783.042 373.093L800.199 359.467L870.97 341.867H1007.51L951.034 363.442L946.03 369.119L875.974 363.442L854.528 369.119L827.363 373.093V375.932L791.621 395.803L774.464 411.132L750.159 428.732H741.581L726.569 451.442H715.131L710.28 463.932L710.842 469.61L637.212 517.868L627.204 529.833L569.3 599.056L527.839 619.873L507.108 630.282L464.675 616.656L384.152 715.444L343.406 676.269L276.924 630.282V583.159L264.056 547.391H244.755L224.739 500.268L218.708 469.61L146.82 415.106Z" fill="#30262D"/>
<path d="M3.13379 341.867L106.073 457.687L130.378 463.932L173.985 510.488L217.591 517.868L224.739 500.268M224.739 500.268L218.708 469.61M224.739 500.268L244.755 547.391M146.82 415.106L217.591 463.932L218.708 469.61M146.82 415.106L106.073 367.983M146.82 415.106L218.708 469.61M244.755 547.391H264.056M244.755 547.391L224.739 391.829M264.056 547.391L276.924 583.159V630.282L343.406 676.269M264.056 547.391L282.643 454.848M343.406 676.269L384.152 715.444L464.675 616.656M343.406 676.269L382.723 583.159L347.695 504.81L362.707 425.326L382.723 447.468V474.152L449.204 517.868L472.08 607.572L464.675 616.656M464.675 616.656L507.108 630.282M507.108 630.282L527.839 619.873M507.108 630.282L519.26 607.572M637.212 517.868L710.842 469.61L710.28 463.932M637.212 517.868L662.232 457.687L645.075 387.287L662.232 341.867H645.075M637.212 517.868L627.204 529.833M710.28 463.932L705.838 419.081L715.131 391.829V365.145L718.705 369.119L722.28 428.732L715.131 451.442M710.28 463.932L715.131 451.442M715.131 451.442H726.569L741.581 428.732H750.159M715.131 451.442L729.428 428.732L750.159 361.738M750.159 428.732L774.464 411.132L791.621 395.803M750.159 428.732V415.674L783.042 373.093M791.621 395.803L827.363 375.932V373.093M791.621 395.803L783.042 373.093M827.363 373.093L854.528 369.119L875.974 363.442L946.03 369.119L951.034 363.442L1007.51 341.867H870.97L800.199 359.467M827.363 373.093L800.199 359.467M783.042 373.093L800.199 359.467M645.075 341.867L618.625 373.093L605.043 500.268M645.075 341.867H494.24M605.043 500.268L627.204 529.833M605.043 500.268V521.842L572.875 564.423L569.3 553.068M627.204 529.833L569.3 599.056L527.839 619.873M569.3 553.068L572.875 432.139H560.007L547.14 406.022L534.987 442.926L539.991 503.675M569.3 553.068L563.581 583.159M563.581 583.159L527.839 619.873M563.581 583.159L560.007 556.475L552.859 553.068L539.991 503.675M527.839 619.873L519.26 607.572M519.26 607.572L534.987 573.507L539.991 503.675M196.145 341.867L224.739 391.829M224.739 391.829L244.755 369.119L256.193 415.674L282.643 454.848M282.643 454.848L311.952 378.771L288.362 341.867M494.24 341.867L513.541 391.829L483.517 400.913L449.204 474.152L459.212 373.093L483.517 341.867H494.24Z" stroke="#02365E" stroke-width="5" stroke-linecap="round" stroke-linejoin="round"/>
<path d="M146.82 415.106L217.591 463.932L218.708 469.61L224.739 500.268L244.755 547.391H264.056L276.924 583.159V630.282L343.406 676.269L384.152 715.444L464.675 616.656L507.108 630.282L519.26 607.572L534.987 573.507L539.991 503.675L534.987 442.926L547.14 406.022L560.007 432.139H572.875L569.3 553.068L572.875 564.423L605.043 521.842V500.268L618.625 373.093L645.075 341.867H494.24L513.541 391.829L483.517 400.913L449.204 474.152L459.212 373.093L483.517 341.867H494.24H645.075H662.232L645.075 387.287L662.232 457.687L637.212 517.868L710.842 469.61L710.28 463.932L705.838 419.081L715.131 391.829V365.145L718.705 369.119L722.28 428.732L715.131 451.442L729.428 428.732L756.022 341.867H870.97L800.199 359.467L783.042 373.093L750.159 415.674V428.732H741.581L726.569 451.442H715.131L710.28 463.932L710.842 469.61L637.212 517.868L627.204 529.833L605.043 500.268V521.842L572.875 564.423L569.3 553.068L563.581 583.159L560.007 556.475L552.859 553.068L539.991 503.675L534.987 573.507L519.26 607.572L507.108 630.282L464.675 616.656L384.152 715.444L343.406 676.269L276.924 630.282V583.159L264.056 547.391H244.755L224.739 500.268L218.708 469.61L146.82 415.106Z" fill="#BE8973"/>
<path d="M3.13379 341.867L106.073 457.687L130.378 463.932L173.985 510.488L217.591 517.868L224.739 500.268M224.739 500.268L218.708 469.61M224.739 500.268L244.755 547.391M146.82 415.106L217.591 463.932L218.708 469.61M146.82 415.106L106.073 367.983M146.82 415.106L218.708 469.61M244.755 547.391H264.056M244.755 547.391L224.739 391.829L196.145 341.867M264.056 547.391L276.924 583.159V630.282L343.406 676.269M264.056 547.391L282.643 454.848L311.952 378.771L288.362 341.867M343.406 676.269L384.152 715.444L464.675 616.656M343.406 676.269L382.723 583.159L347.695 504.81M464.675 616.656L472.08 607.572L449.204 517.868L382.723 474.152V447.468M464.675 616.656L507.108 630.282L519.26 607.572M569.3 599.056L527.839 619.873L519.26 607.572M637.212 517.868L710.842 469.61L710.28 463.932M637.212 517.868L662.232 457.687L645.075 387.287L662.232 341.867H645.075M637.212 517.868L627.204 529.833L605.043 500.268M710.28 463.932L705.838 419.081L715.131 391.829V365.145L718.705 369.119L722.28 428.732L715.131 451.442M710.28 463.932L715.131 451.442M715.131 451.442H726.569L741.581 428.732H750.159V415.674L783.042 373.093M715.131 451.442L729.428 428.732L756.022 341.867H870.97L800.199 359.467M791.621 395.803L783.042 373.093M827.363 375.932V373.093M827.363 373.093L854.528 369.119L875.974 363.442M827.363 373.093L800.199 359.467M783.042 373.093L800.199 359.467M645.075 341.867L618.625 373.093L605.043 500.268M645.075 341.867H494.24M605.043 500.268V521.842L572.875 564.423L569.3 553.068M569.3 553.068L572.875 432.139H560.007L547.14 406.022L534.987 442.926L539.991 503.675M569.3 553.068L563.581 583.159L560.007 556.475L552.859 553.068L539.991 503.675M519.26 607.572L534.987 573.507L539.991 503.675M494.24 341.867L513.541 391.829L483.517 400.913L449.204 474.152L459.212 373.093L483.517 341.867H494.24Z" stroke="#02365E" stroke-width="5" stroke-linecap="round" stroke-linejoin="round"/>
<path d="M7.94988 340C8.78949 339.864 9.70835 339.728 10.7072 339.591C17.4128 338.671 27.359 337.776 40.2319 336.92C65.9592 335.21 103.181 333.669 149.107 332.373C240.949 329.782 367.504 328.18 506.32 328.18C645.136 328.18 770.8 329.782 861.75 332.373C907.23 333.668 944.005 335.21 969.397 336.92C982.103 337.776 991.909 338.671 998.515 339.59C999.502 339.727 1000.41 339.864 1001.24 340C1000.41 340.136 999.502 340.273 998.515 340.41C991.909 341.33 982.103 342.224 969.397 343.08C944.005 344.79 907.23 346.332 861.75 347.627C770.8 350.218 645.136 351.821 506.32 351.821C367.504 351.821 240.949 350.218 149.107 347.627C103.181 346.332 65.9592 344.79 40.2319 343.08C27.359 342.224 17.4128 341.329 10.7072 340.409C9.70835 340.272 8.78949 340.136 7.94988 340Z" fill="#54CD63" stroke="#02365E" stroke-width="5"/>
<path fill-rule="evenodd" clip-rule="evenodd" d="M189.232 265.884C188.865 266.27 188.865 266.876 189.232 267.262L199.674 278.247C200.068 278.662 200.729 278.662 201.123 278.247L211.963 266.844C212.568 266.207 212.117 265.155 211.238 265.155H190.355C190.081 265.155 189.819 265.267 189.631 265.465L189.232 265.884ZM195.61 284.048C195.977 283.662 195.977 283.056 195.61 282.67L187.712 274.361C187.084 273.7 185.979 274.157 186.016 275.068C186.225 280.202 186.767 285.244 187.619 290.171C187.758 290.974 188.749 291.266 189.31 290.676L195.61 284.048ZM199.674 288.47C200.068 288.056 200.729 288.056 201.123 288.47L209.909 297.713C210.514 298.35 210.063 299.402 209.184 299.402H189.772C189.676 299.402 189.592 299.338 189.568 299.245C189.55 299.175 189.57 299.1 189.62 299.048L199.674 288.47ZM218.845 296.892C218.451 297.307 217.79 297.307 217.395 296.892L205.187 284.048C204.82 283.662 204.82 283.056 205.187 282.67L217.05 270.189C217.445 269.774 218.106 269.774 218.5 270.189L230.708 283.033C231.075 283.419 231.075 284.025 230.708 284.411L218.845 296.892ZM218.845 307.115C218.451 306.7 217.79 306.7 217.395 307.115L205.93 319.178C205.563 319.564 205.563 320.17 205.93 320.556L218.193 333.458C218.587 333.872 219.249 333.872 219.643 333.458L231.108 321.395C231.475 321.009 231.475 320.403 231.108 320.017L218.845 307.115ZM209.151 307.091C209.756 306.454 209.305 305.402 208.426 305.402H193.857C192.978 305.402 192.526 306.454 193.132 307.091L200.416 314.755C200.811 315.17 201.472 315.17 201.866 314.755L209.151 307.091ZM200.292 326.091C200.087 325.722 200.147 325.262 200.438 324.956C200.82 324.553 201.462 324.553 201.845 324.956L210.053 333.591C210.659 334.228 210.207 335.28 209.328 335.28H206.544C206.216 335.28 205.909 335.12 205.723 334.849C203.787 332.027 201.974 329.105 200.292 326.091ZM236.622 315.594C236.228 316.009 235.566 316.009 235.172 315.594L227.09 307.091C226.484 306.454 226.936 305.402 227.815 305.402H243.979C244.858 305.402 245.309 306.454 244.704 307.091L236.622 315.594ZM236.622 325.817C236.228 325.403 235.566 325.403 235.172 325.817L227.783 333.591C227.177 334.228 227.629 335.28 228.508 335.28H243.286C244.165 335.28 244.616 334.228 244.011 333.591L236.622 325.817ZM254.2 334.088C253.806 334.503 253.145 334.503 252.75 334.088L240.685 321.395C240.319 321.009 240.319 320.403 240.685 320.017L252.549 307.536C252.943 307.121 253.604 307.121 253.998 307.536L266.063 320.229C266.43 320.615 266.43 321.221 266.063 321.607L254.2 334.088ZM236.222 278.61C235.828 279.025 235.166 279.025 234.772 278.61L223.588 266.844C222.982 266.207 223.434 265.155 224.313 265.155H246.681C247.56 265.155 248.012 266.207 247.406 266.844L236.222 278.61ZM243.937 299.402C244.816 299.402 245.268 298.35 244.662 297.713L236.222 288.833C235.828 288.419 235.166 288.419 234.772 288.833L226.332 297.713C225.726 298.35 226.178 299.402 227.056 299.402H243.937ZM240.285 283.033C239.919 283.419 239.919 284.025 240.285 284.411L252.549 297.313C252.943 297.728 253.604 297.728 253.998 297.313L266.334 284.335C266.701 283.949 266.701 283.343 266.334 282.957L254.071 270.055C253.676 269.64 253.015 269.64 252.621 270.055L240.285 283.033ZM262.568 305.402C261.689 305.402 261.238 306.454 261.843 307.091L270.127 315.806C270.521 316.221 271.183 316.221 271.577 315.806L279.861 307.091C280.466 306.454 280.015 305.402 279.136 305.402H262.568ZM263.664 335.28C262.785 335.28 262.334 334.228 262.939 333.591L270.127 326.029C270.521 325.615 271.183 325.615 271.577 326.029L278.765 333.591C279.37 334.228 278.918 335.28 278.04 335.28H263.664ZM275.64 320.229C275.274 320.615 275.274 321.221 275.64 321.607L286.897 333.45C287.292 333.865 287.953 333.865 288.347 333.45L300.683 320.472C301.049 320.086 301.049 319.48 300.683 319.094L289.426 307.251C289.031 306.836 288.37 306.836 287.976 307.251L275.64 320.229ZM321.859 341.373C321.802 341.314 321.724 341.28 321.642 341.28H286.915C286.822 341.28 286.732 341.319 286.668 341.386C286.534 341.528 286.308 341.528 286.174 341.386C286.109 341.319 286.02 341.28 285.927 341.28H204.463H203.434C203.111 341.28 202.807 341.124 202.62 340.861L202.021 340.024C198.644 335.294 195.603 330.285 192.933 325.037C192.911 324.994 192.884 324.955 192.851 324.92L192.593 324.649C192.556 324.611 192.556 324.55 192.593 324.511C192.622 324.48 192.629 324.435 192.61 324.397C184.503 308.218 179.918 289.793 179.918 270.255C179.918 269.228 179.931 268.203 179.956 267.183C179.957 267.156 179.947 267.13 179.928 267.111C179.891 267.072 179.891 267.01 179.928 266.972L179.933 266.966C179.952 266.946 179.963 266.921 179.963 266.894C179.968 266.733 179.972 266.571 179.977 266.41C179.981 266.295 179.938 266.182 179.858 266.098C179.7 265.931 179.7 265.669 179.858 265.502L179.89 265.468C179.971 265.383 180.018 265.271 180.023 265.154C182.562 203.38 231.001 153.879 290.682 153.879C319.777 153.879 346.2 165.643 365.936 184.859C365.958 184.88 365.987 184.892 366.017 184.892H366.021C366.084 184.892 366.134 184.943 366.134 185.005C366.134 185.036 366.147 185.065 366.168 185.086C367.528 186.418 368.856 187.785 370.151 189.186C370.32 189.37 370.414 189.611 370.414 189.861V195.829C370.414 196.771 369.221 197.198 368.609 196.481C366.973 194.564 365.273 192.709 363.515 190.917C363.499 190.901 363.478 190.892 363.455 190.892C363.432 190.892 363.41 190.901 363.394 190.918L347.455 207.688C347.088 208.074 347.088 208.68 347.455 209.066L359.524 221.755C359.918 222.169 360.579 222.169 360.973 221.755L368.689 213.637C369.312 212.982 370.414 213.423 370.414 214.326V220.121C370.414 220.377 370.316 220.624 370.139 220.81L368.166 222.886C367.56 223.523 368.012 224.575 368.89 224.575H369.414C369.967 224.575 370.414 225.022 370.414 225.575V229.824C370.414 230.238 370.078 230.575 369.663 230.575C369.003 230.575 368.664 231.365 369.119 231.843L370.139 232.916C370.316 233.101 370.414 233.348 370.414 233.605V239.398C370.414 240.301 369.312 240.741 368.69 240.087L360.975 231.976C360.581 231.561 359.92 231.561 359.525 231.976L349.093 242.951C348.726 243.337 348.726 243.943 349.093 244.329L360.35 256.172C360.745 256.587 361.406 256.587 361.8 256.172L368.689 248.924C369.312 248.269 370.414 248.71 370.414 249.613V255.408C370.414 255.664 370.316 255.911 370.139 256.097L368.766 257.541C368.188 258.15 368.619 259.155 369.459 259.155C369.987 259.155 370.414 259.582 370.414 260.11V264.696C370.414 264.949 370.209 265.155 369.956 265.155C369.553 265.155 369.346 265.637 369.624 265.929L370.191 266.525C370.334 266.676 370.414 266.876 370.414 267.084V272.954C370.414 273.858 369.312 274.298 368.689 273.643L361.8 266.395C361.406 265.98 360.745 265.98 360.35 266.395L344.706 282.854C344.339 283.24 344.339 283.846 344.706 284.232L357.38 297.565C357.774 297.98 358.435 297.98 358.829 297.565L368.689 287.191C369.312 286.537 370.414 286.977 370.414 287.88V293.675C370.414 293.932 370.316 294.178 370.139 294.364L366.956 297.713C366.35 298.35 366.802 299.402 367.68 299.402H369.414C369.967 299.402 370.414 299.85 370.414 300.402V304.402C370.414 304.955 369.967 305.402 369.414 305.402H367.159C366.28 305.402 365.829 306.454 366.434 307.091L370.139 310.989C370.316 311.175 370.414 311.421 370.414 311.678V317.473C370.414 318.376 369.312 318.816 368.689 318.162L358.829 307.788C358.435 307.373 357.774 307.373 357.38 307.788L347.366 318.323C346.999 318.709 346.999 319.315 347.366 319.701L358.657 331.58C359.051 331.995 359.712 331.995 360.106 331.58L368.689 322.55C369.312 321.896 370.414 322.336 370.414 323.239V329.034C370.414 329.29 370.316 329.537 370.139 329.723L366.462 333.591C365.857 334.228 366.308 335.28 367.187 335.28H369.414C369.967 335.28 370.414 335.728 370.414 336.28V338.414C370.414 338.967 370.862 339.414 371.414 339.414H379.028C379.342 339.414 379.526 339.768 379.343 340.024L378.745 340.861C378.557 341.124 378.254 341.28 377.931 341.28H376.902H322.508C322.426 341.28 322.348 341.314 322.292 341.373C322.174 341.497 321.977 341.497 321.859 341.373ZM289.426 297.028C289.031 297.443 288.37 297.443 287.976 297.028L275.911 284.335C275.544 283.949 275.544 283.343 275.911 282.957L289.317 268.853C289.711 268.438 290.373 268.438 290.767 268.853L302.832 281.546C303.199 281.932 303.199 282.538 302.832 282.924L289.426 297.028ZM279.635 299.402C280.514 299.402 280.965 298.35 280.36 297.713L271.847 288.758C271.453 288.343 270.792 288.343 270.398 288.758L261.885 297.713C261.28 298.35 261.731 299.402 262.61 299.402H279.635ZM270.398 278.535C270.792 278.949 271.453 278.949 271.847 278.535L282.96 266.844C283.565 266.207 283.114 265.155 282.235 265.155H260.01C259.131 265.155 258.68 266.207 259.285 266.844L270.398 278.535ZM251.681 258.844C251.87 259.042 252.132 259.155 252.406 259.155H254.285C254.559 259.155 254.821 259.042 255.01 258.844L267.477 245.728C267.844 245.342 267.844 244.736 267.477 244.35L255.268 231.506C254.874 231.091 254.213 231.091 253.819 231.506L240.412 245.61C240.045 245.996 240.045 246.602 240.412 246.988L251.681 258.844ZM234.899 251.411C235.293 250.996 235.955 250.996 236.349 251.411L242.104 257.466C242.71 258.103 242.258 259.155 241.379 259.155H229.868C228.99 259.155 228.538 258.103 229.144 257.466L234.899 251.411ZM234.899 241.188C235.293 241.602 235.955 241.602 236.349 241.188L244.831 232.264C245.436 231.627 244.985 230.575 244.106 230.575H227.142C226.263 230.575 225.811 231.627 226.417 232.264L234.899 241.188ZM218.954 234.635C219.348 234.22 220.009 234.22 220.403 234.635L230.835 245.61C231.202 245.996 231.202 246.602 230.835 246.988L219.567 258.844C219.378 259.042 219.116 259.155 218.842 259.155H216.708C216.434 259.155 216.172 259.042 215.984 258.844L206.614 248.986C206.247 248.6 206.247 247.994 206.615 247.608L218.954 234.635ZM201.1 253.407C201.494 252.992 202.155 252.992 202.549 253.407L206.407 257.466C207.012 258.103 206.561 259.155 205.682 259.155H197.964C197.085 259.155 196.634 258.102 197.239 257.465L201.1 253.407ZM187.104 259.155C187.269 259.155 187.427 259.087 187.541 258.967L197.035 248.985C197.403 248.599 197.403 247.993 197.036 247.607L191.106 241.368C190.568 240.802 189.62 241.044 189.429 241.801C188.063 247.212 187.078 252.787 186.505 258.494C186.469 258.848 186.748 259.155 187.104 259.155ZM192.064 232.905C191.944 233.256 192.03 233.643 192.286 233.911L201.101 243.186C201.495 243.601 202.156 243.601 202.55 243.186L212.939 232.264C213.544 231.627 213.093 230.575 212.214 230.575H193.586C193.167 230.575 192.791 230.837 192.649 231.232C192.45 231.788 192.255 232.345 192.064 232.905ZM218.813 224.264C219.002 224.462 219.264 224.575 219.538 224.575H219.823C220.097 224.575 220.359 224.462 220.547 224.264L233.815 210.314C234.182 209.928 234.182 209.322 233.815 208.936L217.981 192.277C217.589 191.864 216.932 191.861 216.541 192.274C212.013 197.05 207.899 202.261 204.258 207.844C204.007 208.23 204.055 208.738 204.373 209.072L218.813 224.264ZM199.964 215.003C200.288 214.414 201.09 214.315 201.552 214.802L209.236 222.886C209.841 223.523 209.39 224.575 208.511 224.575H196.8C196.08 224.575 195.597 223.838 195.891 223.182C197.143 220.389 198.502 217.661 199.964 215.003ZM306.196 314.672C305.802 315.087 305.14 315.087 304.746 314.672L297.541 307.091C296.935 306.454 297.387 305.402 298.266 305.402H312.677C313.555 305.402 314.007 306.454 313.401 307.091L306.196 314.672ZM306.196 324.895C305.802 324.48 305.14 324.48 304.746 324.895L296.48 333.591C295.875 334.228 296.326 335.28 297.205 335.28H313.737C314.616 335.28 315.067 334.228 314.462 333.591L306.196 324.895ZM324.383 333.806C323.988 334.22 323.327 334.22 322.933 333.806L310.26 320.472C309.893 320.086 309.893 319.48 310.26 319.094L322.978 305.713C323.167 305.515 323.429 305.402 323.703 305.402H325.078C325.352 305.402 325.614 305.515 325.803 305.713L337.789 318.323C338.156 318.709 338.156 319.315 337.789 319.701L324.383 333.806ZM271.54 250.15C271.935 249.736 272.596 249.736 272.99 250.15L279.943 257.466C280.549 258.103 280.097 259.155 279.219 259.155H265.312C264.433 259.155 263.982 258.103 264.587 257.466L271.54 250.15ZM297.849 265.155C296.97 265.155 296.519 266.207 297.124 266.844L306.896 277.123C307.29 277.538 307.951 277.538 308.345 277.123L318.526 266.412C318.799 266.125 318.799 265.674 318.526 265.386C318.386 265.238 318.191 265.155 317.987 265.155H297.849ZM312.409 282.924C312.042 282.538 312.042 281.932 312.409 281.546L322.423 271.011C322.817 270.596 323.478 270.596 323.872 271.011L335.129 282.854C335.496 283.24 335.496 283.846 335.129 284.232L325.115 294.767C324.721 295.182 324.06 295.182 323.666 294.767L312.409 282.924ZM331.307 299.402C330.428 299.402 329.977 298.35 330.582 297.713L339.193 288.654C339.587 288.24 340.248 288.24 340.643 288.654L349.253 297.713C349.859 298.35 349.407 299.402 348.529 299.402H331.307ZM351.605 224.575C352.484 224.575 352.935 223.522 352.329 222.886L343.391 213.488C342.997 213.073 342.336 213.073 341.942 213.488L333.009 222.886C332.404 223.523 332.855 224.575 333.734 224.575H351.605ZM352.822 190.892C353.7 190.892 354.152 191.944 353.547 192.581L343.39 203.267C342.995 203.681 342.334 203.682 341.94 203.267L331.777 192.581C331.171 191.944 331.623 190.892 332.501 190.892H352.822ZM337.876 209.067C338.243 208.681 338.243 208.075 337.876 207.689L325.609 194.791C325.215 194.377 324.554 194.377 324.159 194.791L313.738 205.755C313.371 206.141 313.371 206.747 313.738 207.133L326.002 220.035C326.396 220.45 327.057 220.45 327.451 220.035L337.876 209.067ZM325.59 184.588C325.406 184.782 325.15 184.892 324.883 184.892C324.615 184.892 324.359 184.782 324.175 184.589L311.946 171.73C311.578 171.344 311.578 170.738 311.945 170.352L317.814 164.178C318.07 163.908 318.456 163.803 318.814 163.908C325.022 165.728 331.001 168.136 336.692 171.072C337.28 171.375 337.407 172.157 336.951 172.636L325.59 184.588ZM313.863 184.892C314.741 184.892 315.193 183.84 314.587 183.203L307.881 176.152C307.487 175.738 306.826 175.738 306.432 176.153L299.731 183.203C299.125 183.84 299.577 184.892 300.455 184.892H313.863ZM309.799 161.715C310.566 161.864 310.857 162.799 310.319 163.366L307.88 165.931C307.486 166.346 306.825 166.346 306.431 165.932L303.068 162.396C302.427 161.723 302.971 160.627 303.893 160.749C305.879 161.013 307.849 161.335 309.799 161.715ZM302.367 171.732C302.734 171.346 302.734 170.74 302.366 170.354L292.707 160.197C292.522 160.003 292.267 159.891 291.999 159.887C291.561 159.882 291.122 159.879 290.682 159.879C290.614 159.879 290.546 159.879 290.477 159.879C290.205 159.88 289.946 159.992 289.759 160.189L280.09 170.355C279.723 170.741 279.723 171.347 280.09 171.733L290.503 182.688C290.897 183.103 291.559 183.103 291.953 182.688L302.367 171.732ZM343.58 248.752C343.974 248.337 344.635 248.337 345.03 248.752L353.312 257.466C353.918 258.103 353.466 259.155 352.588 259.155H336.022C335.143 259.155 334.692 258.103 335.297 257.466L343.58 248.752ZM343.58 238.529C343.974 238.943 344.635 238.943 345.03 238.529L350.985 232.264C351.59 231.627 351.139 230.575 350.26 230.575H338.35C337.471 230.575 337.02 231.627 337.625 232.264L343.58 238.529ZM327.323 230.575C327.597 230.575 327.859 230.687 328.048 230.886L339.516 242.951C339.883 243.337 339.883 243.943 339.516 244.329L325.72 258.844C325.532 259.042 325.27 259.155 324.995 259.155H321.3C321.026 259.155 320.764 259.042 320.575 258.844L310.358 248.094C309.991 247.708 309.991 247.103 310.358 246.717L325.405 230.886C325.594 230.687 325.856 230.575 326.13 230.575H327.323ZM308.225 211.556C308.619 211.141 309.28 211.141 309.675 211.556L320.444 222.886C321.049 223.523 320.598 224.575 319.719 224.575H298.18C297.302 224.575 296.85 223.523 297.456 222.886L308.225 211.556ZM308.225 201.333C308.619 201.747 309.28 201.747 309.675 201.333L317.993 192.581C318.599 191.944 318.147 190.892 317.268 190.892H300.631C299.753 190.892 299.301 191.944 299.907 192.581L308.225 201.333ZM290.503 192.911C290.897 192.496 291.559 192.496 291.953 192.911L304.161 205.755C304.528 206.141 304.528 206.747 304.161 207.133L288.517 223.592C288.123 224.006 287.462 224.006 287.068 223.592L274.859 210.747C274.492 210.361 274.492 209.756 274.859 209.37L290.503 192.911ZM282.726 183.203C283.331 183.84 282.879 184.892 282.001 184.892H268.595C267.716 184.892 267.265 183.84 267.87 183.203L274.575 176.153C274.97 175.739 275.631 175.739 276.025 176.153L282.726 183.203ZM274.577 165.932C274.971 166.347 275.632 166.347 276.026 165.932L279.537 162.241C280.174 161.571 279.641 160.481 278.724 160.591C276.63 160.842 274.555 161.158 272.499 161.538C271.727 161.68 271.429 162.621 271.971 163.19L274.577 165.932ZM264.408 163.931C264.153 163.664 263.772 163.558 263.416 163.658C255.476 165.908 247.906 169.118 240.824 173.162C240.265 173.482 240.159 174.24 240.602 174.707L249.988 184.581C250.177 184.78 250.439 184.892 250.713 184.892H257.565C257.839 184.892 258.101 184.78 258.289 184.581L270.511 171.731C270.878 171.345 270.878 170.739 270.511 170.353L264.408 163.931ZM327.769 265.386C327.496 265.674 327.496 266.125 327.769 266.412L339.193 278.431C339.587 278.846 340.248 278.846 340.643 278.431L351.657 266.844C352.262 266.207 351.811 265.155 350.932 265.155H328.308C328.104 265.155 327.909 265.238 327.769 265.386ZM315.103 230.575C315.982 230.575 316.433 231.627 315.828 232.264L306.294 242.294C305.9 242.709 305.239 242.709 304.844 242.294L295.31 232.264C294.705 231.627 295.157 230.575 296.035 230.575H315.103ZM300.781 248.094C301.148 247.708 301.148 247.103 300.781 246.717L288.517 233.815C288.123 233.4 287.462 233.4 287.068 233.815L277.054 244.35C276.687 244.736 276.687 245.342 277.054 245.728L289.66 258.991C289.76 259.095 289.898 259.155 290.042 259.155C290.186 259.155 290.324 259.095 290.424 258.991L300.781 248.094ZM277.405 224.575C278.283 224.575 278.735 223.523 278.129 222.886L270.796 215.17C270.401 214.755 269.74 214.755 269.346 215.17L262.012 222.886C261.407 223.523 261.858 224.575 262.737 224.575H277.405ZM281.825 190.892C282.703 190.892 283.155 191.944 282.55 192.581L270.796 204.947C270.401 205.362 269.74 205.362 269.346 204.947L258.926 193.985C258.559 193.599 258.559 192.993 258.926 192.607L260.262 191.203C260.45 191.004 260.712 190.892 260.986 190.892H281.825ZM265.282 210.747C265.649 210.361 265.649 209.756 265.282 209.37L254.861 198.406C254.467 197.991 253.806 197.991 253.411 198.405L243.394 208.937C243.027 209.323 243.027 209.929 243.394 210.315L253.819 221.283C254.213 221.698 254.874 221.698 255.268 221.283L265.282 210.747ZM249.347 193.983C249.714 193.597 249.714 192.991 249.347 192.605L248.015 191.203C247.826 191.004 247.564 190.892 247.29 190.892H227.262C226.384 190.892 225.932 191.944 226.537 192.581L237.881 204.515C238.275 204.93 238.936 204.93 239.33 204.515L249.347 193.983ZM239.686 184.892C240.565 184.892 241.016 183.84 240.411 183.203L235.138 177.655C234.802 177.302 234.261 177.242 233.858 177.516C231.266 179.283 228.751 181.167 226.322 183.161C225.606 183.749 226.028 184.892 226.954 184.892H239.686ZM310.273 259.155C311.152 259.155 311.603 258.103 310.998 257.466L306.294 252.517C305.9 252.102 305.239 252.102 304.844 252.517L300.141 257.466C299.535 258.103 299.987 259.155 300.865 259.155H310.273ZM308.345 287.346C307.951 286.932 307.29 286.932 306.896 287.346L297.042 297.713C296.436 298.35 296.888 299.402 297.767 299.402H317.474C318.353 299.402 318.804 298.35 318.199 297.713L308.345 287.346ZM343.302 313.901C342.908 314.316 342.247 314.316 341.852 313.901L335.38 307.091C334.775 306.454 335.226 305.402 336.105 305.402H349.05C349.929 305.402 350.38 306.454 349.775 307.091L343.302 313.901ZM343.302 324.124C342.908 323.709 342.247 323.709 341.852 324.124L332.853 333.591C332.248 334.228 332.699 335.28 333.578 335.28H351.576C352.455 335.28 352.907 334.228 352.301 333.591L343.302 324.124ZM271.54 239.927C271.935 240.342 272.596 240.342 272.99 239.927L280.275 232.264C280.88 231.627 280.429 230.575 279.55 230.575H264.981C264.102 230.575 263.651 231.627 264.256 232.264L271.54 239.927ZM237.879 214.736C238.274 214.321 238.935 214.322 239.329 214.736L247.075 222.886C247.68 223.523 247.229 224.575 246.35 224.575H230.853C229.974 224.575 229.523 223.522 230.128 222.886L237.879 214.736ZM355.042 183.161C355.758 183.749 355.337 184.892 354.41 184.892H335.899C335.02 184.892 334.569 183.84 335.174 183.203L342.658 175.33C342.983 174.988 343.503 174.919 343.903 175.168C347.783 177.584 351.503 180.255 355.042 183.161Z" fill="#02365E"/>
<path fill-rule="evenodd" clip-rule="evenodd" d="M840.274 3C839.94 3 839.628 3.16659 839.442 3.44408L801.006 60.9162C800.827 61.1841 800.526 61.3449 800.204 61.3449C799.671 61.3449 799.238 61.7772 799.238 62.3104V340.043C799.238 340.595 799.686 341.043 800.238 341.043H910.118C910.67 341.043 911.118 340.595 911.118 340.043V62.351C911.118 62.3417 911.125 62.3342 911.134 62.3342C911.148 62.3342 911.156 62.3192 911.148 62.3081L911.124 62.2722C911.12 62.2656 911.118 62.2579 911.118 62.2501V61.7448C911.118 61.5239 910.939 61.3449 910.718 61.3449C910.584 61.3449 910.46 61.2783 910.385 61.1674L871.781 3.44408C871.596 3.16658 871.284 3 870.95 3H840.274Z" fill="#A4978A"/>
<path d="M871.781 3.44408L873.859 2.05429L871.781 3.44408ZM910.385 61.1674L912.463 59.7776L910.385 61.1674ZM911.124 62.2722L909.046 63.662L911.124 62.2722ZM911.148 62.3081L913.226 60.9183L911.148 62.3081ZM801.006 60.9162L798.928 59.5264L801.006 60.9162ZM839.442 3.44408L837.364 2.0543L839.442 3.44408ZM837.364 2.0543L798.928 59.5264L803.084 62.306L841.521 4.83387L837.364 2.0543ZM796.738 62.3104V340.043H801.738V62.3104H796.738ZM800.238 343.543H910.118V338.543H800.238V343.543ZM913.618 340.043V62.351H908.618V340.043H913.618ZM913.226 60.9183L913.202 60.8824L909.046 63.662L909.07 63.6979L913.226 60.9183ZM913.618 62.2501V61.7448H908.618V62.2501H913.618ZM912.463 59.7776L873.859 2.05429L869.703 4.83387L908.307 62.5572L912.463 59.7776ZM870.95 0.5H840.274V5.5H870.95V0.5ZM873.859 2.05429C873.21 1.08304 872.118 0.5 870.95 0.5V5.5C870.449 5.5 869.982 5.25013 869.703 4.83387L873.859 2.05429ZM910.718 58.8449C911.419 58.8449 912.074 59.1948 912.463 59.7776L908.307 62.5572C908.845 63.3619 909.75 63.8449 910.718 63.8449V58.8449ZM913.618 61.7448C913.618 60.1432 912.319 58.8449 910.718 58.8449V63.8449C909.558 63.8449 908.618 62.9047 908.618 61.7448H913.618ZM913.202 60.8824C913.473 61.2872 913.618 61.7631 913.618 62.2501H908.618C908.618 62.7528 908.767 63.2441 909.046 63.662L913.202 60.8824ZM911.134 64.8342C913.146 64.8342 914.345 62.5906 913.226 60.9183L909.07 63.6979C907.967 62.0479 909.149 59.8342 911.134 59.8342V64.8342ZM913.618 62.351C913.618 63.7216 912.507 64.8342 911.134 64.8342V59.8342C909.743 59.8342 908.618 60.9618 908.618 62.351H913.618ZM910.118 343.543C912.051 343.543 913.618 341.976 913.618 340.043H908.618C908.618 339.215 909.289 338.543 910.118 338.543V343.543ZM796.738 340.043C796.738 341.976 798.305 343.543 800.238 343.543V338.543C801.067 338.543 801.738 339.215 801.738 340.043H796.738ZM800.204 58.8449C798.29 58.8449 796.738 60.3965 796.738 62.3104H801.738C801.738 63.1579 801.051 63.8449 800.204 63.8449V58.8449ZM798.928 59.5264C799.213 59.1006 799.692 58.8449 800.204 58.8449V63.8449C801.361 63.8449 802.441 63.2676 803.084 62.306L798.928 59.5264ZM841.521 4.83387C841.242 5.25012 840.774 5.5 840.274 5.5V0.5C839.105 0.5 838.014 1.08306 837.364 2.0543L841.521 4.83387Z" fill="#02365E"/>
<path d="M911.141 339.938V61.6152C911.141 61.6152 904.583 302.637 885.728 320.672C866.872 338.708 799.648 339.938 799.648 339.938H911.141Z" fill="#87796D"/>
<path d="M871.781 3.44408L873.859 2.05429L871.781 3.44408ZM910.385 61.1674L912.463 59.7776L910.385 61.1674ZM911.124 62.2722L909.046 63.662L911.124 62.2722ZM911.148 62.3081L913.226 60.9183L911.148 62.3081ZM801.006 60.9162L798.928 59.5264L801.006 60.9162ZM839.442 3.44408L837.364 2.0543L839.442 3.44408ZM837.364 2.0543L798.928 59.5264L803.084 62.306L841.521 4.83387L837.364 2.0543ZM796.738 62.3104V340.043H801.738V62.3104H796.738ZM800.238 343.543H910.118V338.543H800.238V343.543ZM913.618 340.043V62.351H908.618V340.043H913.618ZM913.226 60.9183L913.202 60.8824L909.046 63.662L909.07 63.6979L913.226 60.9183ZM913.618 62.2501V61.7448H908.618V62.2501H913.618ZM912.463 59.7776L873.859 2.05429L869.703 4.83387L908.307 62.5572L912.463 59.7776ZM870.95 0.5H840.274V5.5H870.95V0.5ZM873.859 2.05429C873.21 1.08304 872.118 0.5 870.95 0.5V5.5C870.449 5.5 869.982 5.25013 869.703 4.83387L873.859 2.05429ZM910.718 58.8449C911.419 58.8449 912.074 59.1948 912.463 59.7776L908.307 62.5572C908.845 63.3619 909.75 63.8449 910.718 63.8449V58.8449ZM913.618 61.7448C913.618 60.1432 912.319 58.8449 910.718 58.8449V63.8449C909.558 63.8449 908.618 62.9047 908.618 61.7448H913.618ZM913.202 60.8824C913.473 61.2872 913.618 61.7631 913.618 62.2501H908.618C908.618 62.7528 908.767 63.2441 909.046 63.662L913.202 60.8824ZM911.134 64.8342C913.146 64.8342 914.345 62.5906 913.226 60.9183L909.07 63.6979C907.967 62.0479 909.149 59.8342 911.134 59.8342V64.8342ZM913.618 62.351C913.618 63.7216 912.507 64.8342 911.134 64.8342V59.8342C909.743 59.8342 908.618 60.9618 908.618 62.351H913.618ZM910.118 343.543C912.051 343.543 913.618 341.976 913.618 340.043H908.618C908.618 339.215 909.289 338.543 910.118 338.543V343.543ZM796.738 340.043C796.738 341.976 798.305 343.543 800.238 343.543V338.543C801.067 338.543 801.738 339.215 801.738 340.043H796.738ZM800.204 58.8449C798.29 58.8449 796.738 60.3965 796.738 62.3104H801.738C801.738 63.1579 801.051 63.8449 800.204 63.8449V58.8449ZM798.928 59.5264C799.213 59.1006 799.692 58.8449 800.204 58.8449V63.8449C801.361 63.8449 802.441 63.2676 803.084 62.306L798.928 59.5264ZM841.521 4.83387C841.242 5.25012 840.774 5.5 840.274 5.5V0.5C839.105 0.5 838.014 1.08306 837.364 2.0543L841.521 4.83387Z" fill="#02365E"/>
<path d="M845.557 9.14844H842.687L804.977 64.8949V334.61" stroke="#D8CBBF" stroke-width="4" stroke-linecap="round" stroke-linejoin="round"/>
<rect x="809.932" y="63.3242" width="15.551" height="15.8224" rx="1" fill="#A9DEFE" stroke="#02365E" stroke-width="5"/>
<path d="M823.834 77.6032V64.4863C823.834 64.4863 822.922 70.894 820.314 73.6681C817.513 76.6476 810.717 77.6032 810.717 77.6032H823.834Z" fill="#2B99D6"/>
<path d="M821.374 66.9453H813.996V74.3235" stroke="#E1F3FF" stroke-width="3" stroke-linecap="round" stroke-linejoin="round"/>
<rect x="809.932" y="63.3242" width="15.551" height="15.8224" rx="1" stroke="#02365E" stroke-width="5"/>
<rect x="886.713" y="62.334" width="15.551" height="15.8224" rx="1" fill="#A9DEFE" stroke="#02365E" stroke-width="5"/>
<path d="M900.894 76.7828V63.666C900.894 63.666 899.983 70.0737 897.375 72.8478C894.574 75.8273 887.777 76.7828 887.777 76.7828H900.894Z" fill="#2B99D6"/>
<path d="M898.435 66.125H891.057V73.5032" stroke="#E1F3FF" stroke-width="3" stroke-linecap="round" stroke-linejoin="round"/>
<rect x="886.713" y="62.334" width="15.551" height="15.8224" rx="1" stroke="#02365E" stroke-width="5"/>
<rect x="867.275" y="82.1113" width="15.551" height="15.8224" rx="1" fill="#A9DEFE" stroke="#02365E" stroke-width="5"/>
<path d="M881.22 96.4567V83.3398C881.22 83.3398 880.309 89.7475 877.701 92.5216C874.9 95.5011 868.104 96.4567 868.104 96.4567H881.22Z" fill="#2B99D6"/>
<path d="M878.761 85.7988H871.383V93.177" stroke="#E1F3FF" stroke-width="3" stroke-linecap="round" stroke-linejoin="round"/>
<rect x="867.275" y="82.1113" width="15.551" height="15.8224" rx="1" stroke="#02365E" stroke-width="5"/>
<rect x="847.838" y="101.891" width="15.551" height="15.8224" rx="1" fill="#A9DEFE" stroke="#02365E" stroke-width="5"/>
<path d="M861.547 116.953V103.836C861.547 103.836 860.635 110.244 858.027 113.018C855.226 115.997 848.43 116.953 848.43 116.953H861.547Z" fill="#2B99D6"/>
<path d="M859.085 106.295H851.707V113.673" stroke="#E1F3FF" stroke-width="3" stroke-linecap="round" stroke-linejoin="round"/>
<rect x="847.838" y="101.891" width="15.551" height="15.8224" rx="1" stroke="#02365E" stroke-width="5"/>
<rect x="828.398" y="82.1133" width="15.551" height="15.8224" rx="1" fill="#A9DEFE" stroke="#02365E" stroke-width="5"/>
<path d="M841.871 96.4586V83.3418C841.871 83.3418 840.96 89.7495 838.352 92.5236C835.55 95.5031 828.754 96.4586 828.754 96.4586H841.871Z" fill="#2B99D6"/>
<path d="M839.409 85.8008H832.031V93.179" stroke="#E1F3FF" stroke-width="3" stroke-linecap="round" stroke-linejoin="round"/>
<rect x="828.398" y="82.1133" width="15.551" height="15.8224" rx="1" stroke="#02365E" stroke-width="5"/>
<path d="M813.82 102.877V109.788C813.82 110.34 814.268 110.788 814.82 110.788H821.596" stroke="#02365E" stroke-width="5" stroke-linecap="round"/>
<path d="M813.82 118.699V125.61C813.82 126.163 814.268 126.61 814.82 126.61H821.596" stroke="#02365E" stroke-width="5" stroke-linecap="round"/>
<path d="M813.82 87.0547V93.9659C813.82 94.5182 814.268 94.9659 814.82 94.9659H821.596" stroke="#02365E" stroke-width="5" stroke-linecap="round"/>
<path d="M813.82 134.521V141.433C813.82 141.985 814.268 142.433 814.82 142.433H821.596" stroke="#02365E" stroke-width="5" stroke-linecap="round"/>
<path d="M813.82 166.168V173.079C813.82 173.631 814.268 174.079 814.82 174.079H821.596" stroke="#02365E" stroke-width="5" stroke-linecap="round"/>
<path d="M813.82 181.99V188.901C813.82 189.454 814.268 189.901 814.82 189.901H821.596" stroke="#02365E" stroke-width="5" stroke-linecap="round"/>
<path d="M813.82 150.346V157.257C813.82 157.809 814.268 158.257 814.82 158.257H821.596" stroke="#02365E" stroke-width="5" stroke-linecap="round"/>
<path d="M813.82 197.812V204.724C813.82 205.276 814.268 205.724 814.82 205.724H821.596" stroke="#02365E" stroke-width="5" stroke-linecap="round"/>
<path d="M813.82 229.457V236.368C813.82 236.921 814.268 237.368 814.82 237.368H821.596" stroke="#02365E" stroke-width="5" stroke-linecap="round"/>
<path d="M813.82 245.279V252.19C813.82 252.743 814.268 253.19 814.82 253.19H821.596" stroke="#02365E" stroke-width="5" stroke-linecap="round"/>
<path d="M813.82 213.635V220.546C813.82 221.098 814.268 221.546 814.82 221.546H821.596" stroke="#02365E" stroke-width="5" stroke-linecap="round"/>
<path d="M813.82 261.102V268.013C813.82 268.565 814.268 269.013 814.82 269.013H821.596" stroke="#02365E" stroke-width="5" stroke-linecap="round"/>
<path d="M894.49 102.877V109.788C894.49 110.34 894.938 110.788 895.49 110.788H902.266" stroke="#02365E" stroke-width="5" stroke-linecap="round"/>
<path d="M894.49 118.699V125.61C894.49 126.163 894.938 126.61 895.49 126.61H902.266" stroke="#02365E" stroke-width="5" stroke-linecap="round"/>
<path d="M894.49 87.0547V93.9659C894.49 94.5182 894.938 94.9659 895.49 94.9659H902.266" stroke="#02365E" stroke-width="5" stroke-linecap="round"/>
<path d="M894.49 134.521V141.433C894.49 141.985 894.938 142.433 895.49 142.433H902.266" stroke="#02365E" stroke-width="5" stroke-linecap="round"/>
<path d="M894.49 166.168V173.079C894.49 173.631 894.938 174.079 895.49 174.079H902.266" stroke="#02365E" stroke-width="5" stroke-linecap="round"/>
<path d="M894.49 181.99V188.901C894.49 189.454 894.938 189.901 895.49 189.901H902.266" stroke="#02365E" stroke-width="5" stroke-linecap="round"/>
<path d="M894.49 150.346V157.257C894.49 157.809 894.938 158.257 895.49 158.257H902.266" stroke="#02365E" stroke-width="5" stroke-linecap="round"/>
<path d="M894.49 197.812V204.724C894.49 205.276 894.938 205.724 895.49 205.724H902.266" stroke="#02365E" stroke-width="5" stroke-linecap="round"/>
<path d="M894.49 229.457V236.368C894.49 236.921 894.938 237.368 895.49 237.368H902.266" stroke="#02365E" stroke-width="5" stroke-linecap="round"/>
<path d="M894.49 245.279V252.19C894.49 252.743 894.938 253.19 895.49 253.19H902.266" stroke="#02365E" stroke-width="5" stroke-linecap="round"/>
<path d="M894.49 213.635V220.546C894.49 221.098 894.938 221.546 895.49 221.546H902.266" stroke="#02365E" stroke-width="5" stroke-linecap="round"/>
<path d="M894.49 261.102V268.013C894.49 268.565 894.938 269.013 895.49 269.013H902.266" stroke="#02365E" stroke-width="5" stroke-linecap="round"/>
<path d="M832.287 119.689V126.601C832.287 127.153 832.735 127.601 833.287 127.601H840.063" stroke="#02365E" stroke-width="5" stroke-linecap="round"/>
<path d="M832.287 135.512V142.423C832.287 142.975 832.735 143.423 833.287 143.423H840.063" stroke="#02365E" stroke-width="5" stroke-linecap="round"/>
<path d="M832.287 103.867V110.778C832.287 111.331 832.735 111.778 833.287 111.778H840.063" stroke="#02365E" stroke-width="5" stroke-linecap="round"/>
<path d="M832.287 151.334V158.245C832.287 158.797 832.735 159.245 833.287 159.245H840.063" stroke="#02365E" stroke-width="5" stroke-linecap="round"/>
<path d="M832.287 182.979V189.89C832.287 190.442 832.735 190.89 833.287 190.89H840.063" stroke="#02365E" stroke-width="5" stroke-linecap="round"/>
<path d="M832.287 198.801V205.712C832.287 206.264 832.735 206.712 833.287 206.712H840.063" stroke="#02365E" stroke-width="5" stroke-linecap="round"/>
<path d="M832.287 167.156V174.067C832.287 174.62 832.735 175.067 833.287 175.067H840.063" stroke="#02365E" stroke-width="5" stroke-linecap="round"/>
<path d="M832.287 214.623V221.534C832.287 222.087 832.735 222.534 833.287 222.534H840.063" stroke="#02365E" stroke-width="5" stroke-linecap="round"/>
<path d="M832.287 246.268V253.179C832.287 253.731 832.735 254.179 833.287 254.179H840.063" stroke="#02365E" stroke-width="5" stroke-linecap="round"/>
<path d="M832.287 262.09V269.001C832.287 269.553 832.735 270.001 833.287 270.001H840.063" stroke="#02365E" stroke-width="5" stroke-linecap="round"/>
<path d="M832.287 230.445V237.357C832.287 237.909 832.735 238.357 833.287 238.357H840.063" stroke="#02365E" stroke-width="5" stroke-linecap="round"/>
<path d="M873.109 119.689V126.601C873.109 127.153 873.557 127.601 874.109 127.601H880.885" stroke="#02365E" stroke-width="5" stroke-linecap="round"/>
<path d="M873.109 135.512V142.423C873.109 142.975 873.557 143.423 874.109 143.423H880.885" stroke="#02365E" stroke-width="5" stroke-linecap="round"/>
<path d="M873.109 103.867V110.778C873.109 111.331 873.557 111.778 874.109 111.778H880.885" stroke="#02365E" stroke-width="5" stroke-linecap="round"/>
<path d="M873.109 151.334V158.245C873.109 158.797 873.557 159.245 874.109 159.245H880.885" stroke="#02365E" stroke-width="5" stroke-linecap="round"/>
<path d="M873.109 182.979V189.89C873.109 190.442 873.557 190.89 874.109 190.89H880.885" stroke="#02365E" stroke-width="5" stroke-linecap="round"/>
<path d="M873.109 198.801V205.712C873.109 206.264 873.557 206.712 874.109 206.712H880.885" stroke="#02365E" stroke-width="5" stroke-linecap="round"/>
<path d="M873.109 167.156V174.067C873.109 174.62 873.557 175.067 874.109 175.067H880.885" stroke="#02365E" stroke-width="5" stroke-linecap="round"/>
<path d="M873.109 214.623V221.534C873.109 222.087 873.557 222.534 874.109 222.534H880.885" stroke="#02365E" stroke-width="5" stroke-linecap="round"/>
<path d="M873.109 246.268V253.179C873.109 253.731 873.557 254.179 874.109 254.179H880.885" stroke="#02365E" stroke-width="5" stroke-linecap="round"/>
<path d="M873.109 262.09V269.001C873.109 269.553 873.557 270.001 874.109 270.001H880.885" stroke="#02365E" stroke-width="5" stroke-linecap="round"/>
<path d="M814.225 293.686V300.597C814.225 301.149 814.672 301.597 815.225 301.597H822" stroke="#02365E" stroke-width="5" stroke-linecap="round"/>
<path d="M814.225 309.668V316.579C814.225 317.131 814.672 317.579 815.225 317.579H822" stroke="#02365E" stroke-width="5" stroke-linecap="round"/>
<path d="M814.225 277.703V284.614C814.225 285.167 814.672 285.614 815.225 285.614H822" stroke="#02365E" stroke-width="5" stroke-linecap="round"/>
<path d="M894.139 293.686V300.597C894.139 301.149 894.586 301.597 895.139 301.597H901.914" stroke="#02365E" stroke-width="5" stroke-linecap="round"/>
<path d="M894.139 309.668V316.579C894.139 317.131 894.586 317.579 895.139 317.579H901.914" stroke="#02365E" stroke-width="5" stroke-linecap="round"/>
<path d="M894.139 277.703V284.614C894.139 285.167 894.586 285.614 895.139 285.614H901.914" stroke="#02365E" stroke-width="5" stroke-linecap="round"/>
<path d="M833.205 277.703V284.614C833.205 285.167 833.653 285.614 834.205 285.614H840.981" stroke="#02365E" stroke-width="5" stroke-linecap="round"/>
<path d="M833.205 293.686V300.597C833.205 301.149 833.653 301.597 834.205 301.597H840.981" stroke="#02365E" stroke-width="5" stroke-linecap="round"/>
<path d="M833.205 309.668V316.579C833.205 317.131 833.653 317.579 834.205 317.579H840.981" stroke="#02365E" stroke-width="5" stroke-linecap="round"/>
<path d="M873.16 293.686V300.597C873.16 301.149 873.608 301.597 874.16 301.597H880.936" stroke="#02365E" stroke-width="5" stroke-linecap="round"/>
<path d="M873.16 309.668V316.579C873.16 317.131 873.608 317.579 874.16 317.579H880.936" stroke="#02365E" stroke-width="5" stroke-linecap="round"/>
<path d="M873.16 277.703V284.614C873.16 285.167 873.608 285.614 874.16 285.614H880.936" stroke="#02365E" stroke-width="5" stroke-linecap="round"/>
<path d="M873.109 230.445V237.357C873.109 237.909 873.557 238.357 874.109 238.357H880.885" stroke="#02365E" stroke-width="5" stroke-linecap="round"/>
<path d="M852.182 122.869V308.669" stroke="#02365E" stroke-width="5" stroke-linecap="round"/>
<path d="M859.174 122.869V308.669" stroke="#02365E" stroke-width="5" stroke-linecap="round"/>
<path d="M851.725 10.9121V90.0241" stroke="#02365E" stroke-width="5" stroke-linecap="round"/>
<path d="M859.5 10.9121V90.0241" stroke="#02365E" stroke-width="5" stroke-linecap="round"/>
<rect x="848.186" y="316.662" width="15.551" height="23.7336" rx="1" fill="#44413F" stroke="#02365E" stroke-width="5"/>
<path d="M863.594 340.348V316.574C863.594 316.574 862.08 328.862 857.035 334.2C854.016 337.395 847.607 340.348 847.607 340.348H863.594Z" fill="#2D2A28"/>
<path d="M859.903 320.264H852.115V335.02" stroke="#686868" stroke-width="3" stroke-linecap="round" stroke-linejoin="round"/>
<rect x="848.186" y="316.662" width="15.551" height="23.7336" rx="1" stroke="#02365E" stroke-width="5"/>
<rect x="430.988" y="180.672" width="130.729" height="62.5228" fill="#C6C6C6" stroke="#02365E" stroke-width="4"/>
<path d="M561.872 180.779V242.915H536.194C530.744 243.27 526.365 242.915 526.365 242.915H536.194C543.221 242.458 552.03 240.823 555.531 235.73C560.181 228.966 561.872 180.779 561.872 180.779Z" fill="#8B8A8A"/>
<rect x="430.988" y="180.672" width="130.729" height="62.5228" stroke="#02365E" stroke-width="4"/>
<path d="M487.828 231.826H504.88V243.194H487.828V231.826Z" fill="#A9DEFE" stroke="#02365E" stroke-width="4"/>
<path d="M487.828 220.459H504.88V231.827H487.828V220.459Z" fill="#A9DEFE" stroke="#02365E" stroke-width="4"/>
<path d="M505.231 242.493V219.668C505.231 219.668 503.182 233.845 499.736 237.421C496.035 241.262 487.9 242.493 487.9 242.493H505.231Z" fill="#2B99D6"/>
<path d="M487.826 231.826H504.878V243.194H487.826V231.826Z" stroke="#02365E" stroke-width="4"/>
<path d="M487.826 220.459H504.878V231.827H487.826V220.459Z" stroke="#02365E" stroke-width="4"/>
<path d="M484.986 215.359C484.986 215.036 485.247 214.775 485.57 214.775H507.139C507.461 214.775 507.722 215.036 507.722 215.359V219.876C507.722 220.198 507.461 220.459 507.139 220.459H485.57C485.247 220.459 484.986 220.198 484.986 219.876V215.359Z" fill="#C6C6C6" stroke="#02365E" stroke-width="4"/>
<path d="M496.354 220.459V243.195" stroke="#02365E" stroke-width="4"/>
<path d="M527.615 231.826H544.667V243.194H527.615V231.826Z" fill="#A9DEFE" stroke="#02365E" stroke-width="4"/>
<path d="M527.615 220.459H544.667V231.827H527.615V220.459Z" fill="#A9DEFE" stroke="#02365E" stroke-width="4"/>
<path d="M544.964 242.493V219.668C544.964 219.668 542.915 233.845 539.469 237.421C535.768 241.262 527.634 242.493 527.634 242.493H544.964Z" fill="#2B99D6"/>
<path d="M527.615 231.826H544.667V243.194H527.615V231.826Z" stroke="#02365E" stroke-width="4"/>
<path d="M527.615 220.459H544.667V231.827H527.615V220.459Z" stroke="#02365E" stroke-width="4"/>
<path d="M524.774 215.359C524.774 215.036 525.036 214.775 525.358 214.775H546.927C547.249 214.775 547.51 215.036 547.51 215.359V219.876C547.51 220.198 547.249 220.459 546.927 220.459H525.358C525.036 220.459 524.774 220.198 524.774 219.876V215.359Z" fill="#C6C6C6" stroke="#02365E" stroke-width="4"/>
<path d="M536.143 220.459V243.195" stroke="#02365E" stroke-width="4"/>
<path d="M448.038 231.826H465.09V243.194H448.038V231.826Z" fill="#C6C6C6" stroke="#02365E" stroke-width="4"/>
<path d="M448.038 220.459H465.09V231.827H448.038V220.459Z" fill="#A9DEFE" stroke="#02365E" stroke-width="4"/>
<path d="M465.496 242.493V219.668C465.496 219.668 463.447 233.845 460.001 237.421C456.3 241.262 448.166 242.493 448.166 242.493H465.496Z" fill="#2B99D6"/>
<path d="M448.038 231.826H465.09V243.194H448.038V231.826Z" fill="#A9DEFE" stroke="#02365E" stroke-width="4"/>
<path d="M448.038 220.459H465.09V231.827H448.038V220.459Z" stroke="#02365E" stroke-width="4"/>
<path d="M445.197 215.359C445.197 215.036 445.458 214.775 445.78 214.775H467.35C467.672 214.775 467.933 215.036 467.933 215.359V219.876C467.933 220.198 467.672 220.459 467.35 220.459H445.78C445.458 220.459 445.197 220.198 445.197 219.876V215.359Z" fill="#C6C6C6" stroke="#02365E" stroke-width="4"/>
<path d="M456.564 220.459V243.195" stroke="#02365E" stroke-width="4"/>
<rect x="430.987" y="265.93" width="130.729" height="73.8906" fill="#C6C6C6"/>
<rect x="431.259" y="266.164" width="130.19" height="46.4964" fill="#B5B5B5"/>
<rect x="430.987" y="265.93" width="130.729" height="73.8906" stroke="#02365E" stroke-width="4"/>
<path d="M363.038 181.439C362.912 181.062 363.193 180.672 363.591 180.672H430.989V339.821H369.049C368.727 339.821 368.466 339.56 368.466 339.238V197.724L363.038 181.439Z" fill="#D8D7D7" stroke="#02365E" stroke-width="4"/>
<path d="M430.836 340.136V180.357C430.836 180.357 424.496 305.898 414.774 320.692C403.965 337.14 368.277 340.136 368.277 340.136H430.836Z" fill="#8B8A8A"/>
<path d="M363.038 181.439C362.912 181.062 363.193 180.672 363.591 180.672H430.989V339.821H369.049C368.727 339.821 368.466 339.56 368.466 339.238V197.724L363.038 181.439Z" stroke="#02365E" stroke-width="4"/>
<path d="M629.668 181.439C629.794 181.062 629.513 180.672 629.115 180.672H561.717V339.821H623.657C623.979 339.821 624.24 339.56 624.24 339.238V197.724L629.668 181.439Z" fill="#A9A6A6" stroke="#02365E" stroke-width="4"/>
<path d="M624.429 339.712V198.109C624.429 198.109 619.402 314.438 610.48 324.072C599.913 335.485 563.139 339.712 563.139 339.712H624.429Z" fill="#8A8888"/>
<path d="M629.668 181.439C629.794 181.062 629.513 180.672 629.115 180.672H561.717V339.821H623.657C623.979 339.821 624.24 339.56 624.24 339.238V197.724L629.668 181.439Z" stroke="#02365E" stroke-width="4"/>
<rect x="459.409" y="266.641" width="11.3678" height="45.4711" rx="0.5832" fill="#969696"/>
<rect x="459.409" y="266.641" width="11.3678" height="45.4711" rx="0.5832" stroke="#02365E" stroke-width="4"/>
<rect x="521.932" y="266.641" width="11.3678" height="45.4711" rx="0.5832" fill="#969696"/>
<rect x="521.932" y="266.641" width="11.3678" height="45.4711" rx="0.5832" stroke="#02365E" stroke-width="4"/>
<rect x="416.778" y="317.084" width="28.4195" height="22.7356" rx="0.5832" fill="#C6C6C6" stroke="#02365E" stroke-width="4"/>
<path d="M445.207 340.134V318.576C445.207 318.576 442.294 329.639 437.176 334.216C431.023 339.717 416.887 340.134 416.887 340.134H445.207Z" fill="#8B8A8A"/>
<rect x="416.778" y="317.084" width="28.4195" height="22.7356" rx="0.5832" stroke="#02365E" stroke-width="4"/>
<rect x="415.357" y="312.82" width="31.2614" height="5.68389" rx="0.5832" fill="#C6C6C6" stroke="#02365E" stroke-width="4"/>
<rect x="547.508" y="317.084" width="28.4195" height="22.7356" rx="0.5832" fill="#C6C6C6" stroke="#02365E" stroke-width="4"/>
<path d="M575.397 339.29V317.732C575.397 317.732 572.484 328.796 567.366 333.372C561.213 338.874 547.076 339.29 547.076 339.29H575.397Z" fill="#8B8A8A"/>
<rect x="547.508" y="317.084" width="28.4195" height="22.7356" rx="0.5832" stroke="#02365E" stroke-width="4"/>
<rect x="546.087" y="312.82" width="31.2614" height="5.68389" rx="0.5832" fill="#C6C6C6" stroke="#02365E" stroke-width="4"/>
<path d="M446.265 312.822H545.733" stroke="#02365E" stroke-width="4"/>
<path d="M451.948 319.215H540.049" stroke="#02365E" stroke-width="4" stroke-linecap="round"/>
<path d="M451.948 326.32H540.049" stroke="#02365E" stroke-width="4" stroke-linecap="round"/>
<path d="M451.948 333.424H540.049" stroke="#02365E" stroke-width="4" stroke-linecap="round"/>
<rect x="484.987" y="278.719" width="22.7356" height="34.1033" rx="0.5832" fill="#656565" stroke="#02365E" stroke-width="4"/>
<path d="M507.767 312.659V278.844C507.767 278.844 507.137 298.964 498.89 306.319C493.858 310.808 484.941 312.659 484.941 312.659H507.767Z" fill="#4A4949"/>
<rect x="484.987" y="278.719" width="22.7356" height="34.1033" rx="0.5832" stroke="#02365E" stroke-width="4"/>
<circle cx="430.989" cy="278.008" r="6.39438" fill="#FFD028"/>
<path fill-rule="evenodd" clip-rule="evenodd" d="M427.826 281.455C431.357 281.455 434.22 278.592 434.22 275.06C434.22 273.984 433.954 272.97 433.485 272.08C435.782 273.05 437.394 275.323 437.394 277.974C437.394 281.505 434.531 284.368 431 284.368C428.544 284.368 426.412 282.984 425.341 280.954C426.105 281.276 426.944 281.455 427.826 281.455Z" fill="#E8B500"/>
<circle cx="430.989" cy="278.008" r="6.39438" stroke="#02365E" stroke-width="4"/>
<rect x="428.146" y="284.402" width="5.68389" height="22.7356" fill="#8A8888"/>
<rect x="428.146" y="285.113" width="2.84195" height="22.7356" fill="#8A8888"/>
<rect x="428.146" y="284.402" width="5.68389" height="22.7356" stroke="#02365E" stroke-width="4"/>
<path d="M426.725 309.471C426.725 308.183 427.769 307.139 429.057 307.139H432.918C434.206 307.139 435.25 308.183 435.25 309.471V312.239C435.25 312.561 434.989 312.823 434.667 312.823H427.308C426.986 312.823 426.725 312.561 426.725 312.239V309.471Z" fill="#8A8888" stroke="#02365E" stroke-width="4"/>
<circle cx="561.718" cy="278.008" r="6.39438" fill="#FFD028"/>
<path fill-rule="evenodd" clip-rule="evenodd" d="M558.543 281.489C562.074 281.489 564.937 278.626 564.937 275.095C564.937 274.019 564.671 273.005 564.202 272.115C566.499 273.085 568.111 275.359 568.111 278.009C568.111 281.54 565.248 284.403 561.717 284.403C559.261 284.403 557.129 283.019 556.058 280.988C556.822 281.311 557.661 281.489 558.543 281.489Z" fill="#E8B500"/>
<circle cx="561.718" cy="278.008" r="6.39438" stroke="#02365E" stroke-width="4"/>
<rect x="558.875" y="284.402" width="5.68389" height="22.7356" fill="#8A8888"/>
<rect x="558.875" y="285.113" width="2.84195" height="22.7356" fill="#8A8888"/>
<rect x="558.875" y="284.402" width="5.68389" height="22.7356" stroke="#02365E" stroke-width="4"/>
<path d="M557.454 309.471C557.454 308.183 558.499 307.139 559.787 307.139H563.647C564.936 307.139 565.98 308.183 565.98 309.471V312.239C565.98 312.561 565.719 312.823 565.397 312.823H558.037C557.715 312.823 557.454 312.561 557.454 312.239V309.471Z" fill="#8A8888" stroke="#02365E" stroke-width="4"/>
<path d="M389.779 288.666H406.831V299.451C406.831 299.773 406.57 300.034 406.248 300.034H390.362C390.04 300.034 389.779 299.773 389.779 299.451V288.666Z" fill="#A9DEFE" stroke="#02365E" stroke-width="4"/>
<path d="M389.779 277.297H406.831V288.665H389.779V277.297Z" fill="#A9DEFE" stroke="#02365E" stroke-width="4"/>
<path d="M386.938 272.196C386.938 271.874 387.2 271.613 387.522 271.613H409.091C409.413 271.613 409.674 271.874 409.674 272.196V276.714C409.674 277.036 409.413 277.297 409.091 277.297H387.522C387.2 277.297 386.938 277.036 386.938 276.714V272.196Z" fill="#C6C6C6" stroke="#02365E" stroke-width="4"/>
<path d="M406.319 299.978V277.152C406.319 277.152 404.27 291.33 400.824 294.906C397.123 298.746 388.988 299.978 388.988 299.978H406.319Z" fill="#2B99D6"/>
<path d="M389.779 288.666H406.831V299.451C406.831 299.773 406.57 300.034 406.248 300.034H390.362C390.04 300.034 389.779 299.773 389.779 299.451V288.666Z" stroke="#02365E" stroke-width="4"/>
<path d="M389.779 277.297H406.831V288.665H389.779V277.297Z" stroke="#02365E" stroke-width="4"/>
<path d="M386.938 272.196C386.938 271.874 387.2 271.613 387.522 271.613H409.091C409.413 271.613 409.674 271.874 409.674 272.196V276.714C409.674 277.036 409.413 277.297 409.091 277.297H387.522C387.2 277.297 386.938 277.036 386.938 276.714V272.196Z" stroke="#02365E" stroke-width="4"/>
<path d="M583.033 288.666H600.085V299.451C600.085 299.773 599.824 300.034 599.502 300.034H583.616C583.294 300.034 583.033 299.773 583.033 299.451V288.666Z" fill="#A9DEFE" stroke="#02365E" stroke-width="4"/>
<path d="M583.033 277.297H600.085V288.665H583.033V277.297Z" fill="#A9DEFE" stroke="#02365E" stroke-width="4"/>
<path d="M580.191 272.196C580.191 271.874 580.453 271.613 580.775 271.613H602.344C602.666 271.613 602.927 271.874 602.927 272.196V276.714C602.927 277.036 602.666 277.297 602.344 277.297H580.775C580.453 277.297 580.191 277.036 580.191 276.714V272.196Z" fill="#C6C6C6" stroke="#02365E" stroke-width="4"/>
<path d="M599.914 299.978V277.152C599.914 277.152 597.865 291.33 594.419 294.906C590.718 298.746 582.584 299.978 582.584 299.978H599.914Z" fill="#2B99D6"/>
<path d="M583.033 288.666H600.085V299.451C600.085 299.773 599.824 300.034 599.502 300.034H583.616C583.294 300.034 583.033 299.773 583.033 299.451V288.666Z" stroke="#02365E" stroke-width="4"/>
<path d="M583.033 277.297H600.085V288.665H583.033V277.297Z" stroke="#02365E" stroke-width="4"/>
<path d="M580.191 272.196C580.191 271.874 580.453 271.613 580.775 271.613H602.344C602.666 271.613 602.927 271.874 602.927 272.196V276.714C602.927 277.036 602.666 277.297 602.344 277.297H580.775C580.453 277.297 580.191 277.036 580.191 276.714V272.196Z" stroke="#02365E" stroke-width="4"/>
<rect x="487.827" y="186.355" width="17.0517" height="17.0517" rx="0.5832" fill="#A9DEFE" stroke="#02365E" stroke-width="4"/>
<rect x="527.614" y="186.355" width="17.0517" height="17.0517" rx="0.5832" fill="#A9DEFE" stroke="#02365E" stroke-width="4"/>
<rect x="583.031" y="186.355" width="17.0517" height="17.0517" rx="0.5832" fill="#A9DEFE" stroke="#02365E" stroke-width="4"/>
<rect x="448.04" y="186.355" width="17.0517" height="17.0517" rx="0.5832" fill="#A9DEFE" stroke="#02365E" stroke-width="4"/>
<rect x="389.78" y="186.355" width="17.0517" height="17.0517" rx="0.5832" fill="#A9DEFE" stroke="#02365E" stroke-width="4"/>
<path d="M406.742 203.181V186.273C406.742 186.273 405.538 194.533 402.092 198.109C398.391 201.95 389.411 203.181 389.411 203.181H406.742Z" fill="#2B99D6"/>
<path d="M464.652 203.605V186.697C464.652 186.697 463.448 194.957 460.002 198.533C456.301 202.373 447.321 203.605 447.321 203.605H464.652Z" fill="#2B99D6"/>
<path d="M505.229 202.759V185.852C505.229 185.852 504.025 194.111 500.579 197.687C496.878 201.528 487.898 202.759 487.898 202.759H505.229Z" fill="#2B99D6"/>
<path d="M544.118 202.759V185.852C544.118 185.852 542.914 194.111 539.468 197.687C535.767 201.528 526.787 202.759 526.787 202.759H544.118Z" fill="#2B99D6"/>
<path d="M599.913 203.605V186.697C599.913 186.697 598.709 194.957 595.263 198.533C591.562 202.373 582.582 203.605 582.582 203.605H599.913Z" fill="#2B99D6"/>
<rect x="487.826" y="186.355" width="17.0517" height="17.0517" rx="0.5832" stroke="#02365E" stroke-width="4"/>
<rect x="527.614" y="186.355" width="17.0517" height="17.0517" rx="0.5832" stroke="#02365E" stroke-width="4"/>
<rect x="583.031" y="186.355" width="17.0517" height="17.0517" rx="0.5832" stroke="#02365E" stroke-width="4"/>
<rect x="448.04" y="186.355" width="17.0517" height="17.0517" rx="0.5832" stroke="#02365E" stroke-width="4"/>
<rect x="389.78" y="186.355" width="17.0517" height="17.0517" rx="0.5832" stroke="#02365E" stroke-width="4"/>
<path d="M369.178 255.982H624.242" stroke="#02365E" stroke-width="4"/>
<rect x="425.306" y="243.195" width="142.097" height="22.7356" rx="0.5832" fill="#C6C6C6" stroke="#02365E" stroke-width="4"/>
<path d="M567.367 266.165V243.34C567.367 243.34 560.604 256.021 547.078 259.402C530.17 263.629 425.765 266.165 425.765 266.165H567.367Z" fill="#8B8A8A"/>
<rect x="425.306" y="243.195" width="142.097" height="22.7356" rx="0.5832" stroke="#02365E" stroke-width="4"/>
<path d="M583.033 231.826H600.085V242.611C600.085 242.933 599.824 243.194 599.502 243.194H583.616C583.294 243.194 583.033 242.933 583.033 242.611V231.826Z" fill="#A9DEFE" stroke="#02365E" stroke-width="4"/>
<path d="M583.033 220.459H600.085V231.827H583.033V220.459Z" fill="#A9DEFE" stroke="#02365E" stroke-width="4"/>
<path d="M600.758 242.493V219.668C600.758 219.668 598.709 233.845 595.263 237.421C591.562 241.262 583.428 242.493 583.428 242.493H600.758Z" fill="#2B99D6"/>
<path d="M583.033 231.826H600.085V242.611C600.085 242.933 599.824 243.194 599.502 243.194H583.616C583.294 243.194 583.033 242.933 583.033 242.611V231.826Z" stroke="#02365E" stroke-width="4"/>
<path d="M583.033 220.459H600.085V231.827H583.033V220.459Z" stroke="#02365E" stroke-width="4"/>
<path d="M580.191 215.359C580.191 215.036 580.453 214.775 580.775 214.775H602.344C602.666 214.775 602.927 215.036 602.927 215.359V219.876C602.927 220.198 602.666 220.459 602.344 220.459H580.775C580.453 220.459 580.191 220.198 580.191 219.876V215.359Z" fill="#C6C6C6" stroke="#02365E" stroke-width="4"/>
<path d="M591.559 220.459V243.195" stroke="#02365E" stroke-width="4"/>
<path d="M389.779 231.826H406.831V242.611C406.831 242.933 406.57 243.194 406.248 243.194H390.362C390.04 243.194 389.779 242.933 389.779 242.611V231.826Z" fill="#A9DEFE" stroke="#02365E" stroke-width="4"/>
<path d="M389.779 220.459H406.831V231.827H389.779V220.459Z" fill="#A9DEFE" stroke="#02365E" stroke-width="4"/>
<path d="M406.319 243.339V220.514C406.319 220.514 404.27 234.691 400.824 238.267C397.123 242.108 388.988 243.339 388.988 243.339H406.319Z" fill="#2B99D6"/>
<path d="M389.779 231.826H406.831V242.611C406.831 242.933 406.57 243.194 406.248 243.194H390.362C390.04 243.194 389.779 242.933 389.779 242.611V231.826Z" stroke="#02365E" stroke-width="4"/>
<path d="M389.779 220.459H406.831V231.827H389.779V220.459Z" stroke="#02365E" stroke-width="4"/>
<path d="M386.938 215.359C386.938 215.036 387.2 214.775 387.522 214.775H409.091C409.413 214.775 409.674 215.036 409.674 215.359V219.876C409.674 220.198 409.413 220.459 409.091 220.459H387.522C387.2 220.459 386.938 220.198 386.938 219.876V215.359Z" fill="#C6C6C6" stroke="#02365E" stroke-width="4"/>
<path d="M398.306 220.459V243.195" stroke="#02365E" stroke-width="4"/>
<path d="M533.299 253.851H538.983M550.351 253.851H545.377M545.377 253.851V260.246M545.377 253.851H538.983M545.377 260.246H550.351M545.377 260.246H539.693M538.983 253.851V247.457" stroke="#02365E" stroke-width="4" stroke-linecap="round"/>
<path d="M597.953 323.478H603.637M615.005 323.478H610.031M610.031 323.478V329.873M610.031 323.478H603.637M610.031 329.873H615.005M610.031 329.873H604.348M603.637 323.478V317.084" stroke="#02365E" stroke-width="4" stroke-linecap="round"/>
<path d="M408.253 209.801H413.937M425.305 209.801H420.331M420.331 209.801V216.195M420.331 209.801H413.937M420.331 216.195H425.305M420.331 216.195H414.647M413.937 209.801V203.406" stroke="#02365E" stroke-width="4" stroke-linecap="round"/>
<path fill-rule="evenodd" clip-rule="evenodd" d="M521.372 124.984H471.328C477.031 117.383 486.116 112.465 496.35 112.465C506.584 112.465 515.67 117.383 521.372 124.984Z" fill="#9BE8A5"/>
<path d="M471.328 124.984L469.728 123.783C469.274 124.389 469.2 125.2 469.539 125.878C469.878 126.556 470.571 126.984 471.328 126.984V124.984ZM521.372 124.984V126.984C522.13 126.984 522.823 126.556 523.161 125.878C523.5 125.2 523.427 124.389 522.972 123.783L521.372 124.984ZM471.328 126.984H521.372V122.984H471.328V126.984ZM472.928 126.184C478.269 119.065 486.772 114.465 496.35 114.465V110.465C485.46 110.465 475.792 115.7 469.728 123.783L472.928 126.184ZM496.35 114.465C505.928 114.465 514.431 119.065 519.773 126.184L522.972 123.783C516.908 115.7 507.24 110.465 496.35 110.465V114.465Z" fill="#02365E"/>
<path d="M515.796 118.644L507.765 114.84C507.765 114.84 509.205 120.279 506.92 120.758C488.744 124.562 472.259 124.562 472.259 124.562H520.446L515.796 118.644Z" fill="#54CD63"/>
<path d="M471.328 124.984L469.728 123.783C469.274 124.389 469.2 125.2 469.539 125.878C469.878 126.556 470.571 126.984 471.328 126.984V124.984ZM521.372 124.984V126.984C522.13 126.984 522.823 126.556 523.161 125.878C523.5 125.2 523.427 124.389 522.972 123.783L521.372 124.984ZM471.328 126.984H521.372V122.984H471.328V126.984ZM472.928 126.184C478.269 119.065 486.772 114.465 496.35 114.465V110.465C485.46 110.465 475.792 115.7 469.728 123.783L472.928 126.184ZM496.35 114.465C505.928 114.465 514.431 119.065 519.773 126.184L522.972 123.783C516.908 115.7 507.24 110.465 496.35 110.465V114.465Z" fill="#02365E"/>
<path d="M520.869 125.83H471.836V159.646H520.869V125.83Z" fill="#C6C6C6" stroke="#02365E" stroke-width="5" stroke-linejoin="round"/>
<path d="M520.445 158.8V124.984C520.445 124.984 520.058 144.82 515.373 148.233C509.428 152.563 495.929 146.542 495.929 146.542L520.445 158.8Z" fill="#8B8A8A"/>
<path d="M520.869 125.83H471.836V159.646H520.869V125.83Z" stroke="#02365E" stroke-width="5" stroke-linejoin="round"/>
<rect x="490.668" y="125.254" width="11.3678" height="17.0517" rx="0.5832" fill="#C6C6C6"/>
<path d="M475.037 125.837C475.037 125.515 475.298 125.254 475.62 125.254H485.822C486.144 125.254 486.405 125.515 486.405 125.837V141.362C486.405 141.795 485.949 142.077 485.561 141.884L475.359 136.783C475.162 136.684 475.037 136.482 475.037 136.261V125.837Z" fill="#C6C6C6"/>
<path d="M517.666 125.837C517.666 125.515 517.405 125.254 517.083 125.254H506.881C506.559 125.254 506.298 125.515 506.298 125.837V141.362C506.298 141.795 506.754 142.077 507.142 141.884L517.344 136.783C517.541 136.684 517.666 136.482 517.666 136.261V125.837Z" fill="#C6C6C6"/>
<path d="M517.487 136.819V126.252C517.487 126.252 515.513 131.088 513.683 133.86C511.494 137.179 506.92 141.469 506.92 141.469L517.487 136.819Z" fill="#8B8A8A"/>
<path d="M501.848 142.314L502.27 126.675C502.27 126.675 501.329 134.653 498.043 138.087C495.793 140.44 490.858 142.314 490.858 142.314H501.848Z" fill="#8B8A8A"/>
<path d="M486.631 141.892V127.097C486.631 127.097 486.306 134.584 482.826 136.397C480.338 137.693 475.641 136.397 475.641 136.397L486.631 141.892Z" fill="#8B8A8A"/>
<rect x="490.668" y="125.254" width="11.3678" height="17.0517" rx="0.5832" stroke="#02365E" stroke-width="4"/>
<path d="M475.037 125.837C475.037 125.515 475.298 125.254 475.62 125.254H485.822C486.144 125.254 486.405 125.515 486.405 125.837V141.362C486.405 141.795 485.949 142.077 485.561 141.884L475.359 136.783C475.162 136.684 475.037 136.482 475.037 136.261V125.837Z" stroke="#02365E" stroke-width="4"/>
<path d="M517.666 125.837C517.666 125.515 517.405 125.254 517.083 125.254H506.881C506.559 125.254 506.298 125.515 506.298 125.837V141.362C506.298 141.795 506.754 142.077 507.142 141.884L517.344 136.783C517.541 136.684 517.666 136.482 517.666 136.261V125.837Z" stroke="#02365E" stroke-width="4"/>
<path d="M496.353 111.044V59.8887" stroke="#02365E" stroke-width="4"/>
<path d="M496.354 60.4719C496.354 60.1498 496.093 59.8887 495.77 59.8887H473.855C472.547 59.8887 471.487 60.949 471.487 62.257C471.487 63.5649 470.426 64.6252 469.118 64.6252H457.15C456.828 64.6252 456.566 64.8864 456.566 65.2084V87.7249C456.566 88.047 456.828 88.3081 457.15 88.3081H479.065C480.373 88.3081 481.433 87.2478 481.433 85.9398C481.433 84.6319 482.494 83.5715 483.802 83.5715H495.77C496.093 83.5715 496.354 83.3104 496.354 82.9883V60.4719Z" fill="#F2463A" stroke="#02365E" stroke-width="4"/>
<path d="M496.353 59.8887V83.5596H481.982V87.7865H458.682C457.411 87.8181 456.62 87.7865 456.62 87.7865H458.682C462.665 87.6875 471.361 86.9684 475.219 82.7142C476.664 81.1197 477.943 80.2952 479.868 79.3326C484.095 77.2192 488.394 79.1845 490.858 78.0645C495.508 75.9511 496.353 59.8887 496.353 59.8887Z" fill="#B81F15"/>
<path d="M496.354 60.4719C496.354 60.1498 496.093 59.8887 495.77 59.8887H473.855C472.547 59.8887 471.487 60.949 471.487 62.257V62.257C471.487 63.5649 470.426 64.6252 469.118 64.6252H457.15C456.828 64.6252 456.566 64.8864 456.566 65.2084V87.7249C456.566 88.047 456.828 88.3081 457.15 88.3081H479.065C480.373 88.3081 481.433 87.2478 481.433 85.9398V85.9398C481.433 84.6319 482.494 83.5715 483.802 83.5715H495.77C496.093 83.5715 496.354 83.3104 496.354 82.9883V60.4719Z" stroke="#02365E" stroke-width="4"/>
<path d="M496.037 146.709C496.206 146.621 496.408 146.621 496.577 146.709L561.672 180.672H430.942L496.037 146.709Z" fill="#C6C6C6" stroke="#02365E" stroke-width="4"/>
<path d="M495.308 155.808C495.479 155.717 495.685 155.717 495.857 155.808L527.633 172.753C528.169 173.038 527.966 173.851 527.359 173.851H463.806C463.199 173.851 462.996 173.038 463.531 172.753L495.308 155.808Z" fill="#DDDDDD" stroke="#02365E" stroke-width="4"/>
<path d="M527.211 173.17L495.509 155.84C495.509 155.84 514.53 167.253 512.839 169.789C511.149 172.325 464.229 173.17 464.229 173.17H527.211Z" fill="#8B8A8A"/>
<path d="M559.759 180.357L528.902 163.449C528.902 163.449 543.274 173.171 542.006 175.707C540.738 178.244 513.263 180.357 513.263 180.357H559.759Z" fill="#8B8A8A"/>
<path d="M496.037 146.709C496.206 146.621 496.408 146.621 496.577 146.709L561.672 180.672H430.942L496.037 146.709Z" stroke="#02365E" stroke-width="4"/>
<path d="M495.308 155.808C495.479 155.717 495.685 155.717 495.857 155.808L527.633 172.753C528.169 173.038 527.966 173.851 527.359 173.851H463.806C463.199 173.851 462.996 173.038 463.531 172.753L495.308 155.808Z" stroke="#02365E" stroke-width="4"/>
<path d="M496.507 117.176C497.331 117.091 497.931 116.355 497.846 115.531C497.762 114.707 497.025 114.107 496.201 114.191L496.507 117.176ZM478.572 120.382C477.899 120.865 477.745 121.802 478.227 122.475C478.71 123.149 479.647 123.303 480.32 122.82L478.572 120.382ZM486.209 117.797L485.668 116.398L486.209 117.797ZM496.354 115.684C496.201 114.191 496.201 114.191 496.201 114.191C496.201 114.191 496.201 114.191 496.201 114.191C496.2 114.192 496.2 114.192 496.199 114.192C496.198 114.192 496.197 114.192 496.195 114.192C496.191 114.192 496.186 114.193 496.179 114.194C496.165 114.195 496.146 114.197 496.121 114.2C496.07 114.205 495.997 114.213 495.903 114.224C495.715 114.245 495.445 114.277 495.109 114.32C494.439 114.406 493.505 114.536 492.449 114.713C490.367 115.062 487.705 115.609 485.668 116.398L486.751 119.196C488.488 118.523 490.898 118.014 492.945 117.672C493.954 117.503 494.848 117.378 495.49 117.296C495.811 117.255 496.067 117.225 496.243 117.205C496.33 117.195 496.398 117.187 496.442 117.183C496.465 117.18 496.482 117.178 496.492 117.177C496.498 117.177 496.502 117.176 496.504 117.176C496.505 117.176 496.506 117.176 496.507 117.176C496.507 117.176 496.507 117.176 496.507 117.176C496.507 117.176 496.507 117.176 496.507 117.176C496.507 117.176 496.507 117.176 496.354 115.684ZM485.668 116.398C483.956 117.061 482.174 118.068 480.852 118.882C480.184 119.294 479.618 119.666 479.218 119.936C479.018 120.071 478.859 120.181 478.749 120.258C478.694 120.296 478.651 120.327 478.621 120.348C478.606 120.358 478.594 120.366 478.586 120.372C478.582 120.375 478.579 120.377 478.577 120.379C478.575 120.38 478.574 120.381 478.574 120.381C478.573 120.381 478.573 120.382 478.573 120.382C478.573 120.382 478.573 120.382 478.572 120.382C478.572 120.382 478.572 120.382 479.446 121.601C480.32 122.82 480.32 122.82 480.32 122.82C480.32 122.82 480.32 122.821 480.32 122.821C480.32 122.821 480.32 122.821 480.32 122.82C480.32 122.82 480.321 122.82 480.321 122.82C480.322 122.819 480.324 122.818 480.327 122.816C480.333 122.812 480.342 122.805 480.354 122.797C480.378 122.779 480.416 122.753 480.465 122.718C480.564 122.65 480.71 122.549 480.896 122.423C481.269 122.171 481.8 121.822 482.426 121.437C483.693 120.656 485.293 119.76 486.751 119.196L485.668 116.398Z" fill="#D9FFDE"/>
<path d="M470.569 67.9199H460.425V84.405" stroke="#FF958D" stroke-width="3" stroke-linecap="round" stroke-linejoin="round"/>
<circle r="1.69078" transform="matrix(-1 0 0 1 429.568 276.308)" fill="#FFEBA5"/>
<circle r="1.69078" transform="matrix(-1 0 0 1 559.758 276.308)" fill="#FFEBA5"/>
<path d="M402.938 190.078H393.639V199.8" stroke="#E1F3FF" stroke-width="3" stroke-linecap="round" stroke-linejoin="round"/>
<path d="M403.36 281.381H394.061V284.34" stroke="#E1F3FF" stroke-width="3" stroke-linecap="round" stroke-linejoin="round"/>
<path d="M596.11 281.381H586.811V284.34" stroke="#E1F3FF" stroke-width="3" stroke-linecap="round" stroke-linejoin="round"/>
<path d="M393.216 228.544V223.895H394.907" stroke="#E1F3FF" stroke-width="3" stroke-linecap="round" stroke-linejoin="round"/>
<path d="M451.548 228.544V223.895H453.239" stroke="#E1F3FF" stroke-width="3" stroke-linecap="round" stroke-linejoin="round"/>
<path d="M491.281 228.544V223.895H492.972" stroke="#E1F3FF" stroke-width="3" stroke-linecap="round" stroke-linejoin="round"/>
<path d="M531.015 228.544V223.895H532.705" stroke="#E1F3FF" stroke-width="3" stroke-linecap="round" stroke-linejoin="round"/>
<path d="M586.811 228.544V223.895H588.501" stroke="#E1F3FF" stroke-width="3" stroke-linecap="round" stroke-linejoin="round"/>
<path d="M460.847 190.078H451.548V199.8" stroke="#E1F3FF" stroke-width="3" stroke-linecap="round" stroke-linejoin="round"/>
<path d="M500.581 190.078H491.281V199.8" stroke="#E1F3FF" stroke-width="3" stroke-linecap="round" stroke-linejoin="round"/>
<path d="M540.314 190.078H531.015V199.8" stroke="#E1F3FF" stroke-width="3" stroke-linecap="round" stroke-linejoin="round"/>
<path d="M596.11 190.078H586.811V199.8" stroke="#E1F3FF" stroke-width="3" stroke-linecap="round" stroke-linejoin="round"/>
<path d="M495.509 151.613L445.631 177.398M442.672 184.584H435.486V238.689M458.734 247.142H429.145V261.937M440.558 322.382H421.114V336.331M480.714 128.365H478.601V131.324M497.199 128.365H493.818V137.665M514.107 128.365H509.457V135.551M451.126 316.042H463.806M464.229 322.805H448.589V329.779M467.188 336.754H448.589V329.779M448.589 329.779H461.27M571.171 322.382H551.727V336.331" stroke="#E4E4E4" stroke-width="3" stroke-linecap="round" stroke-linejoin="round"/>
<path d="M384.761 184.584H367.854L372.926 196.419V251.792M420.268 260.669H372.926L372.08 336.331" stroke="white" stroke-width="3" stroke-linecap="round" stroke-linejoin="round"/>
<path d="M464.652 270.391H462.961V308.01M527.211 270.391H525.52V308.01" stroke="#B8B8B8" stroke-width="3" stroke-linecap="round" stroke-linejoin="round"/>
<path d="M467.188 308.01V291.947M529.746 291.947V308.01" stroke="#747474" stroke-width="3" stroke-linecap="round" stroke-linejoin="round"/>
<path d="M503.962 282.648H489.168V308.01" stroke="#8E8D8D" stroke-width="3" stroke-linecap="round" stroke-linejoin="round"/>
<path d="M577.933 185.006H566.098V237.843M615.976 259.823H571.17" stroke="#CBCBCB" stroke-width="3" stroke-linecap="round" stroke-linejoin="round"/>
<rect x="189.418" y="131.699" width="12.0731" height="209.64" rx="1" fill="#969696" stroke="#02365E" stroke-width="5"/>
<path d="M200.974 341.068V131.699C200.974 131.699 198.607 330.81 195.845 335.939C194.307 338.794 189.316 341.068 189.316 341.068H200.974Z" fill="#5B5B5B"/>
<path d="M196.31 136.361H193.513V274.853" stroke="#D5D5D5" stroke-width="3" stroke-linecap="round" stroke-linejoin="round"/>
<rect x="189.418" y="131.699" width="12.0731" height="209.64" rx="1" stroke="#02365E" stroke-width="5"/>
<path d="M189.419 151.974L138.093 135.261C127.07 132.235 120.393 134.394 118.063 136.071C117.828 136.24 117.708 136.516 117.708 136.805V141.801" stroke="#02365E" stroke-width="5"/>
<rect x="105.382" y="140.58" width="30.6732" height="58.6" rx="1" fill="#314B5F" stroke="#02365E" stroke-width="5"/>
<circle cx="120.77" cy="153.616" r="6.99451" fill="#F2463A" stroke="#02365E" stroke-width="5"/>
<circle cx="120.77" cy="169.905" r="6.99451" fill="#FFD028" stroke="#02365E" stroke-width="5"/>
<circle cx="120.77" cy="186.194" r="6.99451" fill="#54CD63" stroke="#02365E" stroke-width="5"/>
<path fill-rule="evenodd" clip-rule="evenodd" d="M119.371 156.88C121.946 156.88 124.034 154.792 124.034 152.217C124.034 151.287 123.762 150.421 123.293 149.693C124.58 150.523 125.433 151.97 125.433 153.615C125.433 156.191 123.345 158.278 120.77 158.278C119.124 158.278 117.678 157.426 116.848 156.139C117.575 156.608 118.441 156.88 119.371 156.88Z" fill="#B81F15"/>
<path fill-rule="evenodd" clip-rule="evenodd" d="M119.097 173.393C121.672 173.393 123.76 171.305 123.76 168.73C123.76 167.546 123.318 166.465 122.592 165.643C124.262 166.352 125.433 168.007 125.433 169.937C125.433 172.512 123.346 174.6 120.77 174.6C119.379 174.6 118.13 173.99 117.275 173.024C117.835 173.261 118.45 173.393 119.097 173.393Z" fill="#E8B500"/>
<path fill-rule="evenodd" clip-rule="evenodd" d="M119.326 189.81C121.902 189.81 123.989 187.723 123.989 185.147C123.989 183.97 123.553 182.895 122.834 182.074C124.374 182.836 125.433 184.423 125.433 186.257C125.433 188.832 123.345 190.92 120.77 190.92C119.372 190.92 118.117 190.304 117.263 189.33C117.885 189.637 118.585 189.81 119.326 189.81Z" fill="#1D922C"/>
<rect x="132.427" y="296.969" width="24.5385" height="28.6283" fill="white"/>
<path fill-rule="evenodd" clip-rule="evenodd" d="M134.05 270.656C132.997 270.656 132.125 271.472 132.055 272.523L127.782 336.391C127.705 337.545 128.62 338.524 129.777 338.524H159.728C160.885 338.524 161.8 337.545 161.723 336.391L157.45 272.523C157.38 271.472 156.508 270.656 155.455 270.656H134.05ZM141.627 277.019C141.075 277.019 140.627 277.466 140.627 278.019V284.502C140.627 285.055 141.075 285.502 141.627 285.502H148.183C148.736 285.502 149.183 285.055 149.183 284.502V278.019C149.183 277.466 148.736 277.019 148.183 277.019H141.627ZM158.275 301.349C158.275 301.901 157.828 302.349 157.275 302.349H133.071C132.518 302.349 132.071 301.901 132.071 301.349V299.349C132.071 298.796 132.518 298.349 133.071 298.349H157.275C157.828 298.349 158.275 298.796 158.275 299.349V301.349ZM132.071 321.497C132.071 322.049 132.518 322.497 133.071 322.497H157.275C157.828 322.497 158.275 322.049 158.275 321.497V319.497C158.275 318.945 157.828 318.497 157.275 318.497H133.071C132.518 318.497 132.071 318.945 132.071 319.497V321.497Z" fill="#F2463A"/>
<path d="M132.055 272.523L134.549 272.69V272.69L132.055 272.523ZM127.782 336.391L130.276 336.558L127.782 336.391ZM161.723 336.391L159.229 336.558L161.723 336.391ZM157.45 272.523L159.945 272.356V272.356L157.45 272.523ZM134.549 272.69C134.531 272.952 134.313 273.156 134.05 273.156V268.156C131.681 268.156 129.718 269.992 129.56 272.356L134.549 272.69ZM130.276 336.558L134.549 272.69L129.56 272.356L125.287 336.224L130.276 336.558ZM129.777 336.024C130.067 336.024 130.296 336.269 130.276 336.558L125.287 336.224C125.114 338.822 127.174 341.024 129.777 341.024V336.024ZM159.728 336.024H129.777V341.024H159.728V336.024ZM159.229 336.558C159.209 336.269 159.438 336.024 159.728 336.024V341.024C162.331 341.024 164.391 338.822 164.217 336.224L159.229 336.558ZM154.956 272.69L159.229 336.558L164.217 336.224L159.945 272.356L154.956 272.69ZM155.455 273.156C155.192 273.156 154.974 272.952 154.956 272.69L159.945 272.356C159.787 269.992 157.824 268.156 155.455 268.156V273.156ZM134.05 273.156H155.455V268.156H134.05V273.156ZM143.127 278.019C143.127 278.847 142.455 279.519 141.627 279.519V274.519C139.694 274.519 138.127 276.086 138.127 278.019H143.127ZM143.127 284.502V278.019H138.127V284.502H143.127ZM141.627 283.002C142.455 283.002 143.127 283.674 143.127 284.502H138.127C138.127 286.435 139.694 288.002 141.627 288.002V283.002ZM148.183 283.002H141.627V288.002H148.183V283.002ZM146.683 284.502C146.683 283.674 147.355 283.002 148.183 283.002V288.002C150.116 288.002 151.683 286.435 151.683 284.502H146.683ZM146.683 278.019V284.502H151.683V278.019H146.683ZM148.183 279.519C147.355 279.519 146.683 278.847 146.683 278.019H151.683C151.683 276.086 150.116 274.519 148.183 274.519V279.519ZM141.627 279.519H148.183V274.519H141.627V279.519ZM133.071 304.849H157.275V299.849H133.071V304.849ZM129.571 299.349V301.349H134.571V299.349H129.571ZM157.275 295.849H133.071V300.849H157.275V295.849ZM160.775 301.349V299.349H155.775V301.349H160.775ZM157.275 319.997H133.071V324.997H157.275V319.997ZM155.775 319.497V321.497H160.775V319.497H155.775ZM133.071 320.997H157.275V315.997H133.071V320.997ZM134.571 321.497V319.497H129.571V321.497H134.571ZM133.071 315.997C131.138 315.997 129.571 317.564 129.571 319.497H134.571C134.571 320.325 133.899 320.997 133.071 320.997V315.997ZM160.775 319.497C160.775 317.564 159.208 315.997 157.275 315.997V320.997C156.447 320.997 155.775 320.325 155.775 319.497H160.775ZM133.071 319.997C133.899 319.997 134.571 320.669 134.571 321.497H129.571C129.571 323.43 131.138 324.997 133.071 324.997V319.997ZM157.275 324.997C159.208 324.997 160.775 323.43 160.775 321.497H155.775C155.775 320.669 156.447 319.997 157.275 319.997V324.997ZM157.275 300.849C156.447 300.849 155.775 300.177 155.775 299.349H160.775C160.775 297.416 159.208 295.849 157.275 295.849V300.849ZM134.571 299.349C134.571 300.177 133.899 300.849 133.071 300.849V295.849C131.138 295.849 129.571 297.416 129.571 299.349H134.571ZM157.275 304.849C159.208 304.849 160.775 303.282 160.775 301.349H155.775C155.775 300.52 156.447 299.849 157.275 299.849V304.849ZM133.071 299.849C133.899 299.849 134.571 300.52 134.571 301.349H129.571C129.571 303.282 131.138 304.849 133.071 304.849V299.849Z" fill="#02365E"/>
<rect x="689.191" y="232.42" width="116.62" height="108.953" rx="1" fill="#BD645E" stroke="#02365E" stroke-width="4"/>
<path d="M805.767 342.001V232.42C805.767 232.42 795.508 310.292 780.12 323.815C764.733 337.338 689.658 342.001 689.658 342.001H805.767Z" fill="#944A45"/>
<path d="M800.172 237.084H693.855V333.142" stroke="#D98B86" stroke-width="4" stroke-linecap="round" stroke-linejoin="round"/>
<rect x="689.191" y="232.42" width="116.62" height="108.953" rx="1" stroke="#02365E" stroke-width="4"/>
<rect x="695.328" y="290.102" width="30.6895" height="25.636" rx="1" fill="#A9DEFE" stroke="#02365E" stroke-width="4"/>
<path d="M726.028 315.422V290.242C726.028 290.242 723.696 306.2 719.033 309.827C714.37 313.454 695.252 315.422 695.252 315.422H726.028Z" fill="#2B99D6"/>
<path d="M722.296 293.973H699.447V312.158" stroke="#E1F3FF" stroke-width="3" stroke-linecap="round" stroke-linejoin="round"/>
<rect x="695.328" y="290.102" width="30.6895" height="25.636" rx="1" stroke="#02365E" stroke-width="4"/>
<rect x="768.984" y="290.102" width="30.6895" height="25.636" rx="1" fill="#A9DEFE" stroke="#02365E" stroke-width="4"/>
<path d="M799.239 315.422V290.242C799.239 290.242 796.907 306.2 792.244 309.827C787.581 313.454 768.463 315.422 768.463 315.422H799.239Z" fill="#2B99D6"/>
<path d="M795.507 293.973H772.658V312.158" stroke="#E1F3FF" stroke-width="3" stroke-linecap="round" stroke-linejoin="round"/>
<rect x="768.984" y="290.102" width="30.6895" height="25.636" rx="1" stroke="#02365E" stroke-width="4"/>
<rect x="735.227" y="290.1" width="24.5516" height="51.2719" rx="1" fill="white" stroke="#02365E" stroke-width="4"/>
<path d="M742.896 291.703V340.171" stroke="#02365E" stroke-width="4" stroke-linecap="round"/>
<path d="M751.336 291.703V340.171" stroke="#02365E" stroke-width="4" stroke-linecap="round"/>
<line x1="735.992" y1="302.521" x2="759.022" y2="302.521" stroke="#02365E" stroke-width="4"/>
<line x1="735.992" y1="315.34" x2="759.022" y2="315.34" stroke="#02365E" stroke-width="4"/>
<line x1="735.992" y1="328.156" x2="759.022" y2="328.156" stroke="#02365E" stroke-width="4"/>
<path d="M735.611 290.501L761.14 295.184C762.076 295.356 762.7 294.247 762.068 293.536L759.012 290.098" stroke="#02365E" stroke-width="4" stroke-linecap="round"/>
<rect x="695.33" y="239.631" width="104.344" height="25.636" rx="1" fill="#D9D9D9" stroke="#02365E" stroke-width="4"/>
<path d="M798.306 264.129V240.348C798.306 240.348 792.71 252.471 782.918 256.668C773.126 260.865 696.652 264.129 696.652 264.129H798.306Z" fill="#B8B7B7"/>
<rect x="695.33" y="239.631" width="104.344" height="25.636" rx="1" stroke="#02365E" stroke-width="4"/>
<ellipse cx="711.055" cy="301.317" rx="12.2835" ry="6.40899" fill="#FFD028" stroke="#02365E" stroke-width="4"/>
<path d="M722.765 300.034L719.967 296.77C719.967 296.77 719.476 301.191 716.703 302.831C711.936 305.651 699.916 304.697 699.916 304.697L705.045 307.028H716.703L722.298 304.697L722.765 300.034Z" fill="#E8B500"/>
<path d="M712.041 298.638C712.041 298.638 709.126 298.562 707.378 299.105C705.588 299.66 703.181 300.504 703.182 301.436C703.182 302.209 704.581 302.835 704.581 302.835" stroke="#FFEBA5" stroke-width="3" stroke-linecap="round"/>
<ellipse cx="711.055" cy="301.317" rx="12.2835" ry="6.40899" stroke="#02365E" stroke-width="4"/>
<path d="M782.795 282.09H794.081" stroke="#02365E" stroke-width="4" stroke-linecap="round"/>
<path d="M786.086 276.803H797.372" stroke="#02365E" stroke-width="4" stroke-linecap="round"/>
<path d="M790.318 281.609V277.764" stroke="#02365E" stroke-width="4"/>
<path d="M793.609 276.322V272.477" stroke="#02365E" stroke-width="4" stroke-linecap="round"/>
<path d="M695.328 334.162H706.614" stroke="#02365E" stroke-width="4" stroke-linecap="round"/>
<path d="M698.619 328.875H709.905" stroke="#02365E" stroke-width="4" stroke-linecap="round"/>
<path d="M702.852 333.681V329.836" stroke="#02365E" stroke-width="4"/>
<path d="M706.143 328.394V324.549" stroke="#02365E" stroke-width="4" stroke-linecap="round"/>
<path d="M703.77 252.99H789.7" stroke="#02365E" stroke-width="4" stroke-linecap="round"/>
<path d="M791.205 244.336H699.471V261.015" stroke="white" stroke-width="3" stroke-linecap="round" stroke-linejoin="round"/>
<path d="M621.362 322.534C621.285 322.172 621.562 321.83 621.933 321.83H666.907C667.277 321.83 667.554 322.172 667.477 322.534L663.857 339.602C663.799 339.871 663.562 340.064 663.286 340.064H625.553C625.278 340.064 625.04 339.871 624.983 339.602L621.362 322.534Z" fill="#89654B" stroke="#02365E" stroke-width="5"/>
<path d="M662.613 339.202L667.742 321.949C667.742 321.949 658.703 329.825 651.888 333.14C642.474 337.72 625.775 339.202 625.775 339.202H662.613Z" fill="#704C33"/>
<path d="M657.716 326.145H626.707L629.505 336.869" stroke="#B5937A" stroke-width="3" stroke-linecap="round" stroke-linejoin="round"/>
<path d="M621.362 322.534C621.285 322.172 621.562 321.83 621.933 321.83H666.907C667.277 321.83 667.554 322.172 667.477 322.534L663.857 339.602C663.799 339.871 663.562 340.064 663.286 340.064H625.553C625.278 340.064 625.04 339.871 624.983 339.602L621.362 322.534Z" stroke="#02365E" stroke-width="5"/>
<path d="M617.898 322.413C617.898 322.091 618.16 321.83 618.482 321.83H670.359C670.681 321.83 670.942 322.091 670.942 322.413V327.877C670.942 328.199 670.681 328.461 670.359 328.461H618.482C618.16 328.461 617.898 328.199 617.898 327.877V322.413Z" stroke="#02365E" stroke-width="5"/>
<path d="M631.019 264.541L643.952 247.043C644.185 246.727 644.657 246.727 644.89 247.043L657.824 264.541C658.108 264.926 657.833 265.471 657.355 265.471H653.397C652.929 265.471 652.651 265.995 652.915 266.382L665.765 285.28C666.028 285.667 665.751 286.191 665.283 286.191H659.601C659.135 286.191 658.857 286.71 659.116 287.098L669.51 302.69C669.768 303.077 669.491 303.596 669.025 303.596H666.292C665.815 303.596 665.54 304.139 665.822 304.524L673.578 315.1C673.86 315.486 673.585 316.028 673.108 316.028H615.766C615.283 316.028 615.009 315.474 615.303 315.09L623.396 304.534C623.69 304.151 623.417 303.596 622.933 303.596H618.64C618.162 303.596 617.887 303.052 618.171 302.667L629.645 287.121C629.93 286.736 629.655 286.191 629.176 286.191H624.011C623.535 286.191 623.26 285.653 623.537 285.267L637.125 266.395C637.403 266.009 637.128 265.471 636.652 265.471H631.488C631.009 265.471 630.734 264.926 631.019 264.541Z" fill="#1D922C" stroke="#02365E" stroke-width="5"/>
<path d="M658.417 265.527L643.961 246.408L649.518 261.796H643.456L657.018 282.78H650.956L661.681 300.965H657.018L660.282 309.825L616.916 315.421H673.338L665.878 304.229L669.608 302.364L658.417 286.51H665.878L652.821 265.527H658.417Z" fill="#027010"/>
<path d="M645.36 253.869L639.765 261.596H645.36L632.304 281.381L638.366 282.313L626.708 299.567L632.304 300.499L624.377 311.224" stroke="#54CD63" stroke-width="3" stroke-linecap="round" stroke-linejoin="round"/>
<path d="M631.019 264.541L643.952 247.043C644.185 246.727 644.657 246.727 644.89 247.043L657.824 264.541C658.108 264.926 657.833 265.471 657.355 265.471H653.397C652.929 265.471 652.651 265.995 652.915 266.382L665.765 285.28C666.028 285.667 665.751 286.191 665.283 286.191H659.601C659.135 286.191 658.857 286.71 659.116 287.098L669.51 302.69C669.768 303.077 669.491 303.596 669.025 303.596H666.292C665.815 303.596 665.54 304.139 665.822 304.524L673.578 315.1C673.86 315.486 673.585 316.028 673.108 316.028H615.766C615.283 316.028 615.009 315.474 615.303 315.09L623.396 304.534C623.69 304.151 623.417 303.596 622.933 303.596H618.64C618.162 303.596 617.887 303.052 618.171 302.667L629.645 287.121C629.93 286.736 629.655 286.191 629.176 286.191H624.011C623.535 286.191 623.26 285.653 623.537 285.267L637.125 266.395C637.403 266.009 637.128 265.471 636.652 265.471H631.488C631.009 265.471 630.734 264.926 631.019 264.541Z" stroke="#02365E" stroke-width="5"/>
<path d="M636.961 281.219L639.114 285.166C639.344 285.588 639.958 285.566 640.157 285.128L641.934 281.219" stroke="#02365E" stroke-width="5" stroke-linecap="round"/>
<path d="M649.395 294.479L651.548 298.426C651.778 298.848 652.391 298.826 652.59 298.388L654.367 294.479" stroke="#02365E" stroke-width="5" stroke-linecap="round"/>
<path d="M631.988 306.912L634.141 310.859C634.372 311.282 634.985 311.259 635.184 310.821L636.961 306.912" stroke="#02365E" stroke-width="5" stroke-linecap="round"/>
<path d="M644.42 259.67L646.573 263.617C646.803 264.039 647.417 264.017 647.616 263.579L649.393 259.67" stroke="#02365E" stroke-width="5" stroke-linecap="round"/>
<path d="M644.42 315.615V322.246" stroke="#02365E" stroke-width="5"/>
</svg>
