<svg width="63" height="53" viewBox="0 0 63 53" fill="none" xmlns="http://www.w3.org/2000/svg">
<path d="M1.85596 8.42593L9.65596 1.58887L17.156 2.61443L19.856 6.71665L20.756 13.8956L27.056 17.3141L46.556 10.1352L42.356 17.3141H47.756L40.856 26.8859L44.456 32.3557L58.856 30.9882L52.556 36.7997L61.856 48.7647L47.756 40.902L37.556 38.8509L29.756 42.953L33.656 47.0553L29.756 51.1576L23.156 47.7391L15.356 50.4738L16.256 46.3715L12.656 43.2949L14.756 39.8763L8.15596 34.7486L4.25596 25.1768L7.25596 15.9467L3.65596 12.87L4.85596 10.1352L1.85596 8.42593Z" fill="#F2463A" stroke="#F2463A" stroke-width="2" stroke-linecap="round" stroke-linejoin="round"/>
</svg>
