<svg width="62" height="53" viewBox="0 0 62 53" fill="none" xmlns="http://www.w3.org/2000/svg">
<path d="M8.8 1.96924L1 8.8063L4 10.5156M8.8 1.96924L4 10.5156M8.8 1.96924L16.3 2.9948M8.8 1.96924L7.9 11.5411M8.8 1.96924L12.4 5.72963M4 10.5156L2.8 13.2504M4 10.5156L7.9 11.5411M16.3 2.9948L19 7.09703M16.3 2.9948L12.4 5.72963M7.9 11.5411L6.4 16.3271M7.9 11.5411L2.8 13.2504M7.9 11.5411L12.4 5.72963M7.9 11.5411L14.8 11.1993M12.4 5.72963L19 7.09703M12.4 5.72963L14.8 11.1993M19 7.09703L19.9 14.276M19 7.09703L14.8 11.1993M19.9 14.276L26.2 17.6945M19.9 14.276L14.8 11.1993M19.9 14.276L10.6 27.9501M19.9 14.276L12.7 17.3526M19.9 14.276L22.3 24.1897M14.8 11.1993L6.4 16.3271M14.8 11.1993L12.7 17.3526M26.2 17.6945L45.7 10.5156M26.2 17.6945L22.3 24.1897M26.2 17.6945L26.8 28.6338M26.2 17.6945H36.7M10.6 27.9501L7.3 35.129M10.6 27.9501L3.4 25.5571M10.6 27.9501L6.4 16.3271M10.6 27.9501L22.3 24.1897M10.6 27.9501L12.7 17.3526M10.6 27.9501L16.3 36.1547M12.7 17.3526L6.4 16.3271M22.3 24.1897L16.3 36.1547M22.3 24.1897L26.8 28.6338M45.7 10.5156L41.5 17.6945M45.7 10.5156L36.7 17.6945M26.8 28.6338L46.9 17.6945M26.8 28.6338L40 27.2663M26.8 28.6338L16.3 36.1547M26.8 28.6338L32.5 33.4196M26.8 28.6338L27.1 35.4709M36.7 17.6945H41.5M41.5 17.6945H46.9M46.9 17.6945L40 27.2663M40 27.2663L43.6 32.7361M40 27.2663L36.7 39.2313M40 27.2663L32.5 33.4196M43.6 32.7361L58 31.3686L51.7 37.18M43.6 32.7361L51.7 37.18M43.6 32.7361L46.7001 37.8638M36.7 39.2313L46.9 41.2823M36.7 39.2313L28.9 43.3334M36.7 39.2313L32.5 33.4196M36.7 39.2313L27.1 35.4709M36.7 39.2313L46.7001 37.8638M32.5 33.4196L27.1 35.4709M51.7 37.18L61 49.1451L46.9 41.2823M51.7 37.18L46.9 41.2823M51.7 37.18L46.7001 37.8638M46.7001 37.8638L46.9 41.2823M28.9 43.3334L32.8 47.4357L28.9 51.538M28.9 43.3334V51.538M28.9 43.3334L24.1 40.2567M28.9 43.3334L27.1 35.4709M27.1 35.4709L16.3 36.1547M27.1 35.4709L24.1 40.2567M28.9 51.538L22.3 48.1194M28.9 51.538L24.1 40.2567M24.1 40.2567L22.3 48.1194M24.1 40.2567L16.3 36.1547M24.1 40.2567L16.9 41.2823M22.3 48.1194L14.5 50.8542L15.4 46.7519M22.3 48.1194L15.4 46.7519M22.3 48.1194L16.9 41.2823M15.4 46.7519L11.8 43.6753L13.9 40.2567M15.4 46.7519L13.9 40.2567M15.4 46.7519L16.9 41.2823M16.9 41.2823L13.9 40.2567M16.9 41.2823L16.3 36.1547M13.9 40.2567L7.3 35.129M13.9 40.2567L16.3 36.1547M7.3 35.129L3.4 25.5571M7.3 35.129L16.3 36.1547M3.4 25.5571L6.4 16.3271M6.4 16.3271L2.8 13.2504" stroke="white" stroke-linecap="round" stroke-linejoin="round"/>
<path d="M1 8.8063L8.8 1.96924L16.3 2.9948L19 7.09703L19.9 14.276L26.2 17.6945L45.7 10.5156L41.5 17.6945H46.9L40 27.2663L43.6 32.7361L58 31.3686L51.7 37.18L61 49.1451L46.9 41.2823L36.7 39.2313L28.9 43.3334L32.8 47.4357L28.9 51.538L22.3 48.1194L14.5 50.8542L15.4 46.7519L11.8 43.6753L13.9 40.2567L7.3 35.129L3.4 25.5571L6.4 16.3271L2.8 13.2504L4 10.5156L1 8.8063Z" stroke="white" stroke-width="2" stroke-linecap="round" stroke-linejoin="round"/>
</svg>
